<?xml version="1.0" encoding="utf-8"?>
<!-- Generator: Adobe Illustrator 21.0.0, SVG Export Plug-In . SVG Version: 6.00 Build 0)  -->
<svg version="1.1" xmlns="http://www.w3.org/2000/svg" xmlns:xlink="http://www.w3.org/1999/xlink" x="0px" y="0px"
	 viewBox="0 0 228.7 39.1" style="enable-background:new 0 0 228.7 39.1;" xml:space="preserve">
<style type="text/css">
	.st0{display:none;}
	.st1{display:inline;fill:#FED136;}
	.st2{fill:#201C11;}
	.st3{fill:#FAF015;}
	.st4{fill:#F5EA4E;}
	.st5{fill:#06A659;}
	.st6{fill:#06A759;}
	.st7{fill:#221E06;}
	.st8{fill:#272410;}
	.st9{fill:#F9F9F8;}
	.st10{fill:#EDF223;}
	.st11{fill:#413B0F;}
	.st12{fill:#E7F427;}
	.st13{fill:#484311;}
	.st14{fill:#433D0F;}
	.st15{fill:#E5F22A;}
	.st16{fill:#413C0F;}
	.st17{fill:#3B360E;}
	.st18{fill:#443F0F;}
	.st19{fill:#413C0D;}
	.st20{fill:#443E0F;}
	.st21{fill:#1CA640;}
	.st22{fill:#413D0F;}
	.st23{fill:#443F15;}
	.st24{fill:#423C0D;}
	.st25{fill:#393617;}
	.st26{fill:#3A3615;}
	.st27{fill:#3F380C;}
	.st28{fill:#0DA753;}
	.st29{fill:#E5F22D;}
	.st30{fill:#413F11;}
	.st31{fill:#433D10;}
	.st32{fill:#554F19;}
	.st33{fill:#EDEA2E;}
	.st34{fill:#666435;}
	.st35{fill:#5B5316;}
	.st36{fill:#423A0C;}
	.st37{fill:#42380F;}
	.st38{fill:#443B10;}
	.st39{fill:#453B10;}
	.st40{fill:#42370A;}
	.st41{fill:#3F370D;}
	.st42{fill:#41390D;}
	.st43{fill:#3F360B;}
	.st44{fill:#3E350C;}
	.st45{fill:#EEEA30;}
	.st46{fill:#ECEA30;}
	.st47{fill:#F9F440;}
	.st48{fill:#1BA641;}
	.st49{fill:#21A63D;}
	.st50{fill:#1EA53E;}
	.st51{fill:#47410E;}
	.st52{fill:#1EA63D;}
	.st53{fill:#EEEC33;}
	.st54{fill:#CBED37;}
	.st55{fill:#1EA33C;}
	.st56{fill:#D1EB52;}
	.st57{fill:#EEE635;}
	.st58{fill:#24A53A;}
	.st59{fill:#40380F;}
	.st60{fill:#C7EE36;}
	.st61{fill:#26A331;}
	.st62{fill:#F2F2ED;}
	.st63{fill:#1DA540;}
	.st64{fill:#F3F2EB;}
	.st65{fill:#DEEA3C;}
	.st66{fill:#F0E94F;}
	.st67{fill:#EAEDDC;}
	.st68{fill:#EEEFEA;}
	.st69{fill:#737020;}
	.st70{fill:#3CA423;}
	.st71{fill:#EAE6D9;}
	.st72{fill:#F0E850;}
	.st73{fill:#766916;}
	.st74{fill:#3DA82F;}
	.st75{fill:#3CA92E;}
	.st76{fill:#C1DD47;}
	.st77{fill:#D2F23B;}
	.st78{fill:#F7F018;}
	.st79{fill:#FAF9F6;}
	.st80{fill:#FCFBF8;}
	.st81{fill:#FBFAF9;}
	.st82{fill:#F4F5F2;}
	.st83{fill:#F5F3F1;}
	.st84{fill:#F6F5F3;}
	.st85{fill:#F7F7F6;}
	.st86{fill:#444241;}
	.st87{fill:#3C3A1D;}
	.st88{fill:#FAFAF6;}
	.st89{fill:#F9FBF6;}
	.st90{fill:#FAFBF7;}
	.st91{fill:#F9FBF7;}
	.st92{fill:#FBFAF6;}
	.st93{fill:#FBFBFB;}
	.st94{fill:#FAFBF8;}
	.st95{fill:#FBFBF7;}
	.st96{fill:#FBFAF7;}
	.st97{fill:#F8F8F6;}
	.st98{fill:#F9F8F6;}
	.st99{fill:#FBFAF8;}
	.st100{fill:#F7F5F3;}
	.st101{fill:#F5F4EF;}
	.st102{fill:#F3F3F1;}
	.st103{fill:#E0DFDB;}
	.st104{fill:#F2F0EA;}
	.st105{fill:#F2F2EF;}
	.st106{fill:#7E7D7A;}
	.st107{fill:#F8F6F3;}
	.st108{fill:#F8F8F0;}
	.st109{fill:#F6F9F2;}
	.st110{fill:#F7F7F3;}
	.st111{fill:#F8F8F1;}
	.st112{fill:#FAF7F1;}
	.st113{fill:#F8F7EF;}
	.st114{fill:#F6F7F2;}
	.st115{fill:#F9F7F0;}
	.st116{fill:#F6F5EF;}
	.st117{fill:#F5F6EE;}
	.st118{fill:#707265;}
	.st119{fill:#676B61;}
	.st120{fill:#04A65B;}
	.st121{fill:#05A85A;}
	.st122{fill:#07A659;}
	.st123{fill:#1FA340;}
	.st124{fill:#2BA534;}
	.st125{fill:#4FA418;}
	.st126{fill:#343111;}
	.st127{fill:#302F13;}
	.st128{fill:#D2CD4B;}
	.st129{fill:#363519;}
	.st130{fill:#3E381E;}
	.st131{fill:#494624;}
	.st132{fill:#2F2C0B;}
	.st133{fill:#E7EB31;}
	.st134{fill:#E6E332;}
	.st135{fill:#EBE832;}
	.st136{fill:#D5D240;}
	.st137{fill:#E3E340;}
	.st138{fill:#E6E541;}
	.st139{fill:#FFFFFF;}
	.st140{font-family:'MyriadPro-Regular';}
	.st141{font-size:22.8593px;}
</style>
<g id="Layer_1" class="st0">
	<path class="st1" d="M23.1,2.3c0.1,0.4,0.1,0.7,0.2,0.8c0,0.2,0.1,0.4,0,0.6c0,0.8-0.2,1.5-0.5,2.2C22.5,6.5,22,7,21.4,7.3
		c-0.5-0.6-1.1-1.2-1.7-1.6c-0.7-0.5-1.5-0.8-2.3-1.1c-0.8-0.3-1.7-0.5-2.5-0.6c-0.8-0.1-1.7-0.2-2.6-0.2c-0.8,0-1.6,0.1-2.3,0.2
		C9.3,4,8.7,4.2,8.1,4.4C7.6,4.6,7.2,4.9,6.8,5.2C6.5,5.5,6.3,6,6.3,6.4C6.4,7,6.8,7.6,7.3,8c0.6,0.6,1.3,1.1,2.1,1.6
		c0.8,0.5,1.7,1,2.7,1.5s2,1,3,1.4c1.2,0.6,2.2,1.1,3.1,1.6c0.8,0.4,1.5,1,2.2,1.6c0.6,0.6,1,1.3,1.3,2c0.3,0.8,0.4,1.7,0.3,2.6
		c0,1.2-0.2,2.3-0.6,3.4c-0.4,1-1,2-1.8,2.7c-0.8,0.8-1.7,1.4-2.8,1.8c-1.2,0.4-2.4,0.7-3.6,0.7c-1.4,0-2.8-0.2-4.2-0.6
		c-1.5-0.4-2.9-0.9-4.3-1.7c-1.2-0.6-2.4-1.4-3.3-2.4C0.5,23.4,0,22.4,0,21.3c0-0.6,0.2-1.2,0.4-1.8c0.3-0.9,0.8-1.6,1.5-2.3
		C2,18.1,2.4,19,3,19.7c0.8,1.1,1.9,2,3.1,2.7c1.3,0.7,2.6,1.3,4,1.7c1.3,0.3,2.6,0.5,3.9,0.5c1.1,0,2.2-0.1,3.2-0.5
		c0.7-0.3,1.4-0.7,1.9-1.2c0.4-0.4,0.8-0.9,1-1.4c0.2-0.4,0.3-0.7,0.3-1.1c0-0.5-0.3-1-0.6-1.4c-0.5-0.5-1.1-0.9-1.7-1.3
		c-0.7-0.4-1.5-0.8-2.4-1.3s-1.9-0.9-2.9-1.3c-1.5-0.7-2.8-1.3-3.8-1.9c-0.9-0.5-1.8-1.1-2.7-1.8C5.8,11,5.2,10.4,4.9,9.6
		C4.5,8.9,4.4,8.1,4.4,7.4c0-1.3,0.4-2.7,1.2-3.8c0.9-1.2,2.1-2.2,3.5-2.7c0.8-0.3,1.6-0.6,2.4-0.7C12.4,0.1,13.2,0,14.1,0
		c1.5,0,3.1,0.2,4.6,0.6C20.1,1.1,21.6,1.6,23.1,2.3z"/>
	<path class="st1" d="M25.9,12.6c-0.2-0.3-0.3-0.6-0.3-0.9c-0.1-0.4-0.1-0.8-0.1-1.2c0.6,0.1,1.2,0.1,1.8,0.1h1.6
		c0.4-0.7,0.7-1.4,1.1-2.1s0.8-1.3,1.2-1.9c0.3-0.5,0.7-1,1.1-1.5c0.2-0.3,0.5-0.5,0.8-0.8c0.3,0,0.6,0,0.9,0.1
		c0.4,0.1,0.7,0.2,1.1,0.3s0.7,0.3,1,0.4c0.2,0.1,0.5,0.2,0.6,0.4c-0.7,0.9-1.3,1.7-1.8,2.5s-1.1,1.6-1.7,2.6h1.4c0.5,0,1,0,1.5-0.1
		c0.1,0.1,0.2,0.3,0.3,0.4c0.1,0.2,0.1,0.4,0.1,0.5c-1.4,0.5-2.8,0.7-4.2,0.7c-0.6,1.1-1.1,2.3-1.6,3.4S29.9,18,29.5,19
		c-0.3,1-0.5,1.9-0.7,2.9c-0.2,0.8-0.3,1.7-0.3,2.5c0,1,0.4,1.6,1.2,1.7c0.7-0.1,1.4-0.3,2-0.5c0.6-0.2,1.2-0.6,1.7-1
		c0.1,0.2,0.2,0.3,0.2,0.5c-0.2,0.3-0.4,0.5-0.7,0.7c-0.4,0.3-0.7,0.6-1.1,0.8c-0.4,0.3-0.8,0.5-1.2,0.7c-0.3,0.1-0.6,0.3-0.9,0.3
		c-0.6,0-1.2-0.1-1.8-0.3c-0.6-0.2-1.1-0.5-1.6-0.9c-0.5-0.3-0.9-0.7-1.2-1.2c-0.3-0.4-0.4-0.8-0.5-1.3c0-0.7,0.1-1.4,0.2-2.1
		c0.1-0.9,0.4-1.8,0.6-2.8s0.6-2.1,1-3.2s0.8-2.2,1.2-3.3L25.9,12.6z"/>
	<path class="st1" d="M48.5,11.8c0.3,0,0.6,0,0.8,0.1c0.3,0.1,0.6,0.2,0.9,0.3c0.2,0.1,0.4,0.2,0.7,0.4c0.2,0.1,0.3,0.3,0.3,0.4
		c-0.5,1-0.9,2-1.3,3s-0.7,2-1,2.9c-0.3,0.8-0.5,1.7-0.7,2.6c-0.1,0.7-0.2,1.4-0.2,2.1c0,0.6,0.1,1.1,0.2,1.6
		c0.1,0.4,0.4,0.7,0.7,0.9c-0.3,0.2-0.7,0.4-1.1,0.5c-0.4,0.1-0.8,0.2-1.2,0.2c-1.3,0-1.9-0.9-1.9-2.6c0.1-1.9,0.6-3.8,1.4-5.5
		c-0.5,1-1,2-1.6,3c-0.6,0.9-1.2,1.7-1.9,2.5c-0.6,0.7-1.2,1.3-2,1.9c-0.5,0.4-1.1,0.7-1.8,0.8c-0.9,0-1.7-0.5-2.1-1.2
		c-0.6-0.9-0.9-1.9-0.8-3c0-1.4,0.3-2.9,0.8-4.2c0.6-1.4,1.3-2.8,2.2-4.1c0.8-1.2,1.8-2.2,2.9-3.1c0.8-0.8,1.9-1.2,3-1.3
		c0.3,0.1,0.6,0.2,0.8,0.4c0.3,0.2,0.6,0.5,0.8,0.7c0.3,0.3,0.5,0.6,0.7,0.9c0.2,0.2,0.3,0.5,0.3,0.8c-1.1,0.2-2.1,0.6-2.9,1.3
		c-1,0.8-2,1.8-2.7,2.8c-0.8,1.1-1.5,2.3-2,3.5c-0.5,1.1-0.8,2.3-0.8,3.5c0,0.4,0.2,0.7,0.5,0.8c0.9-0.3,1.8-0.9,2.4-1.8
		c1.2-1.5,2.3-3.1,3.3-4.8l0.8-1.4c0.3-0.5,0.6-1.1,0.9-1.6l0.9-1.7C48,12.9,48.2,12.4,48.5,11.8z"/>
	<path class="st1" d="M52.1,25.4c0.1-0.7,0.3-1.6,0.6-2.7s0.6-2.3,1-3.6s0.8-2.5,1.3-3.8s0.9-2.4,1.3-3.4c0.2-0.6,0.5-1.2,0.8-1.7
		c0.2-0.4,0.5-0.7,0.8-1c0.3,0.1,0.7,0.1,1,0.3c0.3,0.1,0.7,0.3,1,0.4c0.3,0.2,0.6,0.3,0.9,0.5c0.2,0.1,0.4,0.3,0.6,0.5
		c-0.7,0.8-1.2,1.7-1.7,2.6c-0.5,1.2-1,2.4-1.4,3.6c1.3-1.1,2.4-2.2,3.4-3.3c1-1.1,1.9-2.2,2.7-3.5c0.2-0.1,0.5-0.2,0.7-0.2
		c0.3,0,0.7,0,1,0.2c0.3,0.1,0.5,0.2,0.6,0.4c-0.4,1.1-0.6,2.2-0.6,3.4c-0.1,0.8,0.1,1.6,0.5,2.3c-0.1,0.3-0.3,0.6-0.5,0.8
		c-0.3,0.4-0.6,0.8-1,1.1c-0.7-0.3-1.2-0.8-1.7-1.3c-0.5-0.6-0.9-1.2-1.1-1.9c-1,0.7-1.9,1.5-2.8,2.3c-0.8,0.7-1.4,1.6-2,2.5
		c-0.6,1-1.1,2-1.4,3.1c-0.4,1.2-0.8,2.6-1.1,4.2c-0.3,0-0.5-0.1-0.8-0.2c-0.3-0.1-0.6-0.3-0.9-0.5c-0.3-0.2-0.5-0.4-0.8-0.6
		C52.3,25.9,52.2,25.6,52.1,25.4z"/>
	<path class="st1" d="M69.3,12.6C69.1,12.3,69,12,69,11.7c-0.1-0.4-0.1-0.8-0.1-1.2c0.6,0.1,1.2,0.1,1.8,0.1h1.6
		c0.3-0.7,0.7-1.4,1.2-2.1s0.8-1.3,1.2-1.9c0.3-0.5,0.7-1,1.1-1.5c0.2-0.3,0.5-0.6,0.8-0.8c0.3,0,0.6,0,0.9,0.1
		c0.4,0.1,0.7,0.2,1.1,0.3s0.7,0.3,1,0.4c0.2,0.1,0.5,0.2,0.6,0.4c-0.7,0.9-1.3,1.7-1.8,2.5s-1.1,1.6-1.7,2.6H78c0.5,0,1,0,1.5-0.1
		c0.1,0.1,0.2,0.3,0.3,0.4c0.1,0.2,0.1,0.4,0.1,0.5c-1.4,0.5-2.8,0.7-4.2,0.7c-0.6,1.1-1.1,2.3-1.6,3.4S73.3,18,73,19
		c-0.3,1-0.6,1.9-0.8,2.9c-0.2,0.8-0.2,1.7-0.3,2.5c0,1,0.4,1.6,1.2,1.7c0.7-0.1,1.4-0.3,2-0.5c0.6-0.2,1.2-0.6,1.7-1
		c0.1,0.2,0.2,0.3,0.3,0.5c-0.2,0.3-0.5,0.5-0.7,0.7c-0.4,0.3-0.7,0.6-1.1,0.8c-0.4,0.3-0.8,0.5-1.2,0.7c-0.3,0.1-0.6,0.2-0.8,0.3
		c-0.6,0-1.2-0.1-1.8-0.3c-0.6-0.2-1.1-0.5-1.6-0.9c-0.5-0.3-0.9-0.7-1.2-1.2c-0.3-0.4-0.5-0.8-0.5-1.3c0-0.7,0.1-1.4,0.2-2.1
		c0.2-0.9,0.4-1.8,0.7-2.8s0.6-2.1,1-3.2s0.8-2.2,1.2-3.3L69.3,12.6z"/>
	<path class="st1" d="M112.6,6.6c0,1.4-0.4,2.8-1.2,3.9c-0.9,1.2-2,2.2-3.3,2.9c0.9,0.6,1.6,1.3,2.1,2.2c0.5,0.9,0.8,1.9,0.8,2.9
		c0,1.3-0.4,2.6-1.2,3.8c-0.8,1.3-1.9,2.4-3.1,3.3c-1.3,1-2.8,1.8-4.3,2.3c-1.6,0.6-3.3,0.9-5,0.9c-1.7,0-3.3-0.3-4.8-1
		c-1.3-0.7-2.5-1.7-3.2-3c0.2-0.7,0.5-1.6,0.9-2.6c0.4-1,0.8-2.2,1.3-3.3s1-2.3,1.4-3.5s0.9-2.2,1.4-3.1c0.9-2,1.7-3.7,2.4-5
		c0.6-1.1,1.3-2.2,2-3.1c-1.2,0.4-2.4,0.8-3.5,1.4c-0.8,0.4-1.6,0.9-2.3,1.5c-0.2-0.2-0.5-0.4-0.7-0.6c-0.2-0.3-0.4-0.6-0.6-0.9
		c-0.2-0.3-0.4-0.7-0.5-1C91.1,4,91,3.7,91,3.4c0.7-0.5,1.6-0.9,2.4-1.2c1-0.4,2.1-0.7,3.2-1c1.2-0.3,2.4-0.5,3.6-0.7
		c1.2-0.2,2.3-0.2,3.5-0.2c2.3-0.1,4.7,0.5,6.7,1.7C111.8,3,112.7,4.8,112.6,6.6z M99.1,15.1c-0.5-0.2-0.9-0.6-1.2-1
		c-0.6,1.2-1.1,2.4-1.5,3.5s-0.9,2.2-1.3,3.2s-0.7,1.9-0.9,2.6c-0.2,0.5-0.3,1.1-0.4,1.6c0.4,0.2,0.8,0.3,1.2,0.4
		c0.6,0.1,1.1,0.2,1.7,0.2c1.6,0,3.1-0.2,4.6-0.7c1.4-0.4,2.7-1.1,3.9-1.9c1-0.7,1.9-1.6,2.7-2.6c0.6-0.9,1-2,1-3.1
		c0.1-1.4-0.7-2.8-2-3.4c-2,0.8-4.1,1.2-6.2,1.1h-0.8C99.6,15.1,99.3,15.1,99.1,15.1z M106,2.8c-0.5,0-1,0-1.6,0.1
		c-0.6,0.1-1.1,0.1-1.8,0.3c0.1,0.1,0.2,0.2,0.2,0.3c0,0.1,0.1,0.2,0.2,0.3c-0.3,0.4-0.5,0.8-0.8,1.2c-0.3,0.5-0.7,1.2-1,1.9
		s-0.8,1.5-1.2,2.4s-0.8,1.8-1.3,2.7c0.5-0.1,1-0.2,1.5-0.2c0.6-0.1,1.1-0.1,1.7-0.1c0.3,0,0.6,0,0.9,0s0.6,0.1,0.9,0.1
		c1-0.2,2.1-0.4,3.1-0.8c0.8-0.3,1.6-0.8,2.3-1.3c0.6-0.4,1.1-1,1.5-1.6c0.3-0.6,0.5-1.2,0.5-1.9c0.1-1-0.5-2-1.3-2.6
		C108.7,3,107.4,2.7,106,2.8z"/>
	<path class="st1" d="M117.5,27.4c-1.3-0.1-2.4-0.7-3.2-1.8c-0.8-1.2-1.3-2.6-1.2-4c0-1,0.1-2,0.4-2.9c0.3-1,0.7-2,1.2-3
		c0.5-1,1.1-1.9,1.8-2.7c0.7-0.8,1.4-1.6,2.3-2.2c1-0.9,2.3-1.4,3.7-1.5c1,0.6,1.7,1.5,2.2,2.5h0.3h0.3c1.3,0,1.9,1.1,1.9,3.3
		c0,1.4-0.2,2.9-0.7,4.2c-0.5,1.3-1.1,2.5-2,3.6c-0.9,1.1-1.9,2-3.1,2.8C120.3,26.5,118.9,27.1,117.5,27.4z M119.3,16.2
		c-0.4,0.6-0.8,1.2-1.1,1.8c-0.3,0.6-0.7,1.3-0.9,1.9c-0.2,0.6-0.4,1.2-0.6,1.9c-0.1,0.5-0.2,1.1-0.2,1.6c0,0.6,0.1,1.1,0.3,1.6
		c0.2,0.5,0.4,0.8,0.6,0.9c1.1-0.2,2.1-0.7,2.9-1.3c0.9-0.7,1.7-1.5,2.3-2.4c0.7-1,1.2-2.1,1.5-3.3c0.4-1.3,0.6-2.6,0.6-3.9
		c0-0.5,0-1-0.1-1.5c-0.1-0.3-0.2-0.6-0.3-0.9c-1,0.3-2,0.8-2.8,1.5C120.7,14.7,120,15.4,119.3,16.2z"/>
	<path class="st1" d="M133.1,27.4c-1.3-0.1-2.4-0.7-3.2-1.8c-0.9-1.2-1.3-2.6-1.2-4c0-1,0.1-2,0.4-2.9c0.3-1,0.7-2,1.2-3
		c0.5-1,1.1-1.9,1.8-2.7c0.7-0.8,1.4-1.6,2.3-2.2c1-0.9,2.3-1.4,3.6-1.5c1,0.6,1.7,1.5,2.2,2.5h0.3h0.3c1.3,0,1.9,1.1,1.9,3.3
		c0,1.4-0.2,2.9-0.7,4.2c-0.5,1.3-1.1,2.5-2,3.6c-0.9,1.1-1.9,2-3.1,2.8C135.9,26.5,134.5,27.1,133.1,27.4z M135,16.2
		c-0.4,0.6-0.8,1.2-1.1,1.8c-0.3,0.6-0.7,1.3-0.9,1.9c-0.2,0.6-0.4,1.2-0.6,1.9c-0.1,0.5-0.2,1.1-0.2,1.6c0,0.6,0.1,1.1,0.3,1.6
		c0.2,0.5,0.4,0.8,0.6,0.9c1.1-0.2,2-0.7,2.9-1.3c0.9-0.7,1.7-1.5,2.3-2.4c0.7-1,1.2-2.1,1.5-3.3c0.4-1.3,0.6-2.6,0.6-3.9
		c0-0.5,0-1-0.1-1.5c-0.1-0.3-0.2-0.6-0.4-0.9c-1,0.3-2,0.8-2.8,1.5C136.3,14.7,135.6,15.4,135,16.2z"/>
	<path class="st1" d="M146.3,12.6c-0.2-0.3-0.3-0.6-0.3-0.9c-0.1-0.4-0.1-0.8-0.1-1.2c0.6,0.1,1.2,0.1,1.8,0.1h1.6
		c0.4-0.7,0.7-1.4,1.1-2.1s0.8-1.3,1.2-1.9c0.3-0.5,0.7-1,1.1-1.5c0.2-0.3,0.5-0.6,0.8-0.8c0.3,0,0.6,0,0.9,0.1
		c0.4,0.1,0.7,0.2,1.1,0.3s0.7,0.3,1,0.4c0.2,0.1,0.5,0.2,0.6,0.4c-0.7,0.9-1.3,1.7-1.8,2.5s-1.1,1.6-1.6,2.6h1.4c0.5,0,1,0,1.5-0.1
		c0.1,0.1,0.2,0.3,0.3,0.4c0.1,0.2,0.1,0.4,0.1,0.5c-1.4,0.5-2.8,0.7-4.2,0.7c-0.6,1.1-1.1,2.3-1.6,3.4s-0.9,2.2-1.2,3.3
		c-0.3,1-0.5,1.9-0.7,2.9c-0.2,0.8-0.3,1.7-0.3,2.5c0,1,0.4,1.6,1.2,1.7c0.7-0.1,1.4-0.3,2-0.5c0.6-0.2,1.2-0.6,1.7-1
		c0.1,0.2,0.2,0.3,0.3,0.5c-0.2,0.3-0.5,0.5-0.7,0.7c-0.4,0.3-0.7,0.6-1.1,0.8c-0.4,0.3-0.8,0.5-1.2,0.7c-0.3,0.1-0.6,0.2-0.9,0.3
		c-0.6,0-1.2-0.1-1.8-0.3c-0.6-0.2-1.1-0.5-1.6-0.9c-0.5-0.3-0.9-0.7-1.2-1.2c-0.3-0.4-0.4-0.8-0.5-1.3c0-0.7,0.1-1.4,0.2-2.1
		c0.1-0.9,0.4-1.8,0.6-2.8s0.6-2.1,1-3.2s0.8-2.2,1.2-3.3L146.3,12.6z"/>
	<path class="st1" d="M168.9,12c0,0.5-0.1,0.9-0.2,1.4c-0.1,0.4-0.3,0.9-0.5,1.3c-0.2,0.4-0.4,0.7-0.6,1c-0.1,0.2-0.4,0.4-0.6,0.4
		c-0.3,0-0.4-0.2-0.5-0.5c0-0.1,0-0.2,0.1-0.3c0.1-0.1,0.1-0.3,0.2-0.5s0.1-0.4,0.2-0.6c0.1-0.2,0.1-0.3,0.1-0.5
		c0-0.3-0.1-0.6-0.2-0.8c-0.1-0.2-0.4-0.3-0.6-0.3c-0.9,0-1.7,0.6-2.2,1.8c-0.6,1.7-0.8,3.4-0.7,5.2c0,0.1,0,0.3,0,0.4h2.5
		c0,0.1,0,0.2,0,0.3c0,0.2,0,0.3-0.1,0.5l-1.3,0.3c-0.2,0.1-0.5,0.1-0.7,0.2c-0.1,0-0.2,0.1-0.3,0.2c0,0.1-0.1,0.2-0.1,0.3
		c0,0.2,0,0.4,0,0.6s0,0.4,0,0.7c0.1,1.7-0.5,3.4-1.6,4.8c-1.2,1.2-2.8,2-4.5,2.1c-0.3,0-0.7-0.1-1-0.3c-0.4-0.2-0.7-0.4-1-0.6
		c-0.3-0.3-0.6-0.5-0.8-0.9c-0.2-0.3-0.4-0.6-0.5-1c0-0.9,0.2-1.8,0.6-2.6c0.4-0.8,0.9-1.5,1.5-2.2c0.7-0.6,1.4-1.2,2.3-1.5
		c0.9-0.4,1.9-0.6,2.9-0.6c0-0.6-0.1-1.2-0.2-1.7c-0.1-0.6-0.2-1.1-0.4-1.6s-0.3-1.1-0.4-1.6c-0.1-0.5-0.2-1-0.2-1.5
		c0-0.7,0.1-1.3,0.4-1.9c0.2-0.6,0.6-1.2,1-1.7c0.4-0.5,0.9-1,1.5-1.4c0.5-0.4,1.1-0.6,1.8-0.8c0.4,0.1,0.7,0.4,1,0.6
		c0.5,0.4,0.9,0.7,1.3,1.1c0.4,0.4,0.8,0.8,1.1,1.3C168.5,11.2,168.7,11.6,168.9,12z M157.2,28.1c0.6-0.2,1.1-0.6,1.6-1
		c1-0.9,1.8-2,2.2-3.3c0.2-0.6,0.3-1.2,0.3-1.9c-0.6,0.1-1.1,0.3-1.6,0.7c-1.1,0.7-2.1,1.7-2.8,2.9c-0.3,0.4-0.5,0.9-0.5,1.4
		C156.5,27.4,156.8,27.8,157.2,28.1z"/>
	<path class="st1" d="M171,12.6c-0.2-0.3-0.3-0.6-0.3-0.9c-0.1-0.4-0.1-0.8-0.1-1.2c0.6,0.1,1.2,0.1,1.8,0.1h1.6
		c0.4-0.7,0.7-1.4,1.1-2.1s0.8-1.3,1.2-1.9c0.3-0.5,0.7-1,1.1-1.5c0.2-0.3,0.5-0.6,0.8-0.8c0.3,0,0.6,0,0.9,0.1
		c0.4,0.1,0.7,0.2,1.1,0.3s0.7,0.3,1,0.4c0.2,0.1,0.5,0.2,0.6,0.4c-0.7,0.9-1.3,1.7-1.8,2.5s-1.1,1.6-1.6,2.6h1.4c0.5,0,1,0,1.5-0.1
		c0.1,0.1,0.2,0.3,0.3,0.4c0.1,0.2,0.1,0.4,0.1,0.5c-1.4,0.5-2.8,0.7-4.2,0.7c-0.6,1.1-1.1,2.3-1.6,3.4s-0.9,2.2-1.2,3.3
		c-0.3,1-0.5,1.9-0.7,2.9c-0.2,0.8-0.3,1.7-0.3,2.5c0,1,0.4,1.6,1.2,1.7c0.7-0.1,1.4-0.3,2-0.5c0.6-0.2,1.2-0.6,1.7-1
		c0.1,0.2,0.2,0.3,0.3,0.5c-0.2,0.3-0.5,0.5-0.7,0.7c-0.4,0.3-0.7,0.6-1.1,0.8c-0.4,0.3-0.8,0.5-1.2,0.7c-0.3,0.1-0.6,0.2-0.9,0.3
		c-0.6,0-1.2-0.1-1.8-0.3c-0.6-0.2-1.1-0.5-1.6-0.9c-0.5-0.3-0.9-0.7-1.2-1.2c-0.3-0.4-0.4-0.8-0.5-1.3c0-0.7,0.1-1.4,0.2-2.1
		c0.1-0.9,0.4-1.8,0.6-2.8s0.6-2.1,1-3.2s0.8-2.2,1.2-3.3L171,12.6z"/>
	<path class="st1" d="M180.6,25.4c0.1-0.7,0.3-1.6,0.6-2.7s0.6-2.3,1-3.6s0.8-2.5,1.3-3.8s0.9-2.4,1.3-3.4c0.2-0.6,0.5-1.2,0.8-1.7
		c0.2-0.4,0.5-0.7,0.8-1c0.3,0.1,0.7,0.1,1,0.3c0.3,0.1,0.7,0.3,1,0.4c0.3,0.2,0.6,0.3,0.9,0.5c0.2,0.1,0.4,0.3,0.6,0.5
		c-0.7,0.8-1.2,1.7-1.7,2.6c-0.5,1.2-1,2.4-1.4,3.6c1.3-1.1,2.4-2.2,3.4-3.3c1-1.1,1.9-2.2,2.8-3.5c0.2-0.1,0.5-0.2,0.7-0.2
		c0.3,0,0.6,0.1,0.9,0.2c0.3,0.1,0.5,0.2,0.6,0.4c-0.4,1.1-0.6,2.2-0.6,3.4c0,0.8,0.1,1.6,0.5,2.3c-0.1,0.3-0.3,0.6-0.5,0.8
		c-0.3,0.4-0.6,0.8-1,1.1c-1.3-0.7-2.3-1.9-2.8-3.3c-1,0.7-1.9,1.5-2.8,2.3c-0.8,0.7-1.4,1.6-2,2.5c-0.6,1-1.1,2-1.4,3.1
		c-0.4,1.2-0.8,2.6-1.1,4.2c-0.3,0-0.5-0.1-0.8-0.2c-0.6-0.3-1.2-0.6-1.7-1.1C180.8,25.9,180.7,25.7,180.6,25.4z"/>
	<path class="st1" d="M207.9,11.8c0.3,0,0.6,0,0.8,0.1c0.3,0.1,0.6,0.2,0.9,0.3c0.2,0.1,0.4,0.2,0.6,0.4c0.2,0.1,0.3,0.3,0.3,0.4
		c-0.5,1-0.9,2-1.3,3s-0.7,2-1,2.9c-0.3,0.8-0.5,1.7-0.6,2.6c-0.1,0.7-0.2,1.4-0.2,2.1c0,0.6,0.1,1.1,0.2,1.6
		c0.1,0.4,0.4,0.7,0.7,0.9c-0.3,0.2-0.7,0.4-1.1,0.5c-0.4,0.1-0.8,0.2-1.2,0.2c-1.3,0-1.9-0.9-1.9-2.6c0.1-1.9,0.6-3.8,1.3-5.5
		c-0.5,1-1,2-1.6,3c-0.6,0.9-1.2,1.7-1.9,2.5c-0.6,0.7-1.2,1.3-2,1.9c-0.5,0.4-1.1,0.7-1.8,0.8c-0.9,0-1.7-0.5-2.1-1.2
		c-0.6-0.9-0.9-1.9-0.8-3c0-1.4,0.3-2.9,0.9-4.2c0.6-1.4,1.3-2.8,2.2-4.1c0.8-1.2,1.8-2.2,2.9-3.1c0.8-0.8,1.9-1.2,3-1.3
		c0.3,0.1,0.6,0.2,0.8,0.4c0.3,0.2,0.6,0.5,0.9,0.7c0.3,0.3,0.5,0.6,0.7,0.9c0.2,0.2,0.3,0.5,0.3,0.8c-1.1,0.2-2.1,0.6-2.9,1.3
		c-1,0.8-2,1.8-2.7,2.8c-0.8,1.1-1.5,2.3-2,3.5c-0.5,1.1-0.8,2.3-0.8,3.5c0,0.4,0.2,0.7,0.5,0.8c0.9-0.3,1.8-0.9,2.4-1.8
		c1.2-1.5,2.3-3.1,3.3-4.8l0.8-1.4c0.3-0.5,0.6-1.1,0.9-1.6l0.9-1.7C207.3,12.9,207.6,12.4,207.9,11.8z"/>
	<path class="st1" d="M209.7,37.8c-0.3-0.1-0.5-0.4-0.6-1.1c-0.1-0.4-0.2-0.7-0.2-1.1c0-0.4-0.1-0.9-0.1-1.5c0-0.7,0.1-1.3,0.2-2
		c0.2-0.9,0.4-1.8,0.7-2.9s0.6-2.3,1.1-3.5s0.9-2.5,1.4-3.8c0.6-1.6,1.2-3,1.7-4.2s0.9-2.2,1.2-3.1s0.6-1.6,0.8-2.2s0.4-1,0.5-1.5
		c0.1-0.3,0.3-0.7,0.4-1c0.2-0.4,0.4-0.8,0.7-1.2c0.2-0.4,0.5-0.8,0.8-1.2c0.2-0.3,0.4-0.6,0.7-0.8c0.8,0.1,1.6,0.3,2.3,0.6
		c0.5,0.2,1,0.5,1.4,0.9c-0.4,0.4-0.8,0.9-1.1,1.4c-0.5,0.7-0.9,1.4-1.2,2.1c-0.4,0.8-0.8,1.6-1.1,2.4c-0.3,0.7-0.5,1.4-0.7,2.1
		c0.3-0.5,0.6-0.9,0.9-1.3c0.4-0.5,1-1.1,1.7-2c0.7-0.8,1.6-1.5,2.5-2.1c0.6-0.4,1.3-0.7,2-0.7c0.8,0,1.6,0.2,2.2,0.7
		c0.6,0.5,0.9,1.2,0.9,1.9c0,1.7-0.3,3.4-0.9,5.1c-0.5,1.6-1.4,3.2-2.4,4.5c-0.4,0.5-0.9,1-1.4,1.4c-0.5,0.5-1.1,0.9-1.7,1.3
		c-0.5,0.3-1.1,0.6-1.7,0.9c-0.5,0.2-1,0.3-1.5,0.3c-0.4,0-0.8-0.1-1.1-0.3c-0.3-0.1-0.5-0.4-0.6-0.7c1-0.6,1.9-1.4,2.7-2.3
		c0.9-1,1.7-2.1,2.4-3.3c0.8-1.3,1.4-2.7,1.9-4.1c0.5-1.4,1-2.9,1.3-4.5c-0.9,0.4-1.7,1-2.4,1.5c-0.8,0.6-1.5,1.4-2.2,2.2
		c-0.9,1-1.5,1.9-2,2.5s-0.9,1.2-1.2,1.6c-0.3,0.4-0.6,0.8-0.8,1.3c-0.2,0.4-0.4,0.9-0.6,1.4c-0.3,0.8-0.7,1.8-1.1,3
		s-0.9,2.6-1.4,4.2s-0.9,3.2-1.4,4.9c-0.5,1.7-0.9,3.5-1.3,5.2c-0.3-0.1-0.5-0.3-0.7-0.6c-0.2-0.2-0.3-0.4-0.4-0.5
		C210,38,209.9,37.9,209.7,37.8z"/>
</g>
<g id="Layer_2">
	<g>
		<path class="st2" d="M43.3,18.4c-0.2,0.3-0.1,0.6-0.2,0.9c-0.5,4.1-1.7,8-3.7,11.7c-1.1,2-2.3,3.9-3.7,5.7
			c-0.1,0.2-0.3,0.2-0.5,0.3c-2.5,0.8-5.1,1.4-7.7,1.7c-0.7,0.1-1.4,0.1-2.1,0.2c-0.1,0-0.2,0-0.2,0.1c-1.5,0-3,0-4.5,0
			c-0.2-0.2-0.4-0.1-0.6-0.1c-3.2-0.2-6.4-0.9-9.4-1.9c-0.1,0-0.2-0.1-0.3-0.2c-3-3.8-5.2-8-6.4-12.7c-0.5-2-0.8-4-1-6
			C3,17,3,15.7,3,14.5c0-0.2,0-0.3,0.2-0.5c1.2-1.6,2.4-3,3.8-4.4c2.7-2.7,5.7-4.9,9.1-6.7c2.2-1.2,4.6-2.1,7-2.8c0.1,0,0.2,0,0.3,0
			c3.9,1.2,7.5,2.9,10.8,5.1c1.6,1.1,3.2,2.4,4.6,3.8c1.5,1.5,2.9,3,4.2,4.7c0.1,0.1,0.1,0.2,0.3,0.3C43.3,15.4,43.3,16.9,43.3,18.4
			z"/>
		<path class="st3" d="M3.3,14.2c0.8-1.1,1.6-2.1,2.5-3.1c3.5-3.9,7.7-6.9,12.5-9c1.5-0.7,3.1-1.3,4.7-1.7c0.2-0.1,0.3-0.1,0.5,0
			c6.9,2.1,12.8,5.8,17.6,11.2c0.7,0.8,1.3,1.6,1.9,2.4c0.1,0.2,0.2,0.4,0.2,0.6c0.1,6.8-1.7,13.1-5.3,18.9
			c-0.7,1.1-1.4,2.1-2.2,3.2c-0.1,0.1-0.2,0.2-0.4,0.3c-4.5,1.5-9.1,2.2-13.8,2c-3.6-0.1-7.1-0.8-10.5-1.9c-0.2-0.1-0.3-0.2-0.4-0.3
			c-3.4-4.4-5.8-9.4-6.8-14.9c-0.2-1.3-0.4-2.5-0.5-3.8c0-0.7-0.1-1.4-0.1-2.1C3.3,15.3,3.3,14.7,3.3,14.2z"/>
		<path class="st4" d="M3.3,14.2c0,0.5,0,1.1,0,1.6c0,0.6,0.1,1.2,0.1,1.8c0,0.1,0,0.2,0,0.3c-0.1-1.2-0.1-2.4-0.1-3.6
			C3.2,14.3,3.2,14.2,3.3,14.2z"/>
		<path class="st5" d="M34.6,20.8c-0.7,0.9-1.6,1.3-2.7,1.4c-0.3,0-0.6,0-0.9,0c-0.1,0-0.2,0-0.2,0.1c0,0.1,0,0.1,0.1,0.2
			c0.1,0,0.2,0,0.2,0.1c0.8,0.1,1.6,0,2.4-0.3c0.4-0.1,0.7-0.3,1-0.6c0.1-0.1,0.1-0.1,0.2-0.2c0,0,0.1-0.1,0.1,0c0,0,0,0.1,0,0.1
			c0,0.3-0.3,0.4-0.4,0.6c-0.5,0.5-1.2,0.8-1.9,0.9c-0.6,0.1-1.2,0.1-1.8,0.1c0.3,0.1,0.6,0.1,0.9,0.1c1-0.1,2-0.3,2.9-0.9
			c0,0,0.1,0,0.1,0c0.1,0,0.2,0.1,0.1,0.2c-0.4,0.7-1,1-1.7,1.2c-0.8,0.2-1.6,0.3-2.4,0.2c-0.1,0-0.2,0-0.3,0
			c-0.2,0-0.3,0.1-0.3,0.2c0,0.2,0.1,0.1,0.2,0.1c1.1,0.2,2.2,0.2,3.3-0.3c0.2,0,0.3-0.2,0.5-0.3c0.1,0,0.1-0.1,0.2,0
			c0.1,0.1,0,0.2-0.1,0.2c-0.3,0.3-0.6,0.5-0.9,0.7c0,0.1-0.1,0.1-0.1,0.1c-0.8,0.4-1.7,0.3-2.6,0.3c-0.2,0-0.4-0.1-0.7-0.1
			c-0.2,0-0.3,0-0.3,0.2c0,0.2,0.1,0.3,0.3,0.3c1.3,0.2,2.6,0,3.9-0.5c0.1,0,0.1-0.1,0.2-0.1c0.1,0,0.1,0,0.1,0c0.1,0.1,0,0.1,0,0.2
			c-0.3,0.3-0.6,0.4-1,0.6c-0.3,0.1-0.6,0.2-0.8,0.3c-1,0.3-2,0.3-3,0.1c-0.3-0.1-0.5,0-0.8,0.2c-0.5,0.6-1.2,1-1.8,1.3
			c-0.3,0.2-0.3,0.2,0,0.4c0.7,0.4,1.4,0.9,1.9,1.6c0.3,0.3,0.2,0.7-0.2,0.8c-0.1,0.1-0.2-0.1-0.2-0.1c-0.4-0.5-0.9-1-1.5-1.3
			c-0.4-0.2-0.7-0.4-1.1-0.5c-0.2,0-0.3-0.2-0.5-0.3c-0.2-0.1-0.3-0.2-0.5-0.2c-0.5-0.1-0.5-0.2-0.3-0.7c0.4,0,0.8,0.1,1.3,0.2
			c0.2,0,0.3,0,0.4,0c1.7-0.8,3.1-2,3.9-3.8c0.6-1.6,0.7-3.2,0.3-4.9c-0.1-0.5-0.5-0.9-0.9-1.3c-0.5-0.4-0.3-1,0.1-1.3
			c0.3-0.2,0.7-0.1,1,0.1c0.2,0.2,0.2,0.4,0,0.6c-0.1-0.2-0.2-0.4-0.5-0.3c-0.1,0-0.2,0.1-0.2,0.2c0,0.2,0,0.4,0.2,0.6
			c0.2,0.1,0.4,0.2,0.6,0.1c0.8-0.5,1.1-1.3,0.4-2.1c-0.6-0.7-1.3-1.3-1.9-1.9c-0.6-0.6-1-1.3-1-2.2c0-0.2,0.1-0.4,0.2-0.5
			c0.2,0.2,0.2,0.5,0.2,0.8c0,0.4,0.2,0.7,0.5,0.9c0.6,0.7,1.2,1.4,1.9,2c0.5,0.5,0.9,1,1.1,1.7c0.2,0.7-0.2,1.2-0.7,1.7
			c-0.1,0.1-0.1,0.1-0.2,0.2c-0.1,0.1-0.2,0.1-0.3,0.2c-0.1,0-0.1,0.1-0.1,0.2c0,0.1,0.1,0.1,0.2,0.1l0,0c0.2-0.1,0.5-0.2,0.7-0.3
			c0.4-0.2,0.7-0.5,0.9-0.9c0.2-0.3,0.3-0.7,0.3-1.1c0-0.1,0-0.2,0.1-0.2c0.1,0,0.1,0.1,0.1,0.1c0.2,0.4,0.2,0.8,0.1,1.1
			c-0.2,0.8-0.8,1.2-1.4,1.6c-0.2,0.1-0.4,0.2-0.5,0.3c0.7-0.1,1.4-0.5,1.8-1.1c0.2-0.3,0.4-0.6,0.5-1c0-0.1,0-0.1,0.1-0.1
			c0.1,0,0.1,0.1,0.1,0.1c0.1,0.6,0,1.1-0.4,1.6c-0.3,0.4-0.6,0.6-1,0.8c-0.3,0.1-0.6,0.2-0.9,0.3c0.4,0.1,0.7,0,1-0.1
			c0.7-0.2,1.1-0.6,1.4-1.2c0.2-0.3,0.3-0.7,0.4-1.1c0.2,0.6,0.1,1.1-0.2,1.6c-0.5,1-1.4,1.5-2.6,1.5c-0.1,0-0.4-0.1-0.4,0.1
			c0,0.2,0.3,0.2,0.4,0.2c1.3,0.1,2.5-0.6,3-1.8c0.1-0.1,0.1-0.2,0.2-0.4c0.1,0.9-0.2,1.4-0.8,2c-0.8,0.7-1.6,0.9-2.6,0.9
			c-0.1,0-0.2-0.1-0.2,0.1c0,0.1,0.1,0.2,0.2,0.2c0.2,0.1,0.5,0.1,0.7,0c1.1-0.1,2.1-0.6,2.8-1.4c0.1-0.1,0.2-0.1,0.2,0.1
			C34.8,20.5,34.6,20.6,34.6,20.8z"/>
		<path class="st6" d="M11.9,24.5c1.3,0.8,2.8,1,4.3,0.8c0.1,0,0.3,0,0.3-0.3c0-0.2-0.2-0.2-0.4-0.2c-1,0.1-2.1,0.2-3.1-0.2
			c-0.3-0.1-0.6-0.2-0.8-0.5c-0.1-0.1-0.3-0.3-0.4-0.4c0-0.1-0.1-0.1-0.1-0.2c0.1-0.1,0.1,0,0.2,0c0.1,0.1,0.2,0.2,0.4,0.2
			c1.1,0.5,2.2,0.5,3.4,0.3c0.1,0,0.3,0,0.2-0.1c0-0.2-0.1-0.2-0.3-0.2c-0.7,0.1-1.4,0.1-2.1-0.1c-0.6-0.1-1.1-0.3-1.5-0.6
			c-0.2-0.1-0.4-0.3-0.5-0.5c-0.1-0.1-0.2-0.2-0.1-0.3c0.1-0.1,0.2,0,0.3,0.1c0,0,0.1,0,0.1,0.1c0.5,0.3,1.1,0.5,1.6,0.6
			c0.5,0.1,1.1,0.2,1.6,0.1c0.1,0,0.3,0,0.4-0.1c0.1,0,0.2-0.1,0.1-0.2c0-0.1-0.1-0.1-0.2-0.1c-0.2,0-0.3,0.1-0.5,0
			c-0.7,0-1.5-0.1-2.2-0.3c-0.2,0-0.3-0.1-0.4-0.2c-0.3-0.3-0.6-0.5-0.8-0.8c0-0.1-0.1-0.1-0.1-0.2c0-0.1,0-0.1,0-0.2
			c0.1,0,0.1,0,0.1,0c0.1,0.1,0.2,0.2,0.4,0.3c0.5,0.3,1,0.6,1.6,0.7c0.5,0.1,1.1,0.1,1.6,0.1c0.1,0,0.3,0,0.3-0.2
			c0-0.2-0.2-0.1-0.3-0.1c-1,0-1.9,0-2.7-0.7c-0.3-0.3-0.6-0.6-0.9-0.9c0-0.1-0.1-0.2,0-0.2c0.1-0.1,0.1,0.1,0.2,0.1
			c0.2,0.2,0.4,0.4,0.6,0.5c0.6,0.3,1.2,0.6,1.8,0.7c0.2,0,0.5,0,0.7,0c0.1,0,0.2,0,0.3-0.1c0.1-0.1,0.1-0.1,0.1-0.2
			c0-0.1-0.1-0.1-0.2-0.1c-0.5,0-0.9,0-1.4-0.1c-0.6-0.2-1.1-0.5-1.5-1c-0.2-0.3-0.4-0.5-0.5-0.9c0-0.1-0.1-0.1,0-0.2
			c0-0.1,0-0.2,0-0.2c0.1,0,0.1,0.1,0.2,0.1c0.1,0.2,0.2,0.3,0.4,0.5c0.7,0.7,1.6,1.2,2.6,1.1c0.1,0,0.1,0,0.2,0
			c0.1,0,0.3,0,0.3-0.2c0-0.2-0.2-0.1-0.3-0.1c-1.1,0-2-0.3-2.5-1.3c-0.2-0.3-0.3-0.7-0.4-1.1c0-0.1,0-0.2,0-0.2c0,0,0-0.1,0.1-0.1
			c0.1,0,0,0.1,0.1,0.1c0.3,0.6,0.6,1.2,1.3,1.6c0.4,0.1,0.7,0.3,1.1,0.3c0.1,0,0.2,0,0.3,0c-0.3-0.2-0.7-0.2-1-0.4
			c-0.5-0.3-0.9-0.6-1.1-1.2c-0.2-0.4-0.2-0.7-0.2-1.1c0-0.1,0-0.1,0.1-0.1c0.1,0,0.1,0.1,0.1,0.1c0.1,0.5,0.4,1,0.8,1.3
			c0.4,0.4,1,0.6,1.5,0.7c-0.6-0.3-1.2-0.7-1.6-1.3c-0.3-0.5-0.5-1.1-0.2-1.7c0,0,0-0.1,0.1-0.2c0,0.2,0,0.4,0.1,0.5
			c0.2,1,1,1.6,1.9,1.9c0.1,0,0.2,0,0.2-0.1c0.1-0.1,0-0.2-0.1-0.3c-0.5-0.2-0.8-0.5-1-0.9c-0.2-0.3-0.2-0.6-0.2-0.9
			c0-0.7,0.4-1.2,0.8-1.6c0.5-0.6,1-1.1,1.5-1.6c0.6-0.7,0.9-1.5,1.1-2.4c0.1,0.1,0.2,0.2,0.2,0.4c0,0.4,0,0.9-0.1,1.3
			c-0.4,1.1-1.2,2-2.1,2.8c-0.4,0.4-0.7,0.8-0.6,1.4c0,0.4,0.5,1,0.9,1.1c0.3,0.1,0.8-0.2,0.8-0.5c0-0.2-0.1-0.3-0.2-0.4
			c-0.2-0.1-0.3,0-0.4,0.2c0,0,0,0.2-0.1,0.1c-0.1,0-0.1-0.1-0.1-0.2c0-0.1,0-0.2,0.1-0.3c0.2-0.2,0.4-0.3,0.7-0.3
			c0.3,0,0.6,0.2,0.7,0.5c0.1,0.4,0.1,0.7-0.2,1c-0.7,0.5-0.8,1.3-0.9,2c-0.3,1.8-0.1,3.5,0.9,5.1c0.7,1.1,1.6,1.9,2.7,2.5
			c0.1,0,0.1,0.1,0.2,0.1c0.5,0.3,1,0.4,1.5,0.2c0.2-0.1,0.4-0.1,0.6-0.1c0.2,0.3,0.1,0.6-0.2,0.7c-0.3,0.1-0.5,0.3-0.7,0.4
			c-0.2,0-0.5,0.1-0.7,0.2c-0.8,0.4-1.5,1-2.1,1.7c-0.1,0.2-0.2,0.2-0.4,0c-0.4-0.3-0.4-0.4,0-0.8c0.5-0.6,1.2-1.1,1.9-1.5
			c0.3-0.2,0.3-0.2,0-0.3c-0.7-0.4-1.4-0.9-2-1.5c-0.1-0.2-0.3-0.2-0.5-0.1c-1.4,0.3-2.8,0.2-4.1-0.4c-0.5-0.2-0.9-0.5-1.2-0.9
			C11.8,24.5,11.8,24.5,11.9,24.5z"/>
		<path class="st7" d="M22.1,25.7c-1-0.1-2,0-3,0c-0.3,0-0.4-0.1-0.5-0.3c-0.4-0.7-0.8-1.4-1.2-2.2c-0.1-0.2-0.1-0.3,0-0.4
			c1.8-2.6,3.7-5.3,5.5-7.9c0.1-0.2,0.2-0.2,0.3,0c0.8,1.2,1.7,2.4,2.5,3.7c0,0,0.1,0.1,0.1,0.1c0.9,1.4,1.9,2.7,2.8,4.1
			c0.1,0.2,0.2,0.3,0,0.5c-0.4,0.7-0.8,1.5-1.2,2.2c-0.1,0.2-0.2,0.2-0.4,0.2c-0.4,0-0.9,0-1.3,0c-0.1,0.1-0.1,0-0.2,0
			c-1.1,0-2.3,0-3.4,0C22.2,25.8,22.1,25.8,22.1,25.7z"/>
		<path class="st8" d="M20.9,28.2c0.3-0.2,0.5-0.4,0.9-0.4c0.2,0,0.1-0.2,0.1-0.3c0-0.1,0-0.2,0-0.3c0,0,0-0.1,0.1-0.1
			c0-0.1,0.1-0.3,0.3-0.3c0.2,0,0.2,0.1,0.3,0.2c0.1-0.1,0.1-0.3,0.2-0.3c0.2,0,0.2,0.1,0.3,0.2c0.3-0.3,0.3-0.3,0.6,0.1
			c0.1-0.1,0.2-0.3,0.4-0.2c0.2,0.1,0.1,0.3,0.2,0.4c0,0.5,0,0.5,0.5,0.7c0.3,0.1,0.5,0.3,0.8,0.5c0.3,0.1,0.5,0.3,0.7,0.5
			c0.5,0.5,1,1,1.2,1.7c-0.3-0.2-0.6-0.3-0.9-0.5c-0.1-0.1-0.2-0.1-0.3,0.1c-0.1,0.2-0.2,0.5-0.4,0.8c-0.3-0.7-0.5-1.5-1-2.1
			c-0.4,0.8-0.8,0.8-1.6-0.1c-0.8,0.8-1.1,0.9-1.7,0.1c-0.5,0.6-0.8,1.2-1,2c-0.1-0.3-0.3-0.5-0.4-0.7C20,30,19.9,30,19.8,30.1
			c-0.2,0.1-0.5,0.3-0.8,0.4c0.3-0.8,0.9-1.4,1.5-2C20.5,28.4,20.7,28.3,20.9,28.2z"/>
		<path class="st9" d="M16.6,34.9c0,0.1,0,0.1,0,0.2c0,0,0,0,0,0c0,0.1,0.2,0.3,0.1,0.4c-0.1,0.1-0.3,0-0.4,0
			c-0.2-0.1-0.4-0.2-0.6-0.3c-0.2-0.2-0.2-0.2,0-0.3c0.1-0.1,0.1-0.1,0.1-0.2c-0.2-0.2-0.4-0.3-0.6-0.4c-0.2-0.1-0.3,0.1-0.2,0.2
			c0,0.1,0.1,0.2,0,0.2c-0.1,0.1-0.2,0-0.2,0c-0.2-0.1-0.4-0.2-0.5-0.3c-0.1-0.1-0.1-0.3,0-0.3c0.4,0,0.6-0.3,0.8-0.4
			c0.4-0.3,0.7-0.5,1-0.8c0.1-0.1,0.2-0.2,0.4-0.1c0.2,0.1,0.4,0.2,0.4,0.5c0,0.5,0,0.9-0.1,1.4C16.6,34.6,16.7,34.8,16.6,34.9z"/>
		<path class="st10" d="M32.1,19.2c0.2-0.1,0.4-0.3,0.6-0.4c0.7-0.5,0.9-1.2,0.7-2.1c-0.1,0-0.1,0.1-0.1,0.1
			c-0.3,1.2-1.2,1.8-2.3,2.1c0,0,0,0-0.1,0c-0.1,0-0.2,0.1-0.3-0.1c0-0.1,0.1-0.1,0.2-0.2c0.5-0.2,0.9-0.4,1.2-0.7
			c0.5-0.4,0.8-0.9,0.7-1.6c0-0.2-0.1-0.4-0.2-0.7c-0.1,0.5-0.1,0.9-0.4,1.3c-0.1-0.2,0.1-0.3,0.1-0.5c0.1-0.2,0.1-0.4,0.1-0.7
			c0-0.1,0-0.2,0.1-0.2c0.1,0,0.1,0.1,0.2,0.1c0.3,0.4,0.3,0.8,0.1,1.3c0,0.1,0,0.1,0,0.2c0.2-0.1,0.3-0.3,0.4-0.5
			c0-0.1,0-0.1,0.1-0.1c0.1,0,0.1,0.1,0.1,0.1c0.1,0.2,0.2,0.4,0,0.6c-0.1,0.2,0,0.4-0.1,0.6C33.3,18.6,32.8,19,32.1,19.2
			C32.1,19.3,32.1,19.3,32.1,19.2C32.1,19.2,32.1,19.2,32.1,19.2z"/>
		<path class="st11" d="M18.2,5.9c0.1,0.2,0.1,0.4,0.2,0.5c0,0.1,0,0.3-0.1,0.3c-0.2,0.1-0.2,0-0.3-0.1c-0.1-0.1-0.1-0.1-0.2-0.1
			c-0.1,0.1-0.1,0.1,0,0.2c0.1,0.1,0.1,0.4,0.3,0.4c0.3,0,0.5-0.1,0.7-0.4c0-0.1,0-0.2,0.1-0.2c0-0.1,0.1-0.1,0.2-0.1
			c0.1,0,0.2,0,0.2,0.1c0.2,0.4,0.1,0.8-0.4,0.9c-0.5,0.2-1,0.4-1.5,0.5c-0.1,0-0.2,0.1-0.3,0c-0.1-0.1-0.1-0.2,0-0.3
			c0.1-0.1,0-0.2,0-0.3c-0.1-0.4-0.3-0.8-0.4-1.1c-0.1-0.1-0.1-0.2-0.3-0.3c-0.1,0-0.2-0.1-0.2-0.2c0-0.1,0-0.2,0.1-0.2
			c0.1-0.1,0.2-0.1,0.4-0.1C17,5.2,17.4,5,17.9,4.8c0.1,0,0.2-0.1,0.3,0c0.2,0.1,0.3,0.2,0.3,0.3c0.1,0.1,0.1,0.3,0,0.4
			c-0.1,0.1-0.2,0.1-0.4,0.1c-0.2-0.1-0.4-0.1-0.6,0c-0.1,0.1-0.2,0.1-0.1,0.3c0,0.1,0,0.1,0.1,0.1c0.1,0,0.1-0.1,0.1-0.1
			c0-0.1,0-0.3,0.2-0.3C18,5.6,18.1,5.7,18.2,5.9z"/>
		<path class="st12" d="M12.4,22.5c0.1,0.1,0.2,0.2,0.4,0.2c0.9,0.3,1.8,0.4,2.7,0.3c0.1,0,0.3,0,0.3,0.1c0,0.1-0.1,0.2-0.2,0.2
			c-0.2,0.1-0.4,0.1-0.6,0.1c-1,0-2-0.2-2.9-0.6c-0.1-0.1-0.2-0.1-0.3-0.2l0,0c-0.2-0.1-0.3-0.3-0.6-0.2c-0.1,0-0.2-0.1-0.1-0.2
			c0.1-0.1,0.1,0,0.2,0c0,0,0.1,0.1,0.1,0.1c0.1,0,0.1,0.2,0.2,0.1c0.1-0.1,0-0.2-0.1-0.2c-0.2-0.2-0.3-0.5-0.5-0.7
			C11,21.1,11,21.1,11,21c0-0.1,0-0.2,0.1-0.2c0.1,0,0.1,0.1,0.2,0.1c0.1,0.1,0.3,0.2,0.2,0.4c-0.2,0-0.2-0.2-0.3-0.3
			C11.3,21.7,11.8,22.1,12.4,22.5z"/>
		<path class="st13" d="M7.4,21.3c-0.2,0-0.6-0.1-0.8,0.2c-0.1,0.1-0.2,0-0.3-0.1c-0.1-0.4-0.1-0.7,0-1.1c0.1-0.2,0.2-0.2,0.4-0.1
			c0.2,0.2,1.2,0.3,1.5,0.1c0.2-0.1,0.2-0.3,0.2-0.5c0-0.2-0.1-0.3-0.3-0.3c-0.4-0.1-0.8,0-1.1-0.1c-0.1,0-0.1,0.1-0.2,0.1
			c-0.2,0.2-0.3,0.2-0.4-0.1c-0.1-0.2-0.1-0.5,0-0.7c0.1-0.2,0.2-0.3,0.4-0.1c0.1,0.1,0.2,0.2,0.4,0.2c0.3,0,0.6,0,0.9,0.1
			c0.5,0,0.8,0.3,0.9,0.8c0.1,0.2,0.1,0.5,0,0.7c-0.1,0.6-0.4,0.8-1,0.8C7.7,21.3,7.6,21.3,7.4,21.3z"/>
		<path class="st14" d="M9,15.9c0.1,0,0.1,0,0.1,0c0.1,0,0.2-0.2,0.3,0c0.1,0.1,0.1,0.3,0,0.4c0,0.1-0.1,0.2-0.2,0.3
			c-0.1,0.1-0.1,0.2-0.3,0.2c-0.1,0-0.2-0.1-0.2-0.2c0-0.1-0.1-0.1-0.2-0.2c-0.4-0.2-0.8-0.3-1.2-0.4c-0.1,0-0.2,0-0.4,0
			c-0.2,0.1-0.4,0-0.3-0.2C6.9,15.5,7,15.2,7.4,15c0.3-0.1,0.6-0.3,1-0.5c0.1,0,0.2-0.1,0.1-0.1c0,0-0.1-0.1-0.1-0.1
			c-0.2-0.1-0.3-0.1-0.5,0c-0.2,0.1-0.3,0-0.3-0.2c0-0.2,0.1-0.4,0.3-0.6c0.1-0.2,0.3-0.2,0.4,0.1c0,0.2,0.2,0.2,0.3,0.3
			c0.4,0.2,0.9,0.4,1.3,0.6c0.1,0.1,0.3,0.1,0.3,0.3c0,0.2-0.2,0.2-0.3,0.3c-0.4,0.2-0.8,0.4-1.2,0.6c-0.1,0-0.2,0.1-0.2,0.2
			c0,0.1,0.1,0.1,0.2,0.2C8.8,15.9,8.9,15.9,9,15.9z"/>
		<path class="st11" d="M20.5,34.1c0.3-0.1,0.7,0,1,0.1c0.1,0,0.2,0.1,0.2,0.3c0,0.2-0.2,0.2-0.3,0.1c-0.1,0-0.2,0-0.3,0
			c-0.4,0.2-0.5,0.3-0.3,0.7c0.2,0.4,0.4,0.7,0.7,1c0.1,0.1,0.2,0.2,0.1,0.4c-0.1,0.1-0.2,0.1-0.3,0.1c-0.6,0-1-0.3-1.1-0.8
			c0-0.1-0.1-0.2-0.2-0.3c-0.1,0.2-0.1,0.3,0,0.4c0.1,0.2,0,0.4-0.2,0.4c-0.3,0-0.6-0.1-0.9-0.2c-0.2-0.1-0.3-0.2-0.1-0.4
			c0.1-0.1,0.2-0.2,0.2-0.3c0.1-0.4,0.2-0.7,0.2-1.1c0-0.1,0-0.2,0-0.3c-0.2-0.2-0.1-0.4,0.2-0.4c0.3,0,0.7,0,1,0.2
			c0.1,0.1,0.1,0.2,0,0.3c-0.1,0.1-0.2,0.2-0.2,0.3c0.2-0.1,0.3-0.2,0.3-0.3C20.4,34.3,20.4,34.2,20.5,34.1z"/>
		<path class="st15" d="M34.7,22.3c-0.8,0.6-1.7,0.8-2.7,0.9c-0.4,0.1-0.9,0.1-1.3,0c-0.1,0-0.2,0-0.2-0.2c0-0.1,0.1-0.1,0.2-0.1
			c0.6,0,1.2,0,1.8-0.1c0.7-0.1,1.3-0.4,1.8-0.9c0.1-0.2,0.3-0.3,0.4-0.5c0,0.1,0,0.1,0,0.2c-0.2,0.2-0.1,0.3,0.1,0.3
			C35,22.2,34.8,22.3,34.7,22.3z"/>
		<path class="st16" d="M26.2,35.4c0-0.2-0.1-0.5-0.2-0.8c0-0.1-0.1-0.2-0.2-0.2c-0.2-0.1-0.1-0.2,0-0.3c0.2-0.2,0.5-0.2,0.8-0.2
			c0.2,0,0.2,0.2,0.1,0.3c-0.2,0.2-0.1,0.4-0.1,0.6c0,0.3,0.1,0.6,0.1,0.8c0,0.1,0,0.1,0,0.2c0,0.5-0.6,0.8-1.3,0.9
			c-0.5,0-0.9-0.2-1-0.7c-0.1-0.3-0.1-0.5-0.2-0.8c0-0.2-0.1-0.4-0.3-0.5c-0.2-0.1-0.1-0.2,0-0.3c0.3-0.2,0.7-0.3,1.1-0.3
			c0.2,0,0.3,0.2,0.2,0.3c-0.1,0.2-0.1,0.3-0.1,0.5c0,0.2,0.1,0.4,0.1,0.7c0.1,0.3,0.2,0.4,0.5,0.3C26.1,35.9,26.2,35.8,26.2,35.4z"
			/>
		<path class="st17" d="M34.1,29.8c0,0.2,0.1,0.3,0.2,0.4c0.3,0.3,0.6,0.6,0.8,0.9c0.1,0.1,0.2,0.2,0.2,0.3c0.1,0.2,0.1,0.3-0.2,0.3
			c-0.3,0.1-0.6,0-0.9,0.1c-0.2,0-0.5,0-0.7,0c-0.2,0-0.2,0.1-0.1,0.2c0.2,0.2,0.3,0.4,0.6,0.3c0.2,0,0.2,0.2,0.2,0.3
			c-0.1,0.2-0.2,0.3-0.4,0.4c-0.1,0.1-0.2,0.2-0.3,0.1c-0.1-0.1-0.1-0.2-0.1-0.3c0-0.1-0.1-0.2-0.1-0.3c-0.2-0.2-0.5-0.5-0.7-0.7
			c-0.1-0.1-0.3-0.2-0.5-0.2c-0.2,0-0.3-0.1-0.2-0.3c0.2-0.3,0.4-0.6,0.8-0.6c0.3,0,0.7,0,1,0c0.1,0,0.2,0,0.3-0.1
			c0.1-0.1-0.1-0.2-0.1-0.2c-0.1-0.1-0.2-0.2-0.4-0.2c-0.2,0-0.3-0.1-0.2-0.3c0.1-0.2,0.3-0.4,0.5-0.5C34,29.4,34.1,29.6,34.1,29.8z
			"/>
		<path class="st18" d="M29.3,7.4c-0.6,0.5-1.7,0.3-2.1-0.3c-0.2-0.3-0.1-0.6,0.1-0.9c0.2-0.1,0.3,0.1,0.4,0.2
			c0.1,0.1,0.1,0.3,0.2,0.4C28,7,28,7,28.2,7c-0.1-0.2-0.2-0.3-0.4-0.4c-0.4-0.3-0.5-0.8-0.2-1.2C28,5,28.5,4.9,29.1,5.2
			c0.1,0.1,0.3,0.2,0.5,0.2c0.3,0.1,0.4,0.5,0.2,0.9c-0.2,0.1-0.4,0.1-0.5-0.1C29.1,6,29,5.8,28.8,5.7c0,0.2,0.2,0.3,0.3,0.4
			c0.1,0.1,0.3,0.2,0.3,0.3l0,0C29.6,6.9,29.6,7.1,29.3,7.4z"/>
		<path class="st19" d="M37.8,20.6c-0.7-0.4-1-1.3-0.6-1.9c0.1-0.2,0.6-0.4,0.8-0.3c0.2,0.1,0.2,0.2,0.1,0.3
			c-0.1,0.1-0.2,0.1-0.2,0.2c-0.1,0.2-0.2,0.3-0.2,0.6c0,0.1,0.1,0.2,0.2,0.2c0.1,0,0.1-0.1,0.1-0.1c0.1-0.2,0.1-0.3,0.2-0.5
			c0.2-0.5,0.5-0.7,0.9-0.7c0.4,0,0.7,0.3,0.8,0.7c0.1,0.3,0.1,0.7,0,1c0,0.3-0.4,0.4-0.7,0.4c-0.2-0.2-0.3-0.3-0.1-0.5
			c0.1-0.1,0.2-0.3,0.1-0.5C39,19.6,39,19.8,39,19.9c-0.1,0.4-0.4,0.7-0.8,0.8C38.1,20.7,37.9,20.7,37.8,20.6z"/>
		<path class="st20" d="M21.6,4.2c0.7-0.2,1.4-0.2,2.1,0c0.6,0.2,0.6,0.7,0,1.2c0.4,0.1,0.5,0.4,0.5,0.7c0,0.1,0.1,0.2,0.2,0.2
			c0.2,0.1,0.1,0.2,0,0.3c-0.4,0.3-1,0.1-1.2-0.4c-0.1-0.2-0.1-0.3-0.2-0.5c0-0.1-0.1-0.1-0.2-0.1c-0.1,0-0.1,0.1-0.1,0.2
			c0,0.2,0,0.4,0.2,0.5c0.2,0.2,0.1,0.3-0.1,0.3c-0.3,0.1-0.7,0.1-1,0c-0.2,0-0.3-0.2-0.1-0.4c0.2-0.5,0.1-1,0.1-1.5
			c0-0.1-0.1-0.2-0.2-0.2C21.6,4.4,21.5,4.3,21.6,4.2z"/>
		<path class="st21" d="M32.3,25.9c0.2-0.2,0.6-0.2,0.8-0.4c0.3-0.2,0.8-0.3,1-0.8c-0.4,0.1-0.7,0.3-1.1,0.4
			c-0.6,0.2-1.2,0.3-1.8,0.3c-0.1,0-0.2,0-0.3,0c-0.4,0.1-0.8-0.1-1.2-0.1c-0.1,0-0.2-0.1-0.2-0.3c0-0.1,0.1-0.3,0.3-0.3
			c0.1,0,0.3,0,0.4,0c0.8,0.2,1.6,0.1,2.4,0c0.2,0,0.4-0.2,0.6-0.1c-0.4,0.2-0.8,0.3-1.2,0.3c-0.7,0-1.3,0-2-0.1c-0.1,0-0.1,0-0.2,0
			c-0.1,0-0.2,0.1-0.2,0.1c0,0.1,0,0.2,0.1,0.2c0.1,0,0.2,0.1,0.4,0.1c1.6,0.2,3.2-0.1,4.6-1.2C34.6,24.8,33.4,25.6,32.3,25.9z"/>
		<path class="st22" d="M14,8c0-0.2-0.1-0.3-0.1-0.5c0-0.1,0-0.2-0.1-0.2c-0.3-0.1-0.2-0.2-0.1-0.4c0.1-0.2,0.3-0.3,0.5-0.4
			c0.1,0,0.2,0,0.3,0.1c0.1,0.1,0.1,0.2,0,0.2c-0.1,0.1-0.1,0.3,0,0.4c0.1,0.6,0.3,1.1,0.3,1.7c0,0.5-0.1,0.6-0.6,0.4
			c-0.5-0.3-0.9-0.6-1.4-0.9c-0.1-0.1-0.2-0.2-0.4-0.2C12,8.4,12,8.2,12.1,8c0.2-0.3,0.5-0.5,0.9-0.6c0.1,0,0.2,0.1,0.3,0.2
			c0,0.1-0.1,0.2,0.1,0.2c0.2,0.1,0.4,0.3,0.6,0.3C14,8.2,13.9,8,14,8z"/>
		<path class="st23" d="M36,14.8c-0.3-0.2-0.3-0.5-0.3-0.7c0-0.2,0.1-0.3,0.3-0.1c0.2,0.2,0.4,0.2,0.7,0.2c0.5,0,1,0,1.6,0
			c0.2,0,0.3-0.1,0.4,0.1c0.1,0.2,0.1,0.4,0,0.6c-0.1,0.2-0.3,0.4-0.5,0.6c-0.3,0.3-0.5,0.5-0.8,0.8c-0.1,0.1-0.2,0.2-0.2,0.4
			c0,0.2-0.2,0.3-0.4,0.1c-0.3-0.3-0.4-0.7-0.5-1.1c0-0.2,0.1-0.3,0.5-0.1c0-0.3-0.1-0.6-0.2-0.8c-0.1-0.1-0.2-0.1-0.2,0.1
			c0,0.1-0.1,0.2-0.2,0.2C36.1,15,36,14.9,36,14.8c0.1-0.1,0.1-0.1,0.2-0.2c0.2-0.2,0.4-0.2,0.5,0c0.1,0.1,0.1,0.3,0.2,0.5
			c0.1,0.3,0,0.4-0.3,0.5c-0.1,0-0.1,0.1-0.1,0.2c0,0.1,0.1,0.2,0.1,0.3c0.1,0.2,0.1,0.4,0.2,0.4c0.2,0.1,0.2-0.2,0.3-0.3
			c0.3-0.3,0.5-0.5,0.8-0.8c0.2-0.2,0.3-0.4,0.5-0.6c0.1-0.1,0.1-0.3,0-0.4c-0.1-0.1-0.2-0.1-0.3-0.1c-0.4,0-0.8,0.1-1.1,0
			c-0.4-0.1-0.7,0-1.1-0.2C35.8,14.4,36.1,14.6,36,14.8z"/>
		<path class="st18" d="M29.4,35.6c-0.2,0-0.3-0.1-0.2-0.3c0.2-0.2,0.1-0.5,0.1-0.7c-0.1-0.6-0.1-1.1-0.2-1.7
			c-0.1-0.3,0.2-0.3,0.4-0.4c0.2-0.1,0.4,0,0.5,0.1c0.4,0.3,0.8,0.6,1.2,0.9c0.2,0.1,0.3,0.3,0.5,0.3c0.2,0,0.2,0.2,0.1,0.3
			c-0.3,0.3-0.7,0.5-1.1,0.6c-0.2,0-0.3-0.1-0.2-0.3c0.1-0.2,0-0.2-0.2-0.2c-0.2,0.1-0.4,0.1-0.5,0.3c-0.1,0-0.1,0.1-0.1,0.2
			c0,0.1,0.1,0.1,0.2,0.1c0.2,0.1,0.3,0.2,0.1,0.3C30,35.4,29.7,35.6,29.4,35.6z"/>
		<path class="st24" d="M16.6,34.9c0-0.5,0.1-1.1,0.1-1.6c0-0.2,0-0.4-0.2-0.5c-0.1-0.1-0.2-0.1-0.4,0c-0.4,0.4-0.9,0.8-1.4,1.1
			c-0.1,0.1-0.3,0.2-0.5,0.2c-0.1,0-0.1,0-0.1,0.1c0,0.1,0,0.1,0.1,0.2c0.1,0.1,0.3,0.2,0.4,0.2c0.1,0,0.2,0.1,0.3,0.1
			c0.1-0.1,0-0.2-0.1-0.2c0-0.2,0.1-0.3,0.3-0.2c0.3,0.1,0.5,0.2,0.7,0.4c0.1,0.1,0.1,0.2-0.1,0.3c-0.1,0-0.2,0-0.2,0.1
			c0,0.1,0.1,0.1,0.1,0.2c0.3,0.2,0.5,0.3,0.8,0.4c0.1,0,0.2,0.1,0.2,0c0.1-0.1,0-0.1-0.1-0.2c0-0.1,0-0.1,0-0.2
			c0.1,0,0.1,0.1,0.1,0.2c0.1,0.1,0.1,0.2,0,0.3c-0.1,0.1-0.2,0.1-0.3,0.1c-0.4-0.1-0.7-0.3-1-0.5c-0.2-0.2-0.1-0.3,0.1-0.3
			c0.1,0,0.1,0,0.1-0.1c0,0-0.1-0.1-0.1-0.1c-0.2-0.1-0.3-0.2-0.5-0.3c-0.1,0-0.1,0-0.2,0c-0.1,0.1,0,0.1,0,0.2
			c0.1,0.2,0,0.3-0.2,0.3c-0.3-0.1-0.5-0.2-0.7-0.4c-0.1-0.2-0.1-0.3,0.1-0.3c0.2,0,0.3-0.1,0.4-0.2c0.5-0.3,0.9-0.7,1.3-1.1
			c0.2-0.2,0.4-0.3,0.6-0.1c0.2,0.1,0.3,0.3,0.3,0.6c0,0.3,0,0.6,0,0.9c-0.1,0.2,0,0.4-0.1,0.5C16.7,34.7,16.7,34.9,16.6,34.9z"/>
		<path class="st25" d="M38.4,25.4c0,0.3-0.2,0.4-0.4,0.2c-0.2-0.1-0.4-0.1-0.6,0c-0.1,0.1-0.3,0.1-0.4,0c-0.1-0.1-0.1-0.3,0-0.4
			c0.1-0.2,0.1-0.3,0-0.5c-0.1-0.1-0.1-0.3,0-0.4c0.1-0.1,0.3-0.1,0.4,0c0.2,0.1,0.3,0.1,0.5,0c0.1-0.1,0.3-0.1,0.4,0
			c0.1,0.1,0.1,0.3,0,0.4c-0.1,0.2-0.1,0.3,0,0.5C38.3,25.2,38.3,25.3,38.4,25.4z"/>
		<path class="st26" d="M9,25.6c0,0-0.1,0-0.2,0c-0.2-0.1-0.3-0.1-0.5,0c-0.1,0.1-0.3,0.1-0.4,0c-0.1-0.1-0.1-0.3,0-0.4
			C8,25,8,24.9,7.9,24.7c-0.1-0.1-0.1-0.3,0-0.4c0.1-0.1,0.3-0.1,0.4,0c0.2,0.1,0.3,0.1,0.5,0c0.1-0.1,0.3-0.1,0.4,0
			c0.1,0.1,0.1,0.3,0,0.4c-0.1,0.2-0.1,0.3,0,0.5C9.4,25.5,9.3,25.7,9,25.6z"/>
		<path class="st27" d="M12.7,30.1c0.5,0.3,0.9,0.7,1.2,1.2c0.2,0.3,0.1,0.6-0.1,0.8c-0.3,0.3-0.6,0.4-0.9,0.3
			c-0.2-0.1-0.3-0.2-0.5-0.3c-0.1-0.1-0.1-0.2-0.2-0.1C12.1,32,12,32.1,12,32.3c0,0.3-0.1,0.4-0.4,0.2c-0.3-0.2-0.5-0.4-0.7-0.7
			c-0.1-0.2,0-0.4,0.2-0.3c0.1,0,0.2,0,0.3-0.1c0.3-0.3,0.6-0.6,0.9-0.8c0.1-0.1,0.2-0.2,0.1-0.3c0-0.1-0.1-0.2,0.1-0.3
			C12.6,29.9,12.7,29.9,12.7,30.1c0,0-0.1,0.1-0.1,0.1c-0.2,0.7-0.8,1.1-1.4,1.4c-0.1,0.1-0.1,0.1-0.1,0.2c0.1,0.2,0.3,0.3,0.5,0.5
			c0.1,0.1,0.2,0.1,0.2-0.1c0-0.1,0.1-0.2,0.1-0.3c0.2-0.2,0.3-0.2,0.5,0c0.1,0.1,0.3,0.2,0.5,0.3c0.3,0.1,0.6,0,0.8-0.2
			c0.2-0.2,0.2-0.5,0-0.7c-0.2-0.3-0.6-0.5-0.8-0.8C12.9,30.3,12.7,30.3,12.7,30.1z"/>
		<path class="st28" d="M23.9,12.4c-0.3,0.2-0.5,0.5-0.8,0.6l0,0c-0.3-0.2-0.5-0.4-0.7-0.6c0,0,0-0.1,0-0.1
			C22.7,11.9,23.6,12,23.9,12.4C23.9,12.3,23.9,12.4,23.9,12.4z"/>
		<path class="st29" d="M13.6,17.6c0.5,0.5,1,0.9,1.6,1.1c0.1,0,0.2,0.1,0.2,0.2c0,0.1-0.2,0.1-0.3,0c-0.8-0.2-1.5-0.6-1.9-1.3
			c-0.2-0.3-0.3-0.6-0.4-1c-0.2,0.5,0,0.9,0.1,1.3c-0.2-0.2-0.4-1-0.2-1.3c0-0.1,0.1-0.1,0.2-0.1c0.1,0,0.2,0.1,0.2,0.2
			c0,0.4,0.2,0.7,0.5,1c0.3,0.3,0.6,0.7,1.1,0.8c-0.3-0.2-0.6-0.4-0.8-0.7C13.7,17.8,13.6,17.8,13.6,17.6z"/>
		<path class="st30" d="M36.6,10.8c0.1,0.1,0.1,0.1,0.2,0.2c0.3,0.3,0.3,0.7-0.1,0.9C36.6,12,36.5,12,36.3,12
			c-0.1-0.1-0.2-0.2-0.1-0.3c0-0.1,0.1-0.2,0.1-0.2c0,0,0-0.1,0-0.1c0,0-0.1,0-0.1,0c-0.3,0.3-0.7,0.5-1,0.8
			C35,12.1,35,12.2,35,12.3c0,0.2-0.1,0.3-0.3,0.2c-0.4-0.2-0.6-0.5-0.8-0.9c-0.1-0.2,0-0.3,0.3-0.3c0.1,0,0.1,0,0.2,0
			c0.5-0.2,0.9-0.5,1.2-0.9c0,0,0-0.1,0-0.1c0.2,0,0.2,0.2,0.1,0.3c-0.4,0.4-0.8,0.8-1.4,0.9c-0.1,0-0.1,0.1-0.1,0.2
			c0.1,0.2,0.3,0.4,0.5,0.6c0.1,0.1,0.2,0.1,0.2-0.1c0-0.2,0.2-0.4,0.3-0.5c0.2-0.2,0.5-0.3,0.7-0.5c0.1-0.1,0.2-0.2,0.4-0.1
			c0.2,0.1,0.2,0.2,0.1,0.4c0,0.1-0.1,0.2,0,0.2c0.1,0,0.2,0,0.2-0.1c0.1-0.2,0.2-0.3,0-0.5C36.6,11.1,36.5,11,36.6,10.8
			C36.5,10.8,36.5,10.8,36.6,10.8z"/>
		<path class="st31" d="M10.3,9.9c0.1,0,0.2,0,0.2,0.1c0,0.3,0.2,0.4,0.3,0.5c0.2,0.2,0.4,0.4,0.7,0.5c0.1,0.1,0.2,0.2,0.4,0.1
			c0.2,0,0.3,0.1,0.2,0.3c-0.1,0.3-0.4,0.6-0.7,0.8c-0.2,0.1-0.3,0-0.3-0.2c0-0.2-0.1-0.3-0.2-0.4c-0.2-0.2-0.5-0.4-0.7-0.6
			C10,11.1,9.9,11,9.7,11.1c-0.1,0-0.2,0-0.2-0.1C9.5,10.7,10.1,9.9,10.3,9.9z"/>
		<path class="st32" d="M32.1,9.7c-0.3,0-1-0.5-1.1-0.8c0-0.1,0-0.2,0.2-0.2c0.2,0,0.4-0.1,0.5-0.3c0.2-0.2,0.4-0.5,0.6-0.7
			c0.1-0.1,0.1-0.2,0.1-0.4c0-0.2,0.1-0.3,0.3-0.2c0.3,0.1,0.6,0.3,0.8,0.6c0.1,0.2,0.1,0.3-0.1,0.3c-0.2,0-0.3,0.1-0.5,0.3
			c-0.2,0.2-0.4,0.5-0.6,0.7c-0.1,0.1-0.2,0.2-0.1,0.4C32.3,9.7,32.2,9.7,32.1,9.7z"/>
		<path class="st33" d="M18.2,5.9c-0.1-0.1-0.1-0.1-0.2-0.2c-0.2-0.1-0.3-0.1-0.3,0.1c0,0.1,0,0.3-0.2,0.3c-0.2,0-0.2-0.2-0.2-0.3
			c-0.1-0.1-0.1-0.3,0.1-0.4c0.2-0.1,0.4-0.2,0.7,0c0.1,0.1,0.2,0.1,0.3,0c0.1-0.1,0.1-0.2,0-0.3c-0.1-0.2-0.2-0.3-0.3-0.4
			c0.2,0,0.4,0.2,0.4,0.4c0,0.2,0,0.4-0.3,0.5C18.2,5.7,18.2,5.8,18.2,5.9z"/>
		<path class="st34" d="M22.2,11.4c0.5-0.3,1-0.3,1.6-0.2c0.3,0.1,0.6,0.1,0.7,0.4c-0.1,0.1-0.1,0-0.2,0c-0.1-0.1-0.3,0-0.4-0.1
			c0-0.1-0.2-0.1-0.3-0.1c-0.1,0-0.1-0.1-0.2,0c0,0.1-0.1,0.3,0.1,0.3c0.1,0,0.1,0.1,0.2,0.1c0.1,0.1,0.2,0,0.3,0
			c0,0.1,0,0.2,0.1,0.2c0,0.1,0,0.1-0.1,0.1c-0.1,0-0.2,0-0.2,0C23.4,12,23,12,22.7,12.1c0,0-0.1,0-0.1-0.1c0,0,0-0.1,0-0.1
			c0-0.1,0.1,0,0.2-0.1c0,0,0,0,0.1,0c0.1-0.2,0.2-0.3-0.1-0.4c0,0-0.1,0-0.1,0c-0.1,0-0.2,0.1-0.2,0.1
			C22.3,11.6,22.2,11.5,22.2,11.4z"/>
		<path class="st35" d="M19.3,18.7c0.1-0.2,0.1-0.4-0.2-0.4c0.3-0.1,0.3-0.2,0.2-0.4c0.2,0,0.4,0.1,0.4-0.3c0.1,0.3,0.2,0.4,0.5,0.2
			c-0.1,0.3-0.1,0.4,0.2,0.5c-0.2,0.1-0.4,0.2-0.2,0.5c-0.3-0.2-0.4-0.1-0.5,0.2C19.7,18.6,19.6,18.5,19.3,18.7z"/>
		<path class="st36" d="M19.9,17.5c-0.3-0.2-0.4-0.1-0.4,0.2c-0.1-0.3-0.2-0.4-0.5-0.2c0.1-0.2,0.1-0.4-0.2-0.4
			c0.2-0.1,0.4-0.2,0.2-0.4c0.3,0.1,0.3,0.1,0.5-0.2c0.2,0.2,0.2,0.2,0.5,0.2c-0.1,0.2-0.1,0.4,0.2,0.4
			C19.8,17.1,19.8,17.2,19.9,17.5z"/>
		<path class="st37" d="M25.9,18.7c-0.1,0-0.1-0.1-0.1-0.1c0.3-0.2,0-0.2-0.1-0.3c0.2-0.1,0.3-0.2,0.1-0.4c0.2,0.1,0.4,0.1,0.5-0.2
			c0.1,0.3,0.2,0.4,0.5,0.2c-0.2,0.3-0.1,0.4,0.2,0.5c-0.2,0.1-0.4,0.2-0.2,0.4c-0.3-0.1-0.4-0.1-0.5,0.2
			C26.2,18.7,26.1,18.5,25.9,18.7z"/>
		<path class="st38" d="M22,14.3c-0.2-0.1-0.4-0.1-0.4,0.2c-0.1-0.2-0.2-0.3-0.5-0.2c0.2-0.3,0.1-0.4-0.2-0.5
			c0.2-0.1,0.4-0.2,0.2-0.4c0.2,0.1,0.4,0.1,0.5-0.2c0.1,0.2,0.2,0.4,0.5,0.2c-0.1,0.3-0.1,0.4,0.2,0.5C22,13.9,21.9,14,22,14.3z"/>
		<path class="st39" d="M20.8,14.2c-0.1,0.2,0,0.4,0.3,0.4c-0.3,0.1-0.4,0.2-0.3,0.5c-0.3-0.1-0.4-0.1-0.5,0.2
			c-0.1-0.2-0.2-0.4-0.5-0.2c0.1-0.2,0.1-0.4-0.2-0.4c0.2-0.1,0.4-0.2,0.2-0.5c0.3,0.2,0.4,0.1,0.5-0.2
			C20.5,14.2,20.6,14.3,20.8,14.2z"/>
		<path class="st40" d="M24.5,14.5c-0.1-0.2-0.2-0.4-0.5-0.2c0.1-0.2,0.1-0.4-0.2-0.5c0.2-0.1,0.3-0.2,0.2-0.5
			c0.2,0,0.4,0.2,0.5-0.2c0.1,0.2,0.2,0.3,0.5,0.2c-0.2,0.3-0.1,0.4,0.2,0.5c-0.3,0.1-0.4,0.2-0.2,0.4
			C24.7,14.2,24.6,14.2,24.5,14.5z"/>
		<path class="st41" d="M26.2,17.5c0.1-0.3,0.2-0.4-0.2-0.5c0.2-0.1,0.4-0.2,0.2-0.5c0.3,0.2,0.4,0.1,0.5-0.2
			c0.1,0.2,0.2,0.4,0.5,0.2C27,16.7,27,16.9,27.3,17c-0.2,0.1-0.3,0.2-0.2,0.5c-0.3-0.1-0.4-0.1-0.5,0.2
			C26.5,17.4,26.4,17.3,26.2,17.5z"/>
		<path class="st42" d="M20,15.8c0,0.1,0.1,0.2,0.1,0.3c-0.2-0.1-0.4-0.1-0.5,0.2c-0.1-0.2-0.2-0.4-0.5-0.2c0.1-0.3,0.1-0.4-0.2-0.5
			c0.3-0.1,0.4-0.2,0.2-0.5c0.3,0.1,0.4,0.1,0.5-0.2c0.1,0.3,0.2,0.4,0.5,0.2c-0.1,0.2-0.1,0.4,0.2,0.4C20.2,15.8,20.1,15.8,20,15.8
			c-0.1-0.1-0.1-0.1-0.1-0.2c-0.1-0.1-0.2-0.2-0.3-0.1c-0.1,0.1-0.1,0.2-0.1,0.3c0.1,0.1,0.2,0.1,0.3,0.1
			C19.9,15.8,19.9,15.8,20,15.8z"/>
		<path class="st43" d="M26.8,15.3c-0.1,0.2,0,0.3,0.2,0.4c-0.3,0.1-0.3,0.2-0.2,0.5c-0.2-0.1-0.4-0.2-0.5,0.2
			c-0.1-0.2-0.2-0.3-0.5-0.2c0.1-0.3,0.1-0.4-0.2-0.5c0.2-0.1,0.4-0.2,0.2-0.5c0.3,0.1,0.4,0.1,0.5-0.2
			C26.5,15.3,26.6,15.4,26.8,15.3z"/>
		<path class="st44" d="M25.2,15c0.1-0.2,0.1-0.4-0.3-0.4c0.3-0.1,0.4-0.2,0.2-0.5c0.3,0.1,0.4,0.1,0.5-0.2c0.1,0.2,0.2,0.4,0.5,0.2
			c-0.1,0.2-0.1,0.4,0.2,0.5c-0.2,0.1-0.4,0.2-0.2,0.5c-0.3-0.1-0.4,0-0.5,0.2C25.6,15,25.4,14.9,25.2,15z"/>
		<path class="st45" d="M37.8,20.6c0.7,0.1,1-0.1,1.1-0.8c0-0.1,0.1-0.3,0.1-0.4c0-0.1,0.1-0.1,0.2-0.1c0.1,0,0.1,0.1,0.1,0.2
			c0,0.2-0.1,0.3-0.2,0.5c-0.2,0.2-0.2,0.4,0,0.5c-0.2-0.2-0.4-0.1-0.6,0.1C38.4,20.7,38.1,20.9,37.8,20.6z"/>
		<path class="st46" d="M27.6,5.4c-0.2,0.5-0.1,0.8,0.3,1.2c0.1,0.1,0.2,0.2,0.4,0.3c0,0,0.1,0.1,0.1,0.2c0,0.1-0.1,0.1-0.2,0.1
			c-0.3-0.1-0.4-0.3-0.5-0.5c-0.1-0.2-0.1-0.3-0.3-0.3c0.2-0.1,0.2-0.3,0.2-0.5C27.5,5.7,27.4,5.5,27.6,5.4z"/>
		<path class="st47" d="M22.1,25.7c1.3,0,2.5,0,3.8,0c0.5,0,0.9,0,1.4,0c0,0,0,0,0,0.1c-2,0-4,0-6,0c0,0,0,0,0-0.1
			C21.5,25.7,21.8,25.7,22.1,25.7z"/>
		<path class="st48" d="M12.4,21c-0.3,0-0.4-0.3-0.6-0.4c-0.1-0.1-0.1-0.2-0.2-0.2c0.1,0.3,0.3,0.5,0.4,0.7c0.2,0.2,0.4,0.3,0.5,0.5
			c-0.7-0.4-1.1-1.1-1-1.7C11.7,20.3,12,20.6,12.4,21z"/>
		<path class="st49" d="M34.9,21.6c-0.1,0.1-0.2,0.3-0.4,0.5c0-0.3,0.4-0.4,0.4-0.7c-0.2,0.2-0.4,0.4-0.7,0.6
			c-0.2,0.1-0.4,0.3-0.6,0.2c0.6-0.3,1.1-0.7,1.5-1.3C35.1,21.1,35.1,21.1,34.9,21.6z"/>
		<path class="st50" d="M33.4,24.6c0.2-0.1,0.4-0.3,0.6-0.4c0.2-0.1,0.3-0.2,0.4-0.5c-0.3,0.1-0.4,0.3-0.7,0.3
			c0.4-0.2,0.7-0.5,1.1-0.7C34.5,23.8,34.1,24.3,33.4,24.6z"/>
		<path class="st51" d="M35.6,10.3C35.6,10.4,35.6,10.4,35.6,10.3c-0.1,0-0.3,0.1-0.4,0.1c-0.1,0-0.3,0-0.3-0.2
			c0-0.2,0.1-0.3,0.2-0.3c0.4-0.2,0.7-0.2,0.9,0.2c0.2,0.2,0.4,0.5,0.6,0.7c0,0-0.1,0-0.1,0c-0.3-0.1-0.4-0.4-0.6-0.7
			c-0.2-0.2-0.4-0.3-0.6-0.1c-0.1,0-0.1,0.1-0.1,0.1c0,0.1,0.1,0.1,0.1,0.1C35.4,10.2,35.5,10.2,35.6,10.3z"/>
		<path class="st52" d="M12.4,22.5c-0.6-0.3-1.1-0.8-1.2-1.6c0.2,0.1,0.3,0.3,0.4,0.4c0.1,0.1,0.3,0.3,0.4,0.4
			c-0.2,0-0.3-0.3-0.5-0.3c0.2,0.4,0.4,0.6,0.7,0.8C12.2,22.3,12.3,22.4,12.4,22.5z"/>
		<path class="st53" d="M29.4,6.5c-0.2-0.2-0.4-0.4-0.6-0.5c-0.1-0.1-0.2-0.1-0.1-0.2c0.1-0.1,0.2-0.1,0.3,0
			c0.2,0.1,0.2,0.2,0.3,0.4c0.1,0.2,0.2,0.3,0.5,0.2C29.6,6.4,29.5,6.3,29.4,6.5z"/>
		<path class="st54" d="M14,19.2c0.3,0.1,0.7,0.3,1,0.3c0.1,0,0.2,0,0.2,0.1c0,0.1-0.1,0.1-0.2,0.1c-0.5,0-1-0.2-1.4-0.4
			c0.1,0,0.2,0,0.3,0.1c0.3,0.2,0.6,0.2,1.1,0.3C14.6,19.4,14.2,19.4,14,19.2z"/>
		<path class="st55" d="M12.2,19.5c-0.2-0.1-0.3-0.4-0.5-0.6c0,0.3,0.1,0.5,0.2,0.8c0.1,0.1,0.2,0.2,0.2,0.4c-0.5-0.5-0.7-1-0.5-1.7
			C11.8,18.9,12,19.2,12.2,19.5z"/>
		<path class="st56" d="M22.6,12c0.5-0.2,0.9,0,1.3,0.2c0,0,0,0,0,0c0.1,0,0.1,0,0.1,0.1c-0.1,0.1-0.2,0.1-0.3,0.1
			c-0.6-0.4-1.2-0.4-1.5,0c-0.1,0-0.1-0.1-0.1-0.1C22.3,12.1,22.5,12,22.6,12z"/>
		<path class="st57" d="M20.5,34.1c-0.1,0.2,0,0.5-0.3,0.6c-0.1,0-0.1,0.1-0.2,0.1c-0.1-0.1,0-0.2,0-0.2c0-0.1,0.1-0.2,0.1-0.2
			c0.2-0.1,0.2-0.2,0.1-0.3C20.4,34.1,20.4,34.1,20.5,34.1z"/>
		<path class="st58" d="M12.4,23.9c-0.2,0.1-0.3-0.2-0.6-0.2c0.1,0.3,0.4,0.3,0.4,0.6c-0.3-0.2-0.7-0.6-0.9-1
			C11.7,23.4,12.1,23.6,12.4,23.9z"/>
		<path class="st59" d="M23.1,13C23.1,13,23.1,13,23.1,13c0,0.1,0.1,0.2,0.1,0.3c0,0,0,0,0,0.1c0,0,0,0,0,0c-0.1,0.1-0.1,0-0.2,0.1
			c-0.2,0.1-0.2,0.2-0.1,0.3c0,0.1,0.1,0.1,0.1,0.2c0,0-0.1,0-0.1,0c-0.1,0-0.2,0.1-0.3,0.1c0.1-0.2,0.1-0.4-0.2-0.4
			c0.2-0.1,0.4-0.2,0.2-0.5C22.9,13.4,23,13.2,23.1,13z"/>
		<path class="st60" d="M32.1,19.2C32.1,19.2,32.1,19.3,32.1,19.2c-0.2,0.2-0.5,0.2-0.8,0.3c0.3,0.1,0.6-0.1,0.9-0.1
			c-0.3,0.2-0.7,0.3-1.1,0.2c-0.1,0-0.1,0-0.1-0.1c0-0.1,0.1-0.1,0.1-0.1C31.5,19.5,31.8,19.3,32.1,19.2z"/>
		<path class="st61" d="M12.2,17.7c-0.1,0-0.1-0.1-0.1,0c0,0.4,0.1,0.7,0.3,1.1c0,0.1,0,0.1,0.1,0.2c-0.4-0.5-0.5-1.2-0.3-1.9
			C12.2,17.4,12.3,17.6,12.2,17.7z"/>
		<path class="st27" d="M23.2,13.4C23.2,13.4,23.2,13.3,23.2,13.4c0.1-0.1,0.2-0.1,0.3-0.1c-0.1,0.2,0,0.3,0.2,0.4
			c-0.2,0.1-0.4,0.2-0.2,0.4c-0.3-0.1-0.4-0.1-0.5,0.1C23,14.2,23,14.1,22.9,14c0,0,0.1,0,0.1,0C23.3,13.8,23.3,13.8,23.2,13.4z"/>
		<path class="st62" d="M21.6,11.8c0.1-0.1,0.2-0.2,0.4-0.2c0.1,0,0.1,0.1,0.1,0.1c0.1,0.1,0.3,0.2,0.3,0.4
			c-0.1,0.1-0.1,0.1-0.2,0.1C22,12.1,21.8,12,21.6,11.8z"/>
		<path class="st63" d="M11.2,22.3c0-0.1-0.1-0.3,0.1-0.1c0.2,0.1,0.3,0.2,0.4,0.4c-0.1,0-0.2-0.1-0.3-0.1c0.1,0.4,0.5,0.5,0.6,0.8
			C11.6,23,11.4,22.7,11.2,22.3z"/>
		<path class="st64" d="M22,11.7c0,0,0-0.1,0-0.1c0.1,0,0.1-0.1,0.2-0.1c0.1-0.1,0.1,0.1,0.2,0.1c0.2,0,0.3,0.2,0.2,0.4
			c0,0,0,0,0,0.1c0,0.1,0,0.1-0.1,0.1C22.3,11.9,22.2,11.7,22,11.7z"/>
		<path class="st65" d="M26.2,28.8c-0.2-0.2-0.4-0.3-0.7-0.5c0.4,0.1,0.8,0.3,1.1,0.6c-0.1,0-0.2-0.1-0.3-0.1
			C26.2,28.7,26.2,28.7,26.2,28.8z"/>
		<path class="st66" d="M21.6,4.2c0,0.1-0.1,0.2,0,0.2c0.3,0.1,0.2,0.4,0.2,0.6c0,0.3,0,0.6,0,1c0,0.1,0,0.2-0.1,0.3
			c0.1-0.4,0.1-0.8,0.1-1.2c0-0.2,0-0.4-0.2-0.5C21.5,4.5,21.5,4.3,21.6,4.2z"/>
		<path class="st67" d="M21.6,11.8c0.2,0.1,0.4,0.2,0.6,0.3c0.1,0.1,0,0.1-0.1,0.1c-0.2,0-0.5-0.1-0.7-0.2
			C21.3,11.9,21.5,11.8,21.6,11.8L21.6,11.8z"/>
		<path class="st68" d="M24.3,11.7c0.1,0,0.1-0.1,0.2-0.1c0,0,0.1,0.1,0.1,0.1c0,0,0,0.1,0,0.1c-0.1,0.1-0.3,0.1-0.4,0.3
			c-0.1,0.1-0.1,0.1-0.2,0c-0.1,0-0.2,0.1-0.2,0c0-0.1,0.1-0.1,0.1-0.2C24,11.7,24.1,11.7,24.3,11.7z"/>
		<path class="st69" d="M21.6,11.8c-0.2,0.1-0.2,0.2,0.1,0.3c0.2,0,0.3,0.1,0.5,0.1c0.1,0,0.1,0,0.1-0.1c0.1,0,0.2,0,0.2-0.1
			c0,0,0.1,0,0.1,0c0,0,0.1,0,0.1-0.1c0,0,0,0.1,0,0.1c-0.1,0.1-0.3,0.2-0.4,0.2c-0.2-0.1-0.5-0.1-0.7-0.2c-0.1,0-0.3,0-0.2-0.1
			C21.3,11.9,21.4,11.8,21.6,11.8z"/>
		<path class="st70" d="M34.6,20.8c0-0.2,0.1-0.3,0.2-0.4c0-0.1,0.1-0.2-0.1-0.2c0.1-0.1,0.2-0.3,0.3-0.4
			C34.9,20.2,34.8,20.5,34.6,20.8z"/>
		<path class="st71" d="M24,12.1c0,0,0.1,0,0.1,0c0.1-0.2,0.3-0.1,0.5-0.3c0,0,0,0,0,0c0.1,0,0.1,0.1,0.2,0.1c0.1,0,0.1,0.1,0,0.1
			c-0.3,0.1-0.5,0.3-0.8,0.2c0,0,0,0,0,0C24,12.2,24,12.1,24,12.1z"/>
		<path class="st72" d="M16.8,34.1c0-0.3,0-0.6,0-0.8c0-0.3-0.1-0.5-0.3-0.7c0.2,0,0.3,0.2,0.3,0.3C16.8,33.3,16.8,33.7,16.8,34.1
			C16.8,34.1,16.8,34.1,16.8,34.1C16.8,34.1,16.8,34.1,16.8,34.1z"/>
		<path class="st73" d="M24,12.2c0.2-0.1,0.5-0.2,0.7-0.2c0.1,0,0.1-0.1,0.1-0.1c0.2,0.1,0.2,0.1,0,0.2c-0.2,0.1-0.4,0.2-0.6,0.2
			C24.1,12.3,24,12.3,24,12.2z"/>
		<path class="st74" d="M34.7,22.3c0.1-0.1,0.1-0.2,0.2-0.2c0.1,0,0.2-0.1,0.1,0c0,0.1-0.1,0.3-0.2,0.4
			C34.9,22.4,34.9,22.3,34.7,22.3z"/>
		<path class="st53" d="M29.3,7.4c0.2-0.3,0.3-0.6,0.1-1C29.7,6.7,29.6,7.2,29.3,7.4z"/>
		<path class="st75" d="M11.9,24.5c-0.1,0-0.1,0.1-0.1,0.1c-0.1-0.1-0.3-0.2-0.3-0.5C11.7,24.3,11.8,24.4,11.9,24.5z"/>
		<path class="st76" d="M20.9,28.2c-0.1,0.1-0.3,0.2-0.4,0.3c-0.1-0.2-0.2,0-0.3-0.1C20.4,28.3,20.6,28.2,20.9,28.2z"/>
		<path class="st77" d="M30.7,18.2c-0.1,0.1-0.2,0.1-0.3-0.1c0-0.1,0-0.2,0.1-0.2c0.1-0.1,0.2-0.1,0.3-0.1c0,0.1-0.1,0.1-0.2,0.2
			C30.5,18,30.5,18.1,30.7,18.2z"/>
		<path class="st77" d="M31.4,17.9c-0.2,0.2-0.4,0.3-0.7,0.3C30.9,18,31.2,17.9,31.4,17.9z"/>
		<path class="st63" d="M11.7,22.5c0.9,0.6,1.9,0.7,2.9,0.8c0.3,0,0.6,0,0.9-0.1c0.1,0,0.2,0,0.2-0.1c0-0.1-0.1-0.1-0.2-0.1
			c-0.6,0.1-1.2,0-1.8-0.1c-0.3,0-0.6-0.1-0.9-0.3c0.2,0,0.3,0.1,0.5,0.1c0.7,0.1,1.5,0.3,2.3,0.1c0.1,0,0.3,0,0.3,0.1
			c0,0.2-0.1,0.2-0.2,0.3c-0.4,0.1-0.8,0.1-1.3,0.1c-0.5,0-0.9-0.1-1.4-0.3C12.5,23,12,22.9,11.7,22.5z"/>
		<path class="st78" d="M23.1,15.1c0.9,1.2,1.7,2.5,2.6,3.7c0.9,1.3,1.8,2.7,2.8,4c0.1,0.1,0.1,0.3,0,0.4c-0.4,0.7-0.8,1.4-1.1,2.1
			c-0.1,0.1-0.2,0.2-0.3,0.2c-2.7,0-5.4,0-8,0c-0.2,0-0.2-0.1-0.3-0.2c-0.4-0.7-0.7-1.4-1.1-2.1c-0.1-0.1-0.1-0.2,0-0.4
			c1.8-2.5,3.5-5.1,5.3-7.6C23,15.2,23,15.1,23.1,15.1z"/>
		<path class="st79" d="M23,27.8c0.3,0.3,0.3,0.3,0.5,0c0.3,0.3,0.3,0.3,0.6,0.1c0.1-0.1,0.1,0,0.2,0c0.3,0.2,0.4,0.5,0.4,0.8
			c0,0.3-0.1,0.5-0.4,0.6c-0.3,0.1-0.5,0-0.7-0.2c-0.1-0.1-0.2-0.2-0.3-0.4c-0.1-0.2-0.2-0.2-0.3,0c-0.1,0.2-0.2,0.3-0.4,0.5
			c-0.3,0.2-0.7,0.2-0.9-0.1c-0.2-0.3-0.2-0.8,0.1-1c0,0,0.1-0.1,0.1,0c0.2,0.2,0.3,0,0.4-0.1c0.1-0.1,0.1,0,0.1,0
			C22.8,28,22.9,27.9,23,27.8z"/>
		<path class="st80" d="M21.9,27.9c-0.3,0.2-0.4,0.5-0.4,0.8c0,0,0,0.1,0,0.1c-0.5,0.5-0.7,1.1-1,1.8c-0.1-0.2-0.2-0.4-0.3-0.6
			c-0.1-0.1-0.1-0.2-0.3-0.1c-0.2,0.1-0.4,0.2-0.7,0.4C19.4,29.5,20.9,28.1,21.9,27.9z"/>
		<path class="st81" d="M24.6,27.9c0.7,0.1,2.2,1.4,2.6,2.4c-0.3-0.1-0.5-0.3-0.7-0.4c-0.1-0.1-0.2-0.1-0.2,0.1
			c-0.1,0.2-0.2,0.4-0.4,0.7C25.6,29.6,24.9,28.9,24.6,27.9z"/>
		<path class="st82" d="M23.6,27.4c0-0.2,0-0.6,0.2-0.6c0.2,0,0.2,0.3,0.2,0.5c0,0.2,0,0.6-0.2,0.6C23.6,28,23.7,27.6,23.6,27.4z"/>
		<path class="st83" d="M23.5,27.3c0,0.2,0,0.6-0.2,0.6c-0.3,0-0.2-0.3-0.2-0.6c0-0.2,0-0.5,0.2-0.5C23.5,26.8,23.5,27.1,23.5,27.3z
			"/>
		<path class="st84" d="M22.6,27.8c-0.1-0.3-0.1-0.5-0.1-0.8c0-0.1,0.1-0.3,0.2-0.3c0.2,0,0.2,0.2,0.2,0.3c0.1,0.2,0,0.4,0,0.7
			C22.9,28,22.8,28,22.6,27.8z"/>
		<path class="st85" d="M22.4,27.4c0,0.2,0,0.5-0.2,0.5c-0.2,0-0.2-0.3-0.2-0.5c0,0,0-0.1,0-0.2c0-0.2,0-0.4,0.2-0.4
			c0.2,0,0.2,0.3,0.2,0.4C22.4,27.3,22.4,27.4,22.4,27.4z"/>
		<path class="st86" d="M22.6,27.8c0.2,0.2,0.2-0.1,0.3-0.1c0,0,0.1,0.1,0.1,0.1C22.9,28,22.8,28.2,22.6,27.8
			C22.6,27.9,22.6,27.9,22.6,27.8z"/>
		<path class="st87" d="M16,33.8c-0.1,0.1,0.1,0.3-0.1,0.3c-0.2,0-0.4-0.1-0.5-0.3c0-0.1,0.4-0.4,0.5-0.4C16,33.5,15.9,33.6,16,33.8
			z"/>
		<path class="st88" d="M18.2,6.6c-0.1,0-0.1-0.1-0.2-0.1c-0.1-0.1-0.2-0.1-0.3-0.1c-0.1,0.1-0.2,0.2-0.1,0.3
			c0.1,0.2,0.1,0.5,0.4,0.5c0.3,0,0.7-0.3,0.8-0.5c0-0.1,0-0.1,0.1-0.2c0.1-0.1,0.1-0.1,0.2,0c0.2,0.3,0.1,0.7-0.3,0.8
			c-0.5,0.2-1,0.4-1.5,0.5c-0.1,0-0.2,0.1-0.2,0c-0.1-0.1,0-0.1,0-0.2c0.1-0.2,0.1-0.3,0-0.5c-0.1-0.4-0.3-0.7-0.4-1.1
			c-0.1-0.1-0.1-0.2-0.3-0.3c-0.1,0-0.2,0-0.2-0.1c0-0.1,0.1-0.1,0.2-0.2c0.4-0.1,0.7-0.3,1.1-0.4C17.5,5.1,17.7,5,17.8,5
			c0.2-0.1,0.4,0,0.5,0.2c0.1,0.1,0.1,0.2,0,0.3c-0.1,0.1-0.2,0-0.2-0.1c-0.2-0.1-0.7,0-0.9,0.2c-0.2,0.2,0,0.4,0.1,0.6
			c0,0.1,0.1,0.2,0.3,0.1c0.2,0,0.3-0.1,0.2-0.3c0-0.1,0-0.1,0-0.2c0.1,0,0.1,0,0.2,0.1C18.1,6.1,18.3,6.3,18.2,6.6z"/>
		<path class="st89" d="M7.4,21.2c-0.2,0-0.6-0.1-0.9,0.2c-0.1,0.1-0.1,0-0.2-0.1c-0.1-0.3-0.1-0.6,0-1c0-0.1,0.2-0.1,0.2-0.1
			c0.2,0.3,0.4,0.2,0.7,0.2c0.2,0,0.4,0,0.7,0c0.3,0,0.5-0.2,0.5-0.5c0-0.4-0.1-0.6-0.5-0.6c-0.3,0-0.7,0-1,0c-0.1,0-0.2,0-0.3,0.1
			c-0.1,0.2-0.2,0.1-0.2,0c0-0.1,0-0.3,0-0.4c0-0.1,0-0.2,0.1-0.3c0.1,0,0.1,0.1,0.2,0.1C6.8,19,7,19,7.1,19c0.3,0,0.6,0,1,0.1
			c0.3,0.1,0.6,0.2,0.7,0.6c0.1,0.3,0.1,0.6,0,0.9c-0.1,0.5-0.4,0.7-0.9,0.7C7.7,21.2,7.6,21.2,7.4,21.2z"/>
		<path class="st90" d="M9,16C9,16,9.1,16,9,16c0.2,0,0.3-0.2,0.4-0.1c0.1,0.1,0,0.2,0,0.3c0,0.1-0.1,0.2-0.1,0.3
			c0,0.1-0.1,0.2-0.2,0.2c-0.1,0-0.1-0.1-0.1-0.2c0-0.1-0.1-0.1-0.1-0.1c-0.4-0.2-0.9-0.4-1.4-0.5c-0.1,0-0.1,0-0.2,0
			C7.1,16,7.1,16.1,7,16c-0.1-0.1,0-0.2,0-0.2c0.1-0.3,0.2-0.6,0.6-0.7c0.3-0.1,0.6-0.3,0.9-0.5c0.2-0.1,0.2-0.3,0-0.4
			c-0.2-0.1-0.4-0.2-0.6,0c-0.1,0.1-0.2,0-0.2-0.1c0-0.2,0.1-0.4,0.2-0.6c0.1-0.1,0.2-0.1,0.2,0c0.1,0.2,0.3,0.3,0.4,0.4
			c0.4,0.2,0.9,0.4,1.3,0.6c0.3,0.1,0.3,0.2,0,0.4c-0.4,0.2-0.7,0.3-1.1,0.5c-0.2,0.1-0.4,0.1-0.4,0.3c0,0.2,0.2,0.2,0.4,0.3
			C8.8,16,8.9,16,9,16z"/>
		<path class="st91" d="M21.4,34.5c-0.4,0-0.6,0.2-0.8,0.4c-0.1,0.1,0,0.2,0,0.3c0.2,0.4,0.4,0.8,0.7,1.2c0.1,0.1,0.2,0.2,0.1,0.3
			c-0.1,0.1-0.2,0-0.3,0c-0.1,0-0.1,0-0.2,0c-0.4,0-0.7-0.2-0.8-0.6c0-0.1-0.1-0.2-0.1-0.2c-0.1-0.1-0.1-0.3-0.3-0.2
			c-0.2,0.1-0.1,0.3-0.1,0.5c0.1,0.3,0.1,0.3-0.2,0.3c-0.2,0-0.3,0-0.5-0.1c-0.4-0.1-0.3-0.1-0.2-0.4c0.2-0.6,0.5-1.1,0.3-1.8
			c-0.1-0.1,0-0.2,0.1-0.2c0.3,0,0.6,0,0.9,0.1c0.1,0.1,0.2,0.2,0,0.2c0,0-0.1,0-0.1,0.1c-0.1,0.2-0.2,0.4-0.1,0.5
			c0.2,0.1,0.3,0,0.4-0.1c0.1-0.1,0.3-0.2,0.2-0.4c0-0.1,0.1-0.1,0.2-0.1c0.2,0,0.4,0,0.6,0.1c0.1,0,0.3,0,0.2,0.2
			C21.6,34.6,21.4,34.5,21.4,34.5z"/>
		<path class="st92" d="M25.8,34.2c0.2-0.2,0.4-0.2,0.6-0.2c0.1,0,0.2,0,0.3,0.1c0.1,0.1-0.1,0.2-0.1,0.2c-0.1,0.1,0,0.2,0,0.4
			c0,0.3,0.1,0.5,0.1,0.8c0.2,0.7-0.1,1.1-0.9,1.2c-0.7,0.2-1.1-0.1-1.3-0.8c-0.1-0.3-0.1-0.5-0.2-0.8c0-0.1-0.1-0.2-0.2-0.2
			c-0.3-0.1-0.2-0.2,0-0.3c0.3-0.1,0.6-0.2,0.9-0.2c0.1,0,0.2,0.1,0.1,0.2c-0.3,0.3-0.1,0.6-0.1,0.9c0,0.2,0.1,0.3,0.1,0.5
			c0.1,0.3,0.3,0.4,0.6,0.3c0.3-0.1,0.5-0.2,0.5-0.6c0-0.4-0.1-0.7-0.2-1.1C26.1,34.3,25.9,34.3,25.8,34.2z"/>
		<path class="st93" d="M35.2,31.5c0,0.1-0.1,0.1-0.2,0.1c-0.4,0.1-0.7,0-1.1,0c-0.2,0-0.3,0-0.5,0c-0.3,0-0.3,0.2-0.2,0.4
			c0.2,0.2,0.3,0.4,0.7,0.4c0.1,0,0.2,0.1,0.1,0.2c-0.1,0.1-0.2,0.2-0.3,0.3c-0.1,0.1-0.2,0.2-0.3,0.2c-0.1,0,0-0.2-0.1-0.3
			c0-0.1-0.1-0.2-0.1-0.2c-0.3-0.3-0.5-0.6-0.9-0.9c-0.1-0.1-0.2-0.2-0.4-0.1c-0.1,0-0.1,0-0.2,0c0-0.1,0-0.1,0-0.2
			c0.2-0.3,0.4-0.5,0.8-0.5c0.4,0,0.7,0,1.1,0c0.2,0,0.3-0.2,0.1-0.3c-0.1-0.2-0.3-0.4-0.6-0.3c-0.1,0-0.2-0.1-0.1-0.2
			c0.1-0.1,0.2-0.2,0.3-0.3c0.1-0.1,0.2-0.2,0.3-0.2c0.1,0.1,0,0.2,0,0.3c0,0.2,0.1,0.3,0.2,0.4c0.3,0.3,0.5,0.6,0.8,0.9
			C35.1,31.3,35.2,31.4,35.2,31.5z"/>
		<path class="st90" d="M28.3,7.6c-0.3,0-0.7-0.2-1-0.5c-0.2-0.1-0.2-0.6-0.1-0.7c0.1-0.1,0.1-0.1,0.2,0c0,0.1,0.1,0.2,0.1,0.2
			c0.1,0.2,0.2,0.4,0.4,0.5c0.2,0.1,0.3,0.1,0.5-0.1c0.1-0.2,0-0.3-0.1-0.4c-0.1-0.1-0.3-0.3-0.5-0.4c-0.2-0.3-0.3-0.5-0.1-0.8
			c0.2-0.3,0.5-0.4,0.8-0.4c0.4,0,0.7,0.3,1.1,0.4c0.2,0,0.2,0.5,0.1,0.6c-0.1,0.1-0.2,0-0.3-0.1c-0.1-0.2-0.2-0.3-0.4-0.4
			c-0.1-0.1-0.3-0.1-0.4,0c-0.1,0.1,0,0.3,0.1,0.4c0.1,0.1,0.2,0.2,0.3,0.3c0.4,0.3,0.5,0.5,0.4,0.9C29.2,7.5,28.9,7.6,28.3,7.6z"/>
		<path class="st92" d="M39.7,19.6c0,0.1,0,0.2,0,0.3c0.1,0.2-0.1,0.3-0.2,0.4c-0.1,0.1-0.3,0.2-0.4,0c-0.1-0.1,0-0.2,0.1-0.3
			c0.1-0.2,0.2-0.4,0.2-0.6c0-0.1-0.1-0.2-0.2-0.2c-0.1,0-0.2,0-0.3,0.1c-0.1,0.2-0.1,0.3-0.2,0.5c-0.1,0.4-0.3,0.6-0.7,0.7
			c-0.4,0-0.7-0.2-0.9-0.5c-0.2-0.4-0.2-0.8,0-1.2c0.1-0.2,0.4-0.4,0.7-0.4c0.1,0,0.1,0.1,0.1,0.1c-0.1,0.1-0.1,0.1-0.2,0.2
			c-0.2,0.2-0.3,0.4-0.3,0.6c0,0.2,0.1,0.3,0.2,0.3c0.2,0,0.2-0.1,0.3-0.3c0.1-0.2,0.1-0.4,0.2-0.6c0.2-0.4,0.4-0.5,0.8-0.5
			c0.3,0,0.6,0.3,0.7,0.6C39.7,19.2,39.8,19.4,39.7,19.6z"/>
		<path class="st94" d="M22.7,4.2c0.2,0,0.5,0,0.7,0c0.3,0,0.5,0.1,0.6,0.4c0.1,0.3,0,0.5-0.3,0.6c-0.2,0.1-0.1,0.2,0,0.3
			C24,5.6,24.1,5.8,24.1,6c0,0.2,0,0.3,0.2,0.4c0.1,0.1,0,0.2-0.1,0.2c-0.4,0.2-0.8,0-1-0.4c0-0.2-0.1-0.3-0.2-0.5
			c-0.1-0.1-0.2-0.2-0.4-0.2c-0.2,0-0.1,0.2-0.1,0.3c0,0.2-0.1,0.4,0.2,0.6c0.1,0.1,0,0.2-0.1,0.2c-0.3,0-0.6,0.1-0.9,0
			c-0.1,0-0.2-0.1-0.1-0.2c0.1-0.1,0.1-0.2,0.1-0.3c0.1-0.4,0-0.9,0-1.3c0-0.1,0-0.2-0.1-0.3c0,0-0.1-0.1-0.1-0.1
			c0-0.1,0.1-0.1,0.2-0.1C22.2,4.2,22.4,4.2,22.7,4.2C22.7,4.2,22.7,4.2,22.7,4.2z"/>
		<path class="st90" d="M14.1,8.1C14,7.8,14,7.6,13.9,7.3c0,0-0.1-0.1-0.1-0.1c-0.4-0.1-0.1-0.2,0-0.4c0.1-0.1,0.2-0.1,0.3-0.2
			c0.1,0,0.2-0.1,0.2,0c0.1,0.1,0,0.1-0.1,0.2c-0.1,0.2,0,0.4,0,0.6c0.1,0.5,0.2,1,0.3,1.5c0,0.1,0.1,0.3-0.1,0.4
			c-0.1,0.1-0.3,0-0.4-0.1c-0.5-0.3-0.9-0.6-1.4-0.9c-0.1-0.1-0.3-0.2-0.5-0.2c-0.2,0-0.2-0.1-0.1-0.2c0.2-0.3,0.5-0.4,0.8-0.5
			c0.1,0,0.2,0,0.2,0.1c-0.1,0.3,0.2,0.3,0.3,0.4c0.1,0.1,0.2,0.2,0.3,0.2C14,8.3,14.1,8.2,14.1,8.1z"/>
		<path class="st95" d="M36,14.8c-0.1-0.2-0.2-0.4-0.2-0.6c0-0.1,0-0.1,0-0.2c0.1,0,0.1,0,0.1,0c0.1,0.1,0.3,0.1,0.4,0.1
			c0.6,0,1.2,0.1,1.9,0c0.2,0,0.4,0.2,0.3,0.5c0,0.1-0.1,0.2-0.2,0.3c-0.3,0.4-0.7,0.7-1,1.1c-0.1,0.1-0.3,0.2-0.3,0.4
			c0,0.2-0.1,0.2-0.2,0.1c-0.2-0.3-0.3-0.6-0.4-1c0-0.1,0-0.2,0.2-0.1c0.1,0.1,0.2,0.1,0.3,0c0.1-0.1,0.1-0.2,0-0.3
			c-0.1-0.2-0.1-0.4-0.2-0.6c-0.1-0.1-0.1-0.2-0.3-0.1c-0.1,0-0.2,0.1-0.2,0.2C36.2,14.9,36.1,14.8,36,14.8C36,14.8,36,14.8,36,14.8
			z"/>
		<path class="st96" d="M29.7,32.7c0.1,0,0.2,0.1,0.4,0.1c0.4,0.3,0.8,0.6,1.2,0.9c0.2,0.1,0.4,0.3,0.6,0.3c0.2,0,0.1,0.1,0,0.2
			c-0.3,0.2-0.6,0.4-1,0.5c-0.1,0-0.2,0-0.1-0.2c0.1-0.2,0-0.3-0.2-0.3c-0.2,0.1-0.5,0.2-0.6,0.3c-0.1,0.1-0.1,0.1-0.1,0.2
			c0,0.1,0.1,0.1,0.2,0.1c0.1,0,0.1,0,0.1,0.1c0,0.1,0,0.1-0.1,0.2c-0.2,0.1-0.4,0.2-0.6,0.3c-0.1,0-0.1,0-0.1,0c0,0,0-0.1,0-0.1
			c0.1-0.1,0.1-0.3,0.1-0.4c0-0.6-0.1-1.2-0.2-1.8C29.3,32.9,29.4,32.7,29.7,32.7z"/>
		<path class="st97" d="M38.2,24.5C38.2,24.5,38.2,24.5,38.2,24.5c-0.2,0.3-0.2,0.6,0,0.8c0,0,0,0.1,0,0.1c-0.1,0.1-0.1,0-0.2,0
			c-0.2-0.2-0.4-0.2-0.7,0c0,0-0.1,0.1-0.2,0c-0.1-0.1,0-0.1,0-0.2c0.2-0.2,0.2-0.4,0-0.6c0-0.1-0.1-0.1,0-0.2c0.1-0.1,0.1,0,0.2,0
			c0.2,0.2,0.4,0.2,0.7,0C38,24.3,38.2,24.3,38.2,24.5z"/>
		<path class="st98" d="M8.1,24.4c0,0,0.1,0,0.1,0c0.2,0.2,0.5,0.2,0.7,0c0,0,0.1-0.1,0.2,0c0.1,0.1,0.1,0.1,0,0.2
			c-0.2,0.2-0.2,0.5,0,0.7c0,0.1,0.1,0.1,0,0.2c-0.1,0-0.1,0-0.2,0c-0.2-0.2-0.4-0.2-0.7,0c-0.1,0-0.1,0.1-0.2,0
			c-0.1-0.1,0-0.2,0-0.2c0.2-0.2,0.2-0.4,0-0.6C8,24.5,7.9,24.4,8.1,24.4z"/>
		<path class="st88" d="M12.7,30.1c0.1,0.2,0.3,0.3,0.4,0.4c0.2,0.2,0.4,0.3,0.6,0.6c0.3,0.3,0.3,0.6,0,0.9c-0.3,0.3-0.6,0.4-1,0.2
			c-0.1-0.1-0.2-0.1-0.3-0.2c-0.1-0.1-0.1-0.3-0.3-0.2c-0.2,0.1-0.3,0.2-0.3,0.4c0,0.1,0.1,0.2-0.1,0.2c-0.1,0-0.2,0-0.3-0.1
			c-0.2-0.2-0.4-0.3-0.6-0.6c-0.1-0.1-0.1-0.2,0.1-0.2c0.1,0,0.2,0,0.2,0c0.4-0.3,0.8-0.7,1.1-1.1c0,0,0-0.1,0-0.2
			C12.4,30,12.6,30,12.7,30.1C12.7,30.1,12.7,30.1,12.7,30.1z"/>
		<path class="st79" d="M35.6,10.3c-0.1-0.1-0.3,0-0.4,0c-0.1,0-0.2,0-0.2-0.1c0-0.1,0-0.2,0.1-0.2c0.3-0.2,0.6-0.1,0.8,0.1
			c0.2,0.2,0.4,0.5,0.6,0.7c0.1,0.1,0.1,0.2,0.2,0.3c0.3,0.2,0.2,0.6-0.1,0.8c-0.2,0.1-0.3,0-0.3-0.2c0-0.1,0-0.2,0.1-0.2
			c0.1-0.1,0.1-0.2-0.1-0.3c-0.1-0.1-0.2,0-0.3,0.1c-0.3,0.2-0.6,0.4-0.9,0.7c-0.1,0.1-0.2,0.2-0.2,0.4c0,0.2-0.1,0.2-0.2,0.1
			c-0.3-0.2-0.5-0.5-0.7-0.8c-0.1-0.2,0-0.2,0.2-0.2c0,0,0.1,0,0.1,0c0.2,0,1.3-0.8,1.4-1C35.7,10.4,35.7,10.4,35.6,10.3z"/>
		<path class="st96" d="M11.3,12.3c-0.1,0-0.1-0.1-0.1-0.2c0-0.1,0-0.2-0.1-0.3c-0.3-0.3-0.7-0.6-1-0.8C10,11,9.9,10.9,9.8,10.9
			c-0.3,0.1-0.3-0.1-0.2-0.2c0.1-0.2,0.3-0.5,0.5-0.6c0.1-0.1,0.2-0.1,0.2,0.1c0,0.2,0.1,0.3,0.3,0.4c0.3,0.2,0.6,0.4,0.8,0.7
			c0.1,0.1,0.2,0.1,0.4,0.1c0.2,0,0.2,0,0.2,0.2c-0.1,0.3-0.3,0.5-0.6,0.7C11.4,12.3,11.4,12.3,11.3,12.3z"/>
		<path class="st99" d="M32.6,7.2c0.2,0,0.8,0.5,0.8,0.6c0,0.1,0,0.1-0.1,0.1c-0.4,0-0.5,0.3-0.7,0.5c-0.2,0.2-0.3,0.4-0.5,0.6
			c-0.1,0.1-0.1,0.2-0.1,0.4c0,0.2-0.1,0.2-0.2,0.2c-0.3-0.1-0.5-0.3-0.7-0.5c-0.1-0.1-0.1-0.3,0.1-0.3c0,0,0.1,0,0.1,0
			c0.3-0.1,1.1-1.2,1.1-1.4C32.5,7.2,32.5,7.2,32.6,7.2z"/>
		<path class="st100" d="M23.5,11.7c-0.1,0-0.1,0.2-0.2,0.2c-0.1-0.1,0-0.2,0-0.2c0,0,0-0.1,0-0.2c0-0.1-0.1-0.2,0.1-0.2
			c0.2,0,0.2,0.1,0.2,0.2C23.7,11.6,23.7,11.7,23.5,11.7z"/>
		<path class="st101" d="M23.5,11.7c0-0.1,0.1-0.1,0.1-0.2c0.1,0,0.1-0.2,0.2-0.1c0.1,0.1,0,0.2,0,0.3c0,0.1,0,0.2-0.2,0.2
			c-0.1,0-0.1,0.1-0.2,0.1C23.5,11.9,23.6,11.8,23.5,11.7z"/>
		<path class="st102" d="M23.7,11.9c0.1-0.1,0.1-0.2,0.2-0.2c0.1,0,0.1-0.2,0.3-0.2c0.1,0,0.1,0.1,0.1,0.2c-0.1,0.1-0.2,0.1-0.3,0.2
			C23.9,11.8,23.8,12.2,23.7,11.9z"/>
		<path class="st103" d="M23,11.6c0-0.1-0.1-0.3,0.1-0.3c0.2,0,0.1,0.1,0.1,0.2c0,0.1,0.1,0.4-0.1,0.4C22.9,11.9,23,11.7,23,11.6z"
			/>
		<path class="st104" d="M22.6,11.9c-0.1-0.1-0.1-0.3-0.2-0.4c0-0.2,0.1-0.2,0.2-0.2c0.1,0.1,0.2,0.3,0.1,0.5
			C22.8,12,22.7,11.9,22.6,11.9z"/>
		<path class="st105" d="M22.7,11.3c0.1-0.1,0.2-0.1,0.3,0.1c0,0.1,0,0.3,0,0.4c0,0.1-0.1,0.1-0.1,0C22.7,11.7,22.7,11.5,22.7,11.3z
			"/>
		<path class="st106" d="M22.7,11.3c0,0.2,0.1,0.3,0.1,0.5c0,0,0,0,0,0s0,0,0,0C22.7,11.7,22.6,11.5,22.7,11.3
			C22.6,11.4,22.7,11.4,22.7,11.3z"/>
		<path class="st107" d="M19.8,17.9c0.2,0,0.3,0.1,0.3,0.3c0,0.2-0.1,0.3-0.3,0.3c-0.2,0-0.3-0.1-0.3-0.3
			C19.5,18,19.6,17.9,19.8,17.9z"/>
		<path class="st108" d="M19.8,17c0,0.2-0.1,0.3-0.3,0.3c-0.2,0-0.3-0.1-0.3-0.3c0-0.2,0.1-0.3,0.3-0.3C19.6,16.7,19.7,16.8,19.8,17
			z"/>
		<path class="st109" d="M26.6,18.2c0,0.2-0.1,0.3-0.3,0.3c-0.2,0-0.3-0.1-0.3-0.3c0-0.2,0.1-0.3,0.3-0.3
			C26.5,17.9,26.6,18,26.6,18.2z"/>
		<path class="st110" d="M21.9,13.8c0,0.2-0.1,0.3-0.3,0.3c-0.2,0-0.3-0.1-0.3-0.3c0-0.2,0.1-0.3,0.3-0.3
			C21.8,13.5,21.9,13.6,21.9,13.8z"/>
		<path class="st111" d="M20.4,14.9c-0.2,0-0.3-0.1-0.3-0.3c0-0.2,0.1-0.3,0.3-0.3c0.2,0,0.3,0.1,0.3,0.3
			C20.7,14.8,20.6,14.9,20.4,14.9z"/>
		<path class="st112" d="M24.5,13.5c0.2,0,0.3,0.1,0.3,0.3c0,0.2-0.1,0.3-0.3,0.3c-0.2,0-0.3-0.1-0.3-0.3
			C24.2,13.7,24.3,13.6,24.5,13.5z"/>
		<path class="st113" d="M27,17c0,0.2-0.1,0.3-0.3,0.3c-0.2,0-0.3-0.1-0.3-0.3c0-0.2,0.1-0.3,0.3-0.3C26.9,16.7,26.9,16.8,27,17z"/>
		<path class="st114" d="M20,15.8c-0.1,0.1-0.3,0.3-0.5,0.1c-0.2-0.1-0.2-0.2-0.1-0.4c0.1-0.1,0.2-0.2,0.3-0.2
			C20,15.4,20,15.6,20,15.8C20,15.8,20,15.8,20,15.8z"/>
		<path class="st115" d="M26.4,15.4c0.2,0,0.3,0.1,0.3,0.3c0,0.2-0.1,0.3-0.3,0.3c-0.2,0-0.3-0.1-0.3-0.3
			C26.1,15.5,26.2,15.4,26.4,15.4z"/>
		<path class="st116" d="M25.7,14.9c-0.2,0-0.3-0.1-0.3-0.3c0-0.2,0.1-0.3,0.3-0.3c0.2,0,0.3,0.1,0.3,0.3
			C26,14.8,25.9,14.9,25.7,14.9z"/>
		<path class="st117" d="M23.2,13.4c0.2,0.1,0.3,0.2,0.2,0.4C23.4,14,23.2,14,23,14c-0.2-0.1-0.3-0.2-0.2-0.4
			C22.8,13.4,23,13.3,23.2,13.4z"/>
		<path class="st118" d="M22.5,12C22.5,12,22.5,12,22.5,12c-0.2-0.1-0.4-0.2-0.5-0.4C22.3,11.7,22.4,11.9,22.5,12z"/>
		<path class="st119" d="M24.6,11.8c-0.1,0.2-0.3,0.2-0.5,0.3C24.2,11.9,24.5,11.9,24.6,11.8z"/>
		<path class="st120" d="M23.2,16.8c0.8,2.1,1.7,4.2,2.5,6.2c0.2,0.6,0.5,1.2,0.7,1.7c0.1,0.3,0,0.3-0.2,0.3c-2.1,0-4.3,0-6.4,0
			c-0.3,0-0.3-0.1-0.2-0.3c0.7-1.6,1.3-3.1,2-4.7c0.4-1.1,0.9-2.1,1.3-3.2C23,16.8,23.1,16.6,23.2,16.8z"/>
		<path class="st121" d="M22.1,17.7c-1,2.4-2,4.7-3,7.1c-0.4-0.6-0.7-1.2-1-1.7c-0.1-0.1,0-0.2,0.1-0.3c1.3-1.9,2.6-3.7,3.8-5.6
			c0.1-0.1,0.2-0.3,0.3-0.4c0.1,0,0.1-0.1,0.2-0.1c0.1,0,0,0.1,0,0.1l0,0C22.4,17.1,22.2,17.4,22.1,17.7z"/>
		<path class="st122" d="M25.8,19.5c0.5,0.8,1.1,1.6,1.6,2.4c0.2,0.3,0.4,0.6,0.6,0.9c0.1,0.1,0.1,0.2,0.1,0.3
			c-0.3,0.5-0.6,1.1-1,1.7c-0.2-0.4-0.3-0.7-0.5-1c-0.8-1.9-1.6-3.8-2.4-5.7c0,0,0-0.1,0-0.1c0-0.1-0.1-0.2-0.1-0.3
			c0-0.1-0.1-0.3,0-0.3c0.1-0.1,0.2,0.1,0.3,0.2c0.2,0.3,0.4,0.6,0.6,0.9C25.2,18.8,25.5,19.2,25.8,19.5z"/>
		<path class="st123" d="M25.8,19.5c-0.2-0.1-0.2-0.2-0.3-0.3c-0.4-0.6-0.8-1.1-1.2-1.7c-0.1-0.1-0.1-0.2-0.2-0.2
			c-0.1,0.1-0.1,0.2,0,0.3c0,0.1,0.1,0.2,0.1,0.3c-0.3-0.5-0.5-1.1-0.7-1.7c0.1-0.1,0.1,0,0.2,0C24.3,17.4,25.1,18.4,25.8,19.5z"/>
		<path class="st124" d="M22.5,16.8c-0.1-0.2-0.2,0-0.2,0c0.2-0.2,0.3-0.5,0.5-0.7C22.7,16.3,22.7,16.5,22.5,16.8z"/>
		<path class="st124" d="M22.1,17.7c0-0.3,0.2-0.7,0.4-0.9C22.4,17.1,22.3,17.4,22.1,17.7z"/>
		<path class="st125" d="M23.2,16.8c-0.1-0.1-0.2,0-0.3,0.1c0-0.1,0-0.3,0.1-0.3C23.2,16.6,23.2,16.7,23.2,16.8z"/>
		<path class="st126" d="M24.1,28.9c-0.3,0-0.5-0.2-0.5-0.4c0-0.1,0-0.3,0.2-0.3c0.1,0,0.6,0.3,0.6,0.5
			C24.4,28.9,24.3,28.9,24.1,28.9z"/>
		<path class="st127" d="M22.4,28.9c-0.2,0-0.4-0.1-0.3-0.3c0-0.3,0.3-0.3,0.5-0.4c0.2,0,0.2,0.2,0.2,0.3
			C22.8,28.8,22.6,28.9,22.4,28.9z"/>
		<path class="st128" d="M15.5,33.8c0.1-0.1,0.2-0.3,0.3-0.2c0.1,0,0.1,0.2,0,0.3C15.7,34,15.6,33.8,15.5,33.8z"/>
		<path class="st129" d="M23.2,4.9c0,0.1,0,0.2-0.1,0.3c-0.1,0.1-0.2,0.1-0.3,0.1c-0.1,0-0.1-0.1-0.1-0.2c0-0.1,0-0.1,0-0.2
			c0-0.2,0-0.4,0.2-0.4C23.1,4.5,23.2,4.7,23.2,4.9z"/>
		<path class="st130" d="M37.7,14.7c0,0.1-0.3,0.5-0.4,0.5c-0.2-0.1-0.2-0.3-0.2-0.5c0-0.2,0.2-0.1,0.3-0.1
			C37.4,14.6,37.6,14.5,37.7,14.7z"/>
		<path class="st131" d="M29.7,33.9c0-0.1-0.1-0.3,0.1-0.3c0.1,0,0.5,0.3,0.5,0.4c-0.1,0.2-0.3,0.3-0.5,0.3
			C29.6,34.2,29.8,34,29.7,33.9z"/>
		<path class="st132" d="M12.8,31.7c-0.1,0-0.2,0-0.2-0.1c-0.1-0.1,0-0.2,0.1-0.2c0.1-0.1,0.2-0.2,0.3-0.3c0.1-0.1,0.1-0.1,0.2-0.1
			c0.1,0.1,0.1,0.1,0.1,0.2C13.3,31.4,13.1,31.7,12.8,31.7z"/>
		<path class="st133" d="M24.1,28.8c-0.2,0-0.3-0.1-0.3-0.3c0-0.1,0-0.2,0.1-0.1c0.2,0.1,0.4,0.1,0.4,0.3
			C24.3,28.8,24.2,28.8,24.1,28.8z"/>
		<path class="st134" d="M22.4,28.7c-0.1,0-0.2,0-0.2-0.1c0-0.2,0.2-0.2,0.3-0.2c0.1,0,0.1,0.1,0.1,0.2
			C22.7,28.7,22.6,28.7,22.4,28.7z"/>
		<path class="st135" d="M22.8,4.9c0.1-0.1-0.1-0.3,0.1-0.3c0.2,0,0.2,0.1,0.2,0.3c0,0.1,0,0.3-0.2,0.3C22.7,5.1,22.9,5,22.8,4.9z"
			/>
		<path class="st136" d="M37.2,14.7c0.1,0,0.3,0,0.4,0c0,0.1-0.1,0.2-0.2,0.3C37.2,14.9,37.2,14.8,37.2,14.7z"/>
		<path class="st137" d="M29.8,34.1c0-0.2,0-0.3,0-0.4c0.1,0,0.3,0.1,0.3,0.2C30.1,34.1,30,34.1,29.8,34.1z"/>
		<path class="st138" d="M13.1,31.1C13.2,31.1,13.2,31.1,13.1,31.1c0.1,0.3-0.2,0.6-0.3,0.5c0,0-0.1,0-0.1-0.1
			C12.7,31.5,13.1,31.1,13.1,31.1z"/>
	</g>
	<text transform="matrix(1.057 0 0 1 50.9956 28.9333)" class="st139 st140 st141">VIRTUAL TOUR </text>
</g>
</svg>
