<?xml version="1.0" encoding="utf-8"?>
<!-- Generator: Adobe Illustrator 21.0.0, SVG Export Plug-In . SVG Version: 6.00 Build 0)  -->
<svg version="1.1" id="Layer_1" xmlns="http://www.w3.org/2000/svg" xmlns:xlink="http://www.w3.org/1999/xlink" x="0px" y="0px"
	 viewBox="0 0 1366 768" style="enable-background:new 0 0 1366 768;" xml:space="preserve">
<style type="text/css">
	.st0{fill:#FEFEFE;}
	.st1{fill:#201C11;}
	.st2{fill:#FAF015;}
	.st3{fill:#F5EA4E;}
	.st4{fill:#06A659;}
	.st5{fill:#06A759;}
	.st6{fill:#221E06;}
	.st7{fill:#272410;}
	.st8{fill:#F9F9F8;}
	.st9{fill:#EDF223;}
	.st10{fill:#413B0F;}
	.st11{fill:#E7F427;}
	.st12{fill:#484311;}
	.st13{fill:#433D0F;}
	.st14{fill:#E5F22A;}
	.st15{fill:#413C0F;}
	.st16{fill:#3B360E;}
	.st17{fill:#443F0F;}
	.st18{fill:#413C0D;}
	.st19{fill:#443E0F;}
	.st20{fill:#1CA640;}
	.st21{fill:#413D0F;}
	.st22{fill:#443F15;}
	.st23{fill:#423C0D;}
	.st24{fill:#393617;}
	.st25{fill:#3A3615;}
	.st26{fill:#3F380C;}
	.st27{fill:#0DA753;}
	.st28{fill:#E5F22D;}
	.st29{fill:#413F11;}
	.st30{fill:#433D10;}
	.st31{fill:#554F19;}
	.st32{fill:#EDEA2E;}
	.st33{fill:#666435;}
	.st34{fill:#5B5316;}
	.st35{fill:#423A0C;}
	.st36{fill:#42380F;}
	.st37{fill:#443B10;}
	.st38{fill:#453B10;}
	.st39{fill:#42370A;}
	.st40{fill:#3F370D;}
	.st41{fill:#41390D;}
	.st42{fill:#3F360B;}
	.st43{fill:#3E350C;}
	.st44{fill:#EEEA30;}
	.st45{fill:#ECEA30;}
	.st46{fill:#F9F440;}
	.st47{fill:#1BA641;}
	.st48{fill:#21A63D;}
	.st49{fill:#1EA53E;}
	.st50{fill:#47410E;}
	.st51{fill:#1EA63D;}
	.st52{fill:#EEEC33;}
	.st53{fill:#CBED37;}
	.st54{fill:#1EA33C;}
	.st55{fill:#D1EB52;}
	.st56{fill:#EEE635;}
	.st57{fill:#24A53A;}
	.st58{fill:#40380F;}
	.st59{fill:#C7EE36;}
	.st60{fill:#26A331;}
	.st61{fill:#F2F2ED;}
	.st62{fill:#1DA540;}
	.st63{fill:#F3F2EB;}
	.st64{fill:#DEEA3C;}
	.st65{fill:#F0E94F;}
	.st66{fill:#EAEDDC;}
	.st67{fill:#EEEFEA;}
	.st68{fill:#737020;}
	.st69{fill:#3CA423;}
	.st70{fill:#EAE6D9;}
	.st71{fill:#F0E850;}
	.st72{fill:#766916;}
	.st73{fill:#3DA82F;}
	.st74{fill:#3CA92E;}
	.st75{fill:#C1DD47;}
	.st76{fill:#D2F23B;}
	.st77{fill:#F7F018;}
	.st78{fill:#FAF9F6;}
	.st79{fill:#FCFBF8;}
	.st80{fill:#FBFAF9;}
	.st81{fill:#F4F5F2;}
	.st82{fill:#F5F3F1;}
	.st83{fill:#F6F5F3;}
	.st84{fill:#F7F7F6;}
	.st85{fill:#444241;}
	.st86{fill:#3C3A1D;}
	.st87{fill:#FAFAF6;}
	.st88{fill:#F9FBF6;}
	.st89{fill:#FAFBF7;}
	.st90{fill:#F9FBF7;}
	.st91{fill:#FBFAF6;}
	.st92{fill:#FBFBFB;}
	.st93{fill:#FAFBF8;}
	.st94{fill:#FBFBF7;}
	.st95{fill:#FBFAF7;}
	.st96{fill:#F8F8F6;}
	.st97{fill:#F9F8F6;}
	.st98{fill:#FBFAF8;}
	.st99{fill:#F7F5F3;}
	.st100{fill:#F5F4EF;}
	.st101{fill:#F3F3F1;}
	.st102{fill:#E0DFDB;}
	.st103{fill:#F2F0EA;}
	.st104{fill:#F2F2EF;}
	.st105{fill:#7E7D7A;}
	.st106{fill:#F8F6F3;}
	.st107{fill:#F8F8F0;}
	.st108{fill:#F6F9F2;}
	.st109{fill:#F7F7F3;}
	.st110{fill:#F8F8F1;}
	.st111{fill:#FAF7F1;}
	.st112{fill:#F8F7EF;}
	.st113{fill:#F6F7F2;}
	.st114{fill:#F9F7F0;}
	.st115{fill:#F6F5EF;}
	.st116{fill:#F5F6EE;}
	.st117{fill:#707265;}
	.st118{fill:#676B61;}
	.st119{fill:#04A65B;}
	.st120{fill:#05A85A;}
	.st121{fill:#07A659;}
	.st122{fill:#1FA340;}
	.st123{fill:#2BA534;}
	.st124{fill:#4FA418;}
	.st125{fill:#343111;}
	.st126{fill:#302F13;}
	.st127{fill:#D2CD4B;}
	.st128{fill:#363519;}
	.st129{fill:#3E381E;}
	.st130{fill:#494624;}
	.st131{fill:#2F2C0B;}
	.st132{fill:#E7EB31;}
	.st133{fill:#E6E332;}
	.st134{fill:#EBE832;}
	.st135{fill:#D5D240;}
	.st136{fill:#E3E340;}
	.st137{fill:#E6E541;}
	.st138{font-family:'MyriadPro-Regular';}
	.st139{font-size:91.4403px;}
</style>
<g>
	<path class="st0" d="M216.6,579.9c-66.6,0-133.2,0-199.7,0.1c-2.5,0-2.9-0.5-2.9-2.9c0.1-145.5,0.1-290.9,0-436.4
		c0-2.4,0.5-2.9,2.9-2.9c150.4,0.1,300.8,0.1,451.2,0c2.5,0,2.9,0.5,2.9,2.9c-0.1,51.7-0.1,103.5-0.1,155.2c-2,0.4-2.7-1.2-3.6-2.3
		c-6.8-8.9-13.8-17.6-21.2-26c-10.7-11.9-21.7-23.6-33.7-34.3c-15.2-13.5-31.1-26.2-48.1-37.6c-12.3-8.3-25-16-38.2-22.8
		c-23.1-12-47-21.9-71.8-30c-6.5-2.1-12.4-2.3-19.1-0.1c-34.6,11.2-67.4,26-98.2,45c-19.7,12.2-38.2,26-55.6,41.3
		c-19.3,17-36.8,35.6-53,55.4c-3.3,4-6.4,8.1-9.5,12.3c-1.2,1.7-1.9,3.4-1.9,5.5c0,9.3-0.4,18.7,0.1,28c0.6,10.8,1.6,21.6,2.9,32.3
		c2.5,19.8,6.4,39.3,12.1,58.5c5.4,18.3,12,36.1,20,53.5c13.1,28.3,29.4,54.7,48.6,79.4c1.1,1.5,2.6,2.3,4.3,2.9
		c11.7,3.9,23.5,7.2,35.5,10c14.3,3.4,28.7,6.2,43.3,8.1c8.4,1.1,16.8,2.2,25.3,2.7C211.8,577.9,214.9,577.1,216.6,579.9z"/>
	<path class="st0" d="M470.9,347.1c0,76.6,0,153.3,0.1,229.9c0,2.5-0.5,3.1-3.1,3.1c-67-0.1-134-0.1-201-0.1c0.4-2,2.1-1.5,3.4-1.7
		c12.1-1.3,24.3-2.2,36.3-4.1c25.3-4,50.2-9.8,74.5-18c1.9-0.6,3.4-1.6,4.6-3.2c16.4-21.1,30.9-43.5,43-67.2
		c15.9-31,27.4-63.6,34.3-97.6c2.4-11.9,4.4-23.8,5.6-35.9C468.9,350.5,468.4,348.1,470.9,347.1z"/>
	<path class="st1" d="M470.9,347.1c-2.1,3.3-1.4,7.1-1.8,10.7c-5.8,46.5-19.6,90.5-41.4,132.2c-11.9,22.7-26,44.1-41.7,64.4
		c-1.6,2.1-3.8,2.7-6,3.4c-28.4,9.3-57.4,15.8-87.1,19.4c-7.8,0.9-15.7,1.4-23.5,2.1c-0.9,0.1-2-0.4-2.5,0.8c-16.8,0-33.5,0-50.3,0
		c-1.8-1.7-4.2-1-6.3-1.2c-36.4-2.7-71.8-10-106.4-21.2c-1.3-0.4-2.3-1-3.1-2.1c-33.6-43.1-58.1-90.5-72-142.9
		c-5.8-22.1-9.6-44.6-11.4-67.3c-1.2-14.3-1.4-28.6-1.4-42.9c0-2.1,0.6-3.8,1.8-5.5C31,279.3,45.3,262.7,60.9,247
		c30.3-30.3,64.6-55.4,102.8-75.4c25.2-13.2,51.6-23.6,78.9-32c1.3-0.4,2.5-0.2,3.8,0.1c43.8,13.2,84.6,32.2,122.1,58
		c18.6,12.8,35.9,26.9,52.2,42.3c17.3,16.4,33,34.2,47.3,53.1c0.8,1.1,1.4,2.5,2.9,2.9C470.9,313,470.9,330,470.9,347.1z"/>
	<path class="st2" d="M19.6,299.2c8.6-12.5,18.5-24,28.7-35.2c39.5-43.5,86.4-77.5,140.7-101.7c17.1-7.6,34.6-14.1,52.6-19.6
		c1.9-0.6,3.6-0.6,5.6,0c78.3,23.9,144.5,65.8,197.9,126.6c7.6,8.7,14.8,17.7,21.8,26.8c1.6,2.1,2.3,4.2,2.3,6.7
		c0.9,76.6-18.7,147.6-59.7,213.1c-7.7,12.3-16.2,24.2-25,35.8c-1.2,1.6-2.6,2.5-4.5,3.2c-50.5,16.6-102.4,24.3-155.7,22.1
		c-40.5-1.7-80-9.2-118.5-21.5c-1.9-0.6-3-1.7-4.1-3.1C63,502.2,36.8,446.6,25.4,384.7c-2.6-14.1-4.6-28.3-5.4-42.6
		c0.4-7.9-1-15.8-0.6-23.7C19.7,312,19.1,305.6,19.6,299.2z"/>
	<path class="st3" d="M19.6,299.2c0,6.1,0.3,12.3,0,18.4c-0.2,7,0.9,13.8,0.7,20.8c0,1.2,0.4,2.6-0.5,3.7c-1.3-13.5-1.2-27.1-1-40.7
		C18.9,300.6,18.8,299.8,19.6,299.2z"/>
	<path class="st4" d="M371.9,373.7c-7.3,10.3-17.7,15.2-30.3,16c-3.3,0.2-6.7,0.3-10-0.3c-0.8-0.2-1.8-0.3-2,0.8
		c-0.2,0.9,0.5,1.6,1.3,1.9c0.9,0.4,1.8,0.5,2.8,0.6c9.2,0.8,18.1-0.3,26.6-3.8c4.3-1,7.6-3.7,10.8-6.5c0.9-0.8,1.7-1.7,2.6-2.4
		c0.5-0.4,1.1-0.6,1.6-0.1c0.5,0.4,0,0.8,0,1.2c-0.4,3-3.3,4.5-4.3,7.1c-5.7,6.2-13,9.3-21.2,10.7c-6.6,1.2-13.3,0.7-20,1
		c3.3,1.2,6.8,1.6,10.3,1.2c11.5-1.2,22.7-3.4,32.5-10.1c0.5-0.3,1.1-0.5,1.7-0.5c1.7,0.3,2.1,1.1,1.3,2.5
		c-4.2,7.5-11.6,10.8-19.3,13.3c-8.6,2.8-17.6,3.1-26.6,2.4c-1.2-0.1-2.4-0.2-3.6-0.3c-1.8-0.3-2.8,0.7-3.1,2.2
		c-0.3,1.9,1.5,1.4,2.5,1.6c12.6,1.9,25,2,37-3c2.2-0.4,3.8-1.8,5.6-2.8c0.8-0.5,1.5-1.5,2.4-0.6c1,1.1-0.2,1.8-0.9,2.6
		c-3,3.3-6.7,5.8-10.6,7.9c-0.3,0.7-0.9,0.6-1.4,0.7c-9.5,4.1-19.6,3-29.5,3.2c-2.6,0.1-4.8-1.3-7.4-1.2c-2,0.1-3.6,0.4-3.8,2.7
		c-0.2,2.4,1.7,2.8,3.5,3.1c15.1,2.5,29.6,0.5,43.4-5.8c0.6-0.3,1.3-0.6,1.9-0.9c0.6-0.2,1.2-0.3,1.7,0.2c0.7,0.7,0,1.3-0.5,1.8
		c-3,3.3-7.1,5-10.9,7.2c-2.9,1.6-6.2,2.2-9.1,3.8c-11.2,3.4-22.6,3.3-34,1.1c-3.8-0.7-6.1-0.1-8.7,2.6
		c-5.9,6.4-13.1,11.1-20.9,15.1c-3.5,1.8-3.5,1.9-0.1,4c7.9,5,15.7,10.2,21.5,17.6c2.8,3.6,1.8,7.4-2.5,9.2
		c-1.5,0.6-1.8-0.6-2.5-1.3c-5-5.6-10.1-11.2-16.8-15c-4.2-2-8.1-4.5-12.8-5.5c-2.1-0.5-3.7-2-5.5-3.1c-1.7-1.1-3.4-2-5.4-2.5
		c-5.5-1.5-6-2.7-3.9-8.2c4.8,0.2,9.4,1.5,14.1,2.3c1.8,0.3,3.3,0.2,4.9-0.6c19.6-9.2,35.3-22.2,43.5-42.4c7.2-17.9,8-36.2,3.5-54.9
		c-1.5-6.1-5.6-10.4-10.2-14.3c-5.2-4.5-3.7-11.5,1.5-14.8c3.4-2.2,8.4-1.5,11,1.5c2,2.2,2.3,4.5-0.2,6.9c-1.5-2-2.7-4.3-5.9-3.6
		c-1.4,0.3-2.3,1-2.3,2.2c0,2.3,0.4,4.7,2.5,6.2c2,1.5,4.4,2.2,6.7,0.7c9.2-5.8,12.4-14.7,4.1-23.6c-7-7.5-14.7-14.3-21.5-21.9
		c-6.3-7-11-14.9-11.2-24.7c0-2.3,0.6-4.3,2.4-6c1.8,2.7,2.3,5.7,2.7,8.8c0.5,4,2.8,7.5,5.2,10.6c6.2,8.3,13.8,15.5,21.8,22.1
		c6.2,5.1,10.5,11.4,12.5,19.1c2.1,8.1-2.3,13.8-8,18.8c-0.7,0.6-1.4,1.2-2.2,1.8c-0.9,0.8-1.9,1.2-2.9,1.9c-0.7,0.5-1.3,1.1-0.9,2
		c0.4,1.1,1.2,1.7,2.4,1.1l0.1,0c2.6-1.1,5.3-2.2,7.9-3.6c4.3-2.3,7.9-5.3,10.1-9.6c1.8-3.9,3.7-7.8,3.5-12.3c0-0.8,0-1.8,1.1-1.9
		c0.8-0.1,1.1,0.7,1.5,1.3c2.4,4.1,2.2,8.5,1.1,12.8c-2.2,8.6-8.7,13.6-16.1,17.7c-2,1.1-4.1,1.9-5.9,3.2c8.3-1.6,15.3-5.4,20.5-12
		c2.7-3.4,4.7-7.3,6.1-11.4c0.2-0.7,0.2-1.5,1.2-1.4c1,0,1,0.9,1.1,1.5c1,6.6-0.5,12.6-4.3,18.2c-3,4.3-7.3,7-11.8,9.4
		c-3.4,1.2-6.9,2.3-10.2,3.9c4.1,1.5,7.8-0.3,11.7-1.2c7.6-2.1,12.6-7.1,16.2-13.6c2-3.5,2.9-7.5,4.5-12.3c1.8,7,1.1,12.7-1.7,18.2
		c-6.1,11.8-16,17.4-29.5,17.4c-1.6,0-4.4-1-4.5,1c-0.1,2.5,3,2.2,4.8,2.3c14.6,1,28.2-7,34.4-20c0.6-1.2,1.1-2.5,2-4.3
		c1.6,9.7-2.4,16.3-8.9,22.1c-8.5,7.5-18.5,10.2-29.7,9.9c-1,0-2.4-0.8-2.6,0.9c-0.1,1.3,0.8,2.2,2,2.6c2.6,0.8,5.2,0.6,7.8,0.3
		c12.6-1.5,23.4-6.3,31.4-16.2c1.6-1.2,2.2-0.6,1.9,1.1C374,370.3,372.7,371.9,371.9,373.7z"/>
	<path class="st5" d="M116.7,415.6c15.1,9.1,31.6,11.2,48.8,8.9c1.5-0.2,3.6-0.4,3-2.9c-0.6-2.4-2.2-2-4.2-1.8
		c-11.8,1.1-23.6,2.5-35-2c-3.3-1.3-6.5-2.8-9.1-5.3c-1.4-1.5-3-2.8-4.4-4.3c-0.6-0.6-1.3-1.2-0.6-2.1c0.7-0.9,1.4-0.3,2.1,0.1
		c1.5,0.9,2.8,2.1,4.6,2.4c12.3,5.8,25.2,5.6,38.2,3.8c1-0.1,3.1,0.4,2.8-1.7c-0.3-1.7-1.6-2.4-3.5-2.1c-8,1.1-16,0.8-23.9-0.6
		c-6.2-1.1-12.2-3.1-17.4-6.9c-2.1-1.6-4-3.6-5.8-5.5c-1-1-2.4-2.2-1.3-3.5c1.2-1.5,2.5,0.1,3.7,0.7c0.3,0.2,0.6,0.4,0.8,0.7
		c5.5,3.9,11.9,5.8,18.4,7.1c6,1.2,12.2,1.9,18.4,1.6c1.6-0.1,3.1-0.3,4.5-0.9c0.8-0.4,1.9-0.8,1.5-2c-0.3-1-1.4-0.9-2.2-0.8
		c-1.8,0.3-3.5,0.6-5.3,0.6c-8.3-0.2-16.6-0.7-24.6-3.5c-1.9-0.4-3.6-1.1-5-2.4c-3-3-6.6-5.3-9.1-8.8c-0.5-0.7-1.1-1.3-1.4-2
		c-0.3-0.7-0.4-1.4,0.4-1.8c0.6-0.4,1.1-0.1,1.6,0.3c1.4,1.1,2.3,2.7,4.1,3.3c5.6,3.3,11.3,6.5,17.8,7.8c6,1.2,12,1.4,18.1,0.9
		c1.6-0.1,3.6-0.4,3.2-2.4c-0.3-1.9-2.2-0.7-3.3-0.6c-10.9,0.5-21.4-0.4-30.4-7.5c-3.5-3.3-7.2-6.4-9.6-10.6c-0.5-0.9-1.3-2-0.3-2.8
		c1.4-1.1,1.7,0.7,2.3,1.3c2.2,2.2,4.2,4.4,7.2,5.6c6.5,3.5,13,6.9,20.6,7.5c2.7,0.2,5.5,0.2,8.2,0.3c1.1,0,2.1-0.4,2.9-1.1
		c0.6-0.6,1.1-1.3,0.8-2.2c-0.4-1.1-1.3-0.7-2.1-0.6c-5.3,0.5-10.5-0.4-15.6-1.6c-7.1-1.7-12.4-6.1-17.4-11.1
		c-2-3.2-4.7-6.1-5.5-9.9c-0.1-0.7-0.6-1.3-0.5-2c0.1-0.8-0.5-1.9,0.5-2.2c1.2-0.4,1.4,0.8,1.9,1.6c1.2,1.8,2.2,3.8,4,5.2
		c8,8.3,17.5,13.1,29.4,12.6c0.6,0,1.2,0.1,1.8-0.1c1.4-0.4,3.7-0.3,3.6-2.1c-0.1-2.4-2.5-1.1-3.7-1.1c-12.1-0.1-22.3-3.7-28.5-14.6
		c-1.9-3.9-3.7-7.9-4.1-12.4c-0.1-0.9-0.2-1.8,0.1-2.7c0.1-0.5,0.3-1.3,1.1-1.1c0.6,0.1,0.5,1,1,1.4c2.9,7.3,7,13.6,14.1,17.6
		c4.2,1.4,8.3,3.3,12.9,3.8c1.2,0.1,2.3,0.3,3.9-0.4c-3.7-2.6-8.2-2.5-11.5-5.1c-5.4-3.4-10.2-7.3-12.9-13.2
		c-2.4-4-2.4-8.3-2.2-12.7c0-0.7,0.5-1.4,1.3-1.4c0.8,0,1.2,0.6,1.4,1.3c1.4,5.9,4.8,10.8,9.1,15c4.8,4.6,10.7,6.9,17.4,7.8
		c-7.2-3.5-13.7-7.8-18.5-14.2c-3.8-6.1-5.3-12.4-2.3-19.3c0.2-0.4,0.5-0.8,1-1.7c0.4,2.3,0.6,4.1,1,5.8c2.8,11.4,10.7,18,21.5,22
		c1.5,0.5,2.2,0.1,2.8-1.2c0.8-1.6,0.5-2.6-1.2-3.3c-5.1-2.1-9-5.3-11.8-10.2c-1.9-3.3-2.2-6.5-2.1-10c0.1-7.5,4.3-13,8.8-18.6
		c5.2-6.4,11.4-11.9,16.8-18c7.1-8,10.7-17.1,12.4-27.6c1.6,1.2,1.9,2.7,2,4.1c0.4,4.9,0.2,9.6-1.6,14.3
		c-4.9,12.6-13.7,22.3-23.8,31.1c-5,4.3-7.4,9.5-7.1,16c0.2,4.1,5.9,11.2,9.9,12.3c2.9,0.8,8.5-2.7,8.7-5.6c0.1-1.8-0.6-3.6-2.4-4.3
		c-2-0.8-3.6,0.4-4.8,1.9c-0.4,0.5-0.3,1.8-1.6,1.4c-1.1-0.3-1.4-1.2-1.6-2.1c-0.3-1.5,0.2-2.8,1.1-3.9c1.9-2.3,4.7-3.8,7.4-3.5
		c3.3,0.4,6.3,2.5,7.6,5.8c1.6,4.1,1.3,8-2.5,11c-7.5,5.9-9.3,14.4-10.6,22.9c-3,20.1-0.7,39.5,10,57.4c7.3,12.3,18,21.3,30.5,28.4
		c0.6,0.4,1.3,0.6,1.9,1c5.2,3.7,10.7,4.7,16.9,2.7c2-0.7,4.2-0.6,6.4-0.9c2.3,3.7,1.6,6.7-2.3,8.4c-2.9,1.3-5.4,3.3-8.4,4.4
		c-2.7,0.5-5.3,1.1-7.8,2c-9.6,4.3-17,11.2-23.6,18.9c-1.5,1.8-2.4,2.4-4.4,0.5c-4.1-3.9-4.3-4.4-0.4-9c5.9-6.9,13.4-11.9,21-16.7
		c3.2-2,3.2-2.1-0.2-3.8c-8.4-4.3-16-9.7-22.4-16.6c-1.6-1.7-3.1-2-5.4-1.5c-15.9,3-31.4,2.5-46.1-4.7c-5.1-2.5-9.8-5.8-13.5-10.1
		C114.8,415.8,115,415.1,116.7,415.6z"/>
	<path class="st6" d="M231.2,429.5c-11.2-0.8-22.5-0.4-33.7-0.5c-2.8,0-4.5-0.7-5.8-3.3c-4.2-8.2-8.7-16.3-13.2-24.4
		c-1.1-1.9-0.9-3.2,0.4-5c20.7-29.6,41.3-59.3,61.8-89c1.4-2.1,2-2.6,3.7-0.1c9.3,13.8,18.8,27.5,28.3,41.2c0.4,0.5,1.3,0.6,1.4,1.5
		c10.6,15.5,21.2,30.9,31.9,46.3c1.5,2.1,1.7,3.6,0.4,5.9c-4.6,8.1-9.1,16.4-13.5,24.6c-0.9,1.8-2,2.5-4.1,2.5c-5,0-10-0.4-15,0.3
		c-0.6,0.6-1.3,0.4-2,0.4c-12.9,0-25.7,0-38.6,0C232.5,429.9,231.8,430.1,231.2,429.5z"/>
	<path class="st7" d="M217.7,457.5c3.2-1.7,6.1-4,9.7-5c1.7-0.5,1.3-2,1.3-3.2c0-1.3-0.1-2.5-0.1-3.8c0.2-0.5,0.4-1.1,0.6-1.6
		c0.5-1.6,1.1-3.2,3-3.5c1.7-0.2,2.2,1.5,3.4,2.7c0.7-1.3,1.1-2.8,2.8-3.2c2-0.5,2.5,1.4,3.6,2.3c2.9-3.4,3.7-3.3,6.4,0.7
		c1.1-1.2,2-3.1,4.1-2c1.7,0.9,1.7,3,2.8,4.3c0,5.7,0.1,5.5,5.6,7.9c3.2,1.4,6.2,3.4,9.2,5.2c3.2,1.1,5.8,3,7.5,5.9
		c5.3,5.6,11,11,13.4,19.6c-3.7-2-6.8-3.5-9.8-5.3c-1.6-1-2.4-0.8-3.2,0.9c-1.3,2.7-2.8,5.4-4.4,8.5c-3.1-8.3-5.4-16.6-11.3-23.2
		c-5,9.5-9.5,9.3-18.4-0.7c-8.7,9.3-12.2,9.7-19,1.6c-5.7,6.4-8.7,14-11.7,22.4c-1.6-3-3-5.4-4-7.9c-1-2.5-2.2-2.4-4.2-1.2
		c-2.7,1.7-5.5,3.1-8.6,4.4c3-9.2,10-15.6,16.6-22.3C213.9,459,215.8,458.2,217.7,457.5z"/>
	<path class="st8" d="M169.3,532.7c0,0.7,0,1.4,0,2.1c0.2,0.4,0-0.1,0.1,0.3c0.3,1.5,2.5,2.8,1,4.3c-1.5,1.4-3.4,0.3-5-0.4
		c-2.5-1.1-5-2.2-7.2-3.9c-2.3-1.8-2.2-2.7,0.5-3.9c1.5-0.7,1.7-1.4,0.6-2.6c-1.8-2.2-4.4-3.3-6.9-4.2c-2-0.7-3.2,0.6-2.6,2.6
		c0.3,0.9,0.9,1.8-0.1,2.5c-0.8,0.7-1.8,0.2-2.7-0.1c-2.1-0.8-4.2-1.7-5.9-3.2c-1.4-1.2-1.5-3,0.4-3.1c4-0.3,6.4-2.8,9.2-4.9
		c3.9-3,8-5.9,11.5-9.4c1.2-1.2,2.3-2.7,4.5-1.6c2.4,1.1,4,2.4,4.1,5.1c0.2,5.3,0,10.7-0.8,16C169.8,529.8,170.1,531.3,169.3,532.7z
		"/>
	<path class="st9" d="M344.4,356.1c2.4-1.7,5.1-3.1,7.3-5c7.4-6.1,9.6-14.1,8.3-23.2c-1.4-0.1-1.1,0.8-1.3,1.4
		c-3.7,13-13.1,20.1-25.7,23.9c-0.2,0.1-0.5,0.1-0.7,0.1c-1,0-2.4,0.6-2.8-0.7c-0.5-1.4,1.1-1.6,2-1.9c5.2-1.9,10-4.5,14.1-8.2
		c5.4-4.8,9-10.6,8.4-18.1c-0.2-2.5-0.9-4.8-2.5-7.6c-1.2,5.4-1.3,10.5-4.9,14.4c-0.6-2,1.1-3.5,1.6-5.2c0.7-2.5,1.4-4.8,1.3-7.4
		c-0.1-1.1,0.5-2.2,1.6-2.5c1.1-0.3,1.5,0.9,2,1.6c3,4.5,2.9,9.3,1,14.2c-0.3,0.7-0.5,1.3,0,2.2c2.6-1.3,3.1-3.8,4-6.1
		c0.2-0.7,0.4-1.4,1.2-1.5c1-0.2,1.3,0.7,1.7,1.4c1.3,2.3,2,4.5,0.3,7.1c-1.1,1.8-0.4,4.2-1.2,6.4c-2.8,7.6-8.5,12.2-15.7,15.6
		c-0.2-0.2-0.3-0.3-0.3-0.5C344.3,356.2,344.4,356.1,344.4,356.1z"/>
	<path class="st10" d="M187.1,205.3c0.6,2,1.3,4,1.9,6c0.4,1.4,0.3,2.9-1.1,3.7c-1.8,1.1-2.2-0.5-3-1.5c-0.7-0.9-1.4-1.6-2.7-0.8
		c-1.1,0.7-1,1.6-0.5,2.4c0.8,1.6,0.7,4.3,3.1,4.2c3.1-0.2,6.1-1.4,7.5-4.6c0.4-0.8,0.5-1.8,0.8-2.7c0.4-0.9,1-1.6,2.1-1.6
		c1.1,0,1.7,0.5,2.3,1.4c2.7,4.3,0.8,8.8-4.1,10.4c-5.8,1.8-11.4,4.1-17.1,6.2c-1.2,0.5-2.5,1.2-3.7,0.1c-1.2-1.1-0.6-2.3,0.2-3.4
		c0.9-1.2,0.5-2.4,0.1-3.7c-1.2-4.4-2.9-8.6-4.8-12.8c-0.6-1.4-1.2-2.8-3.2-2.9c-1,0-1.8-0.7-2-1.7c-0.2-1.2,0.6-2,1.6-2.5
		c1.3-0.6,2.6-1.1,4-1.6c5.1-1.9,10.3-3.6,15.2-6c1-0.5,2-0.7,3.1-0.5c1.8,0.6,2.9,2,3.7,3.6c0.7,1.4,0.9,3-0.1,4.3
		c-1.1,1.5-2.7,1.3-4.2,0.7c-2.1-0.9-4.2-0.9-6.2,0.1c-1.4,0.6-1.9,1.7-1.4,3.1c0.2,0.7,0.4,1.5,1.2,1.6c1,0.1,1.1-0.7,1.3-1.4
		c0.4-1.4,0.5-2.9,2.4-2.9C185.6,202.4,186.5,203.7,187.1,205.3z"/>
	<path class="st11" d="M121.7,392.6c1.2,1,2.6,1.7,4.1,2.2c9.7,3.8,19.8,4.4,30.1,3.5c1.2-0.1,3-0.5,3.3,1.1
		c0.4,1.6-1.4,2.1-2.5,2.4c-2,0.6-4.2,1-6.3,0.9c-11.2-0.6-22.2-1.7-32.3-7.1c-1.3-0.7-2.5-1.4-3.4-2.4l0,0
		c-2.2-0.8-3.6-3.3-6.4-2.8c-1.6-0.5-1.7-1.4-0.9-2.7c0.8-1.2,1.7-0.2,2.5,0.1c0.4,0.2,0.7,0.6,1.1,0.8c0.8,0.4,1.3,2.2,2.5,0.9
		c0.9-1,0-1.9-0.8-2.7c-2.3-2.4-3.8-5.3-5.4-8.1c-0.6-1-0.7-2-0.4-3c0.2-0.9,0.5-2.1,1.2-2.4c1.2-0.5,1.4,0.9,1.9,1.6
		c1.1,1.3,2.9,2.2,2.5,4.4c-2.2,0-2.6-2.1-3.5-3.1C110.2,383.6,115.7,388.3,121.7,392.6z"/>
	<path class="st12" d="M65.7,379.9c-2.6,0.5-6.4-1.4-9.3,2c-1.2,1.3-2.8,0.1-3.3-1.3c-1.6-4-1.7-8.2-0.3-12.3
		c0.7-2.2,2.4-2.3,4.2-0.8c2.8,2.4,13.6,3.2,16.6,1.2c1.9-1.3,2.2-3.3,1.9-5.3c-0.3-2-1.3-3.4-3.5-3.8c-4.3-0.8-8.6-0.6-12.9-0.6
		c-1.1,0-1.7,0.6-2.3,1.4c-1.8,2-3.1,1.7-4-0.8c-0.9-2.6-1-5.3,0-7.9c0.9-2.2,2.5-3,4.2-0.9c1.2,1.5,2.7,1.7,4.4,1.8
		c3.5,0.2,6.9,0.4,10.4,0.7c6.1,0.5,9.3,3.3,10.6,9c0.6,2.8,0.6,5.5,0,8.3c-1.4,6.6-4.8,9.3-11.7,9.3
		C69.3,379.9,67.9,379.9,65.7,379.9z"/>
	<path class="st13" d="M83.6,319.1c0.6-0.1,1-0.1,1.3-0.2c1.3-0.5,2.5-1.8,3.9-0.3c1.3,1.4,0.8,3.1,0.3,4.6
		c-0.4,1.3-1.1,2.6-1.7,3.8c-0.6,1.2-1.5,2.3-2.9,2.4c-1.6,0.1-2.1-1.2-2.5-2.5c-0.2-1-1-1.5-1.9-2c-4.2-2-8.5-3.7-13-5
		c-1.4-0.4-2.7-0.4-4.1,0.4c-2.2,1.3-4.1,0.3-3.6-2c0.8-4,1.7-8,6.3-9.8c3.7-1.5,7.3-3.4,10.9-5.2c0.7-0.3,1.8-0.6,1.5-1.6
		c-0.2-0.5-1-1-1.6-1.2c-1.8-0.7-3.5-1.6-5.7-0.3c-2,1.2-3.7-0.2-3.3-2.6c0.4-2.5,1.4-5,2.9-7.1c1.6-2.1,3.8-1.9,4.4,0.6
		c0.5,1.9,1.7,2.7,3.2,3.4c4.9,2.2,9.9,4.2,14.8,6.4c1.6,0.7,3.6,1.4,3.8,3.4c0.2,2.1-2,2.8-3.5,3.5c-4.5,2.2-9,4.3-13.5,6.4
		c-0.9,0.4-2.3,0.6-2.2,1.9c0.1,1.2,1.4,1.4,2.4,1.8C81.1,318.4,82.5,318.7,83.6,319.1z"/>
	<path class="st10" d="M213.9,524c3.7-0.6,7.4-0.2,10.9,1.1c1.4,0.5,2.8,1.3,2.4,3c-0.3,1.8-1.9,1.8-3.4,1.7
		c-1.3-0.2-2.6-0.2-3.8,0.4c-4.8,2.2-5.3,3.5-2.9,8c2.2,4,4.6,7.9,7.5,11.5c1,1.2,1.9,2.5,0.8,4.1c-1,1.5-2.5,0.8-3.9,0.7
		c-6.5-0.1-10.8-2.9-12.6-9.1c-0.4-1.3-1-2.6-2.7-3.6c-1.1,1.7-1.3,3.1-0.2,5c1.4,2.4,0.4,4.1-2.5,4.1c-3.5,0-6.9-0.6-10.1-2
		c-2.4-1.1-3.1-2.7-0.6-4.4c1.4-1,2-2.3,2.3-3.8c0.9-4,1.8-8,2.5-11.9c0.2-1.2,0.3-2.4-0.5-3.7c-1.7-2.8-0.9-4.3,2.5-4.3
		c3.8-0.1,7.6,0.5,11,2.6c1.4,1.3,0.7,2.5-0.1,3.7c-0.7,1-1.8,1.8-2,3.8c1.9-0.8,3-2,3.4-3.7C212.3,525.9,212.3,524.6,213.9,524z"/>
	<path class="st14" d="M373.8,391c-8.8,6.8-19.2,9.3-30.1,10.6c-4.9,0.6-9.7,0.8-14.6-0.2c-1-0.2-2.4-0.4-2.3-1.7
		c0.1-1.6,1.6-0.9,2.6-0.9c6.8,0.4,13.6,0.4,20.3-0.8c8-1.3,14.9-4.7,20.7-10.3c1.3-2.1,3-3.7,4.9-5.2c0.1,0.8,0.1,1.6-0.5,2.3
		c-2.3,2.2-0.8,3,1.4,3.5C376.4,390.1,375,390.5,373.8,391z"/>
	<path class="st15" d="M277.8,538.3c-0.4-2.3-1.1-5.8-1.8-9.3c-0.3-1.4-1.1-2.1-2.5-2.7c-2.3-0.9-1.6-2.4-0.2-3.4
		c2.8-1.8,6-2.4,9.3-1.8c1.8,0.3,2.5,1.9,1.4,3.1c-2.2,2.3-1.2,4.8-1,7.3c0.3,3.1,0.8,6.2,1.2,9.3c0.1,0.8,0.1,1.6,0,2.4
		c-0.5,5.5-6.5,9.5-15,9.9c-6.1,0.3-10.5-2.7-11.7-8.1c-0.6-3-1.2-5.9-1.8-8.9c-0.4-2-0.7-4-3.1-5.1c-1.8-0.9-1.4-2.6,0.1-3.7
		c3.6-2.5,7.9-3.3,12.2-3.1c2.1,0.1,3.4,1.8,1.8,3.7c-1.7,1.9-1.4,3.8-1,5.9c0.5,2.5,0.9,5,1.6,7.5c0.8,3,2.6,4.7,6,3.9
		C277,544.6,278,543.3,277.8,538.3z"/>
	<path class="st16" d="M366.3,475.4c-0.3,1.9,0.9,3.1,1.9,4.2c3.1,3.4,6.3,6.7,9.4,10c1,1.1,2,2.3,2.8,3.6c1.2,2,0.7,3.3-1.7,3.8
		c-3.5,0.7-7.1,0.5-10.7,0.6c-2.6,0.1-5.3,0.2-7.9,0.3c-2.3,0.1-2.4,1.2-1.1,2.6c1.7,1.9,3.2,3.9,6.4,3.7c2.8-0.2,2.8,1.8,1.9,3.6
		c-0.9,1.9-2.6,3.3-4.3,4.6c-1.1,0.8-2.4,1.7-3.9,1.1c-1.7-0.7-1.1-2.1-1.1-3.3c0.1-1.3-0.7-2.2-1.5-3c-2.7-2.8-5.4-5.6-8.2-8.3
		c-1.4-1.4-2.9-2.5-5.4-1.9c-2.1,0.5-3.2-1.3-2.1-3.1c2.1-3.3,4.4-6.6,9.3-6.6c3.9,0,7.9-0.3,11.8-0.4c1.1,0,2.4,0.2,3-0.8
		c0.6-1.2-0.8-1.8-1.4-2.5c-1.2-1.3-2.2-2.5-4.5-1.9c-2,0.5-3.3-1.6-2.1-3.4c1.5-2.4,3.6-4.4,6.1-5.8
		C365.1,471.2,366.4,472.5,366.3,475.4z"/>
	<path class="st17" d="M312.6,223.2c-6.9,5.3-18.8,3.8-23.8-3.2c-2.4-3.4-1-6.8,1.1-10c2.6-1.3,3.4,0.6,4.2,2.3
		c0.7,1.6,1.1,3.3,2.5,4.6c0.9,0.8,1.8,1.9,3.7,1.3c-0.8-2-2.6-3-4-4.3c-4.2-3.8-5.1-9-2.5-13.7c4.5-4.8,10.1-5.7,16.4-2.4
		c1.7,0.9,3.3,1.7,5.1,2.3c3.5,1.1,4.3,5.7,1.9,9.7c-2.4,1.6-4.2,0.6-5.6-1.5c-1.2-1.7-2-3.7-4.9-4.3c0.5,2.2,2.2,3.1,3.5,4.2
		c1.3,1.1,3,2,3.4,3.9l0,0C316.2,216.6,316,219.2,312.6,223.2z"/>
	<path class="st18" d="M408.5,372c-7.6-4.1-10.8-14.1-7-21.8c1.2-2.5,6.3-4.7,9-3.8c2.1,0.7,2,2.1,0.9,3.5c-0.7,0.9-1.8,1.6-2.6,2.4
		c-1.7,1.8-2.8,3.8-2.3,6.3c0.2,0.9,0.6,1.9,1.7,2c0.9,0.1,1.4-0.8,1.7-1.6c0.6-1.9,1.1-3.8,1.8-5.7c2-5.1,5.5-7.7,10.1-7.5
		c4.4,0.2,7.8,3.4,9.2,8.5c1.2,3.9,0.8,8,0.3,11.8c-0.4,3.3-4,4.6-7.5,4.6c-2.8-2.1-3-3.2-1.3-6.1c1-1.6,2.5-3.1,1.6-5.6
		c-2.2,1.4-1.9,3.5-2.3,5.1c-1.3,4.5-4,7.6-8.9,8.5C411.3,373,409.8,373.1,408.5,372z"/>
	<path class="st19" d="M226.2,187c7.7-1.8,15.6-2.3,23.2-0.2c6.4,1.8,6.5,8.3,0.2,13.3c4.2,1.1,5.7,4,6.2,7.8
		c0.2,1.2,0.6,2.1,1.8,2.8c2.2,1.3,1.3,2.7-0.3,3.8c-4.9,3.2-11.6,0.8-13.3-4.7c-0.6-1.9-0.9-3.9-2-5.6c-0.4-0.7-1.1-1.3-2.1-1.1
		c-1.2,0.2-0.9,1.2-0.9,2c0.1,2.1-0.4,4.3,1.8,6.1c2,1.7,0.7,3.3-1.4,3.7c-3.8,0.7-7.6,0.7-11.4,0c-2.6-0.5-2.8-2.2-0.7-4.5
		c1.9-5.7,0.6-11.6,1-17.5c0.1-1.2-0.8-1.8-1.7-2.4C225.3,189.4,225.1,188.3,226.2,187z"/>
	<path class="st20" d="M346.7,431.1c2.4-2.6,6.2-2.4,9-4.3c3.8-2.6,8.6-3.9,11.7-8.6c-4.8,1.3-8.3,3.7-12.4,4.9
		c-6.5,1.8-13.1,3.1-20,3.1c-0.9,0-1.9,0.1-2.8,0.3c-4.9,1.5-9.3-1.1-14-1.4c-1.1-0.1-2.7-1.3-2.2-3.1c0.4-1.6,0.9-3.3,3-3.5
		c1.4-0.1,2.9-0.1,4.3,0.2c9,1.9,18,1.7,26.9,0c2.4-0.5,4.5-2.2,7.1-1.7c-4.1,2.2-8.6,3.4-13.2,3.6c-7.5,0.3-15.1,0.3-22.5-0.8
		c-0.8-0.1-1.7-0.2-2.5-0.2c-1.1,0-1.8,0.6-1.9,1.7c-0.2,1.1-0.1,2.2,1.2,2.5c1.4,0.4,2.8,0.7,4.2,0.8c18.6,2,36.1-1,51.6-13.1
		C372.4,418.5,358.7,428.2,346.7,431.1z"/>
	<path class="st21" d="M139.8,229.2c-0.4-1.9-0.7-3.8-1.2-5.7c-0.2-0.9-0.4-1.7-1.7-2c-3.4-0.6-2.6-2.4-1.1-4.2
		c1.6-1.9,3.8-3.2,6.2-4c1.1-0.4,2.1-0.2,2.9,0.7c0.7,0.9,0.7,1.7,0,2.5c-1.3,1.6-0.7,3.3-0.4,5c1.1,6.4,3,12.7,3.3,19.3
		c0.3,5.9-1.7,7.1-7,4.1c-5.3-3.1-10.4-6.7-15.6-10c-1.4-0.9-2.6-2-4.5-1.7c-3,0.3-3.4-1.7-2.3-3.5c2.3-3.7,6.1-5.9,10.3-7
		c1.4-0.4,2.6,0.6,2.8,2.1c0.2,0.9-0.8,2,0.6,2.7c2.1,1.3,4.1,3,6.4,3.9C140.5,232.1,139.5,230.1,139.8,229.2z"/>
	<path class="st22" d="M388.4,306.5c-3-2-3.7-5.1-3.7-8.4c0-2,1.5-2.8,3.2-1.5c2.2,1.8,4.8,2,7.4,2c5.9,0.1,11.7,0,17.6,0
		c1.8,0,3.9-0.9,5,1.4c1.1,2.2,1.4,4.4,0.2,6.7c-1.3,2.4-3.2,4.3-5.1,6.3c-3,3.1-6.2,6.2-9.2,9.3c-1.2,1.2-2.3,2.5-2.7,4.4
		c-0.5,2.5-2.4,2.9-4.1,0.9c-3-3.6-4.6-7.9-5.3-12.4c-0.4-2.5,1.4-3,5.3-1.2c0.6-3.4-0.9-6.2-2.6-8.8c-1.1-1.6-2.2-1.1-2.3,0.9
		c-0.1,1.1-0.7,1.8-1.8,1.8C389.2,308,388.2,307.8,388.4,306.5c0.7-0.6,1.4-1.2,2-2c2.1-2.7,4.2-2.6,6.1,0.3c1,1.6,1.7,3.4,2.2,5.1
		c1.1,3.6,0.5,4.8-3.4,5.5c-1.4,0.3-1.4,0.9-1.2,1.9c0.3,1,0.6,2,1,3c0.8,1.7,1,4.3,2.7,4.7c2.3,0.6,2.3-2.3,3.6-3.5
		c3-3,6.1-5.9,9.1-8.9c2-2,3.8-4.2,5.4-6.5c0.9-1.4,1.1-2.8,0.3-4.3c-0.9-1.6-2.4-1.1-3.8-1c-4.3,0.4-8.6,0.6-12.9-0.1
		c-4.1-0.7-8.4,0.4-12.3-1.8C386.2,301.9,389.6,303.8,388.4,306.5z"/>
	<path class="st17" d="M314.3,540.9c-2.3-0.1-3.7-1.1-2.3-3.1c1.8-2.5,1.5-5.1,1.2-7.7c-0.6-6.2-0.8-12.5-2.1-18.7
		c-0.7-3.2,2.4-3.6,4.6-4.2c2.2-0.6,4.2,0.5,6,1.7c4.8,3.1,9.3,6.6,13.7,10.1c1.8,1.4,3.5,2.9,6.2,3.1c2.6,0.2,2.7,2.2,1.1,3.8
		c-3.4,3.3-7.5,5.4-12.1,6.5c-2.2,0.5-3.6-0.7-2.4-3.1c1.1-2.3-0.3-2.1-1.8-1.8c-2.2,0.6-4.2,1.6-6.1,2.9c-0.6,0.4-1.1,0.9-1,1.7
		c0.2,0.9,1,0.7,1.7,0.9c2.6,0.6,3.1,2,1.2,3.8C320,539,317.3,540.3,314.3,540.9z"/>
	<path class="st23" d="M169.3,532.7c0.3-6.2,0.6-12.3,0.8-18.5c0.1-2.3-0.2-4.7-2.6-6.1c-1.6-1-2.8-1.2-4.3,0.4
		c-4.7,4.9-10.3,8.7-15.6,12.8c-1.6,1.2-3.2,2.5-5.5,2.1c-0.6-0.1-1.2,0.1-1.5,0.7c-0.3,0.8,0.3,1.4,0.9,1.7
		c1.4,0.9,2.8,1.7,4.3,2.4c1.1,0.5,2.4,1.6,3.6,0.7c1.3-1-0.5-1.7-0.6-2.7c-0.2-2.1,1.1-2.9,2.8-2.5c3.2,0.7,6.1,2.2,8.3,4.6
		c1.4,1.4,1,2.8-1.1,3.3c-0.8,0.2-1.8-0.2-2,0.9c-0.1,0.9,0.6,1.4,1.3,1.9c2.9,1.9,5.9,3.6,9.2,4.7c0.9,0.3,2,0.6,2.8-0.1
		c1.1-1-0.3-1.6-0.6-2.3c-0.3-0.7-0.3-1.3-0.2-2c1.2,0.2,1,1.5,1.6,2.1c0.7,0.9,1.2,1.8,0.3,2.8c-0.7,0.9-1.8,1.1-2.9,0.8
		c-4.3-1.2-8.2-3.1-11.6-6c-2.1-1.7-1.6-3.1,1-3.8c0.7-0.2,1.6-0.1,1.6-0.9c0-0.6-0.6-1.2-1.1-1.7c-1.8-1.4-3.8-2.4-5.9-3.2
		c-0.7-0.3-1.4-0.4-2,0.2c-0.7,0.7-0.1,1.2,0.2,1.8c1,2.3,0.1,3.6-2.5,3.2c-3.1-0.6-5.9-2-8-4.3c-1.6-1.7-0.9-3.4,1.6-3.4
		c2,0,3.5-0.8,4.9-1.8c5.2-3.9,10.6-7.6,15.1-12.2c2.2-2.2,4.1-2.9,6.8-1.3c2.5,1.4,3.6,3.6,3.3,6.4c-0.3,3.4,0.5,6.9-0.4,10.3
		c-0.8,1.9-0.4,4-0.7,6C170.4,530.9,170.9,532.2,169.3,532.7z"/>
	<path class="st24" d="M414.6,425.2c0.1,3-2.2,4.3-5.1,2.8c-2.3-1.3-4.1-1.6-6.4-0.1c-1.3,0.8-3,1-4.3-0.3c-1.3-1.3-1.1-2.9-0.2-4.2
		c1.3-1.9,1.6-3.7,0.1-5.7c-1-1.4-1.3-3.1,0.1-4.5c1.5-1.4,3.2-1,4.6,0c2,1.2,3.6,1.2,5.6,0c1.4-0.9,3.1-1.5,4.6-0.1
		c1.7,1.5,1.2,3.3,0.1,4.8c-1.3,1.9-1.3,3.5,0.1,5.4C414.3,423.8,414.5,424.7,414.6,425.2z"/>
	<path class="st25" d="M83.6,428.5c-0.5-0.1-1.3-0.2-1.8-0.6c-2-1.5-3.9-1.6-6.1-0.2c-1.3,0.8-3,1.1-4.3-0.1
		c-1.4-1.3-1.2-3.1-0.3-4.5c1.2-1.9,1.4-3.5,0.1-5.4c-1-1.4-1.3-3.1,0-4.5c1.4-1.4,3.2-1.1,4.6-0.2c2.1,1.4,3.8,1.2,5.8-0.1
		c1.4-0.9,3.2-1.3,4.6,0.2c1.4,1.4,1.1,3.2,0.1,4.5c-1.6,2-1,3.6,0.1,5.7C88,426.4,86.7,428.7,83.6,428.5z"/>
	<path class="st26" d="M126,478.6c5.2,3.7,10.5,7.5,13.9,13c2.1,3.4,1.5,6.5-1.3,9.6c-3,3.3-6.8,4.3-10.6,2.9
		c-1.9-0.7-3.6-1.8-5.1-3.1c-0.8-0.6-1.2-2.5-2.7-1.5c-1.3,0.9-2.6,2-2.6,3.9c0,3.5-1.5,4.5-4.4,2.6c-3.1-2-5.9-4.4-7.7-7.6
		c-1.5-2.5-0.5-4.2,2.4-3.9c1.6,0.2,2.5-0.4,3.5-1.3c3.2-3.1,6.4-6.2,9.6-9.4c1-1,1.9-2.1,1.1-3.7c-0.6-1.2-0.6-2.5,0.9-2.9
		C124.3,476.6,125.7,476.8,126,478.6c-0.4,0.5-1.3,0.6-1.5,1.4c-2.7,7.8-8.6,12.7-15.9,16.2c-1.3,0.6-1.3,1.2-0.6,2.1
		c1.6,2,3.5,3.8,5.6,5.4c1.4,1.1,2.2,0.6,2.4-1c0.1-1.3,0.7-2.4,1.7-3.4c2.3-2.5,3.3-2.6,5.9-0.3c1.5,1.3,3.2,2.5,5.1,3.1
		c3.2,1.1,6.7,0,8.9-2.8c1.8-2.4,1.7-5.3-0.1-8.1c-2.4-3.6-6.3-5.7-9.1-8.9C127.3,481.1,125.7,480.4,126,478.6z"/>
	<path class="st27" d="M251.8,279c-3,2.3-5.6,5.2-9,7.2l-0.1,0c-3.2-1.9-5.3-5-8.2-7.2c-0.3-0.4-0.5-0.8-0.1-1.2
		c3.6-3.9,13.6-3.6,17.2,0.5C251.9,278.5,251.8,278.8,251.8,279z"/>
	<path class="st28" d="M135.5,337.8c5.1,5.7,11.1,10.2,18.5,12.8c1,0.4,2.8,0.6,2.1,2.1c-0.5,1.3-2.2,0.8-3.2,0.5
		c-9-2.4-16.6-7-21.9-14.7c-2.1-3.1-3.3-6.6-4.8-11.1c-1.9,5.7-0.5,10.2,0.7,14.7c-2.7-2.6-4.1-11.1-2.4-14.3
		c0.4-0.7,0.8-1.6,1.8-1.4c1.1,0.2,1.8,1.1,1.9,2.2c0.4,4.6,2.6,8.4,5.6,11.6c3.5,3.8,7,8,12.9,8.9c-3.1-2.6-6.4-5-9.1-8
		C136.7,340.2,135.3,339.5,135.5,337.8z"/>
	<path class="st29" d="M394.7,261.1c0.6,0.7,1.2,1.4,1.9,2.1c3.6,3.5,3.4,7.5-0.6,10.4c-1.2,0.9-2.5,1.4-4,0.7
		c-1.5-0.8-2-2.2-1.7-3.9c0.2-0.9,0.6-1.8,0.8-2.7c0.1-0.5,0.3-1.2-0.4-1.5c-0.4-0.1-1,0.1-1.3,0.3c-3.8,2.9-7.5,5.7-11.2,8.7
		c-1,0.8-1.1,1.8-1,3.1c0.3,2.7-1.4,3.8-3.6,2.4c-4-2.5-6.9-6.1-8.7-10.3c-1.1-2.6,0.3-3.9,3.2-3.2c0.6,0.1,1.3,0.5,1.7,0.3
		c5.3-2.6,10.4-5.4,13.5-10.6c-0.2-0.3-0.2-0.6,0.1-0.8c2.5,0.5,2.1,2.2,0.9,3.3c-4.7,4.2-8.8,9.4-15.8,10c-1.5,0.1-1.6,0.9-1.1,1.8
		c1.4,2.6,3.3,4.9,5.6,6.8c1,0.9,2.1,0.9,2.3-0.7c0.2-2.6,2-4,3.9-5.5c2.6-2.1,5.3-3.9,7.9-6c1.3-1,2.7-2.2,4.5-1.2
		c1.9,1.1,1.8,2.8,1.2,4.6c-0.4,1-0.7,2.2,0.5,2.8c1.2,0.5,2-0.4,2.7-1.3c1.4-1.9,1.9-3.7-0.1-5.6c-1.1-1-2.5-2-2-3.8
		C394,260.9,394.3,260.8,394.7,261.1z"/>
	<path class="st30" d="M98.8,251.2c0.9,0,2.1,0.5,2,1.7c-0.2,3,2,4.3,3.9,5.8c2.4,2.1,4.9,4,7.4,6c1.4,1.1,2.7,1.9,4.8,1.5
		c2.4-0.5,3.3,1.3,2.5,3.3c-1.6,3.8-4.2,7-7.9,9.2c-2.2,1.3-3.9,0.5-3.9-2c0.1-2.1-1-3.2-2.4-4.4c-2.7-2.2-5.5-4.4-8.2-6.7
		c-1.5-1.2-3-2.2-5.2-1.6c-1.4,0.4-2.3-0.2-2.6-1.6C88.9,259.6,95.7,251.4,98.8,251.2z"/>
	<path class="st31" d="M344.2,249.3c-3.9,0-11.5-5.9-12-8.7c-0.3-1.5,0.2-2.8,1.9-2.7c2.8,0.2,4.1-1.4,5.6-3.2
		c2.2-2.6,4.3-5.3,6.5-7.9c1.1-1.2,1.6-2.5,1.3-4.2c-0.5-2.7,1.1-3.6,3.3-2.8c3.9,1.4,7.1,3.9,9.5,7.2c1.3,1.7,0.7,3.5-1.4,3.6
		c-2.5,0.2-3.8,1.7-5.2,3.3c-2.1,2.5-4.2,5.1-6.3,7.6c-1.2,1.5-2.3,2.8-1.6,5C346.2,248.3,345.1,249.2,344.2,249.3z"/>
	<path class="st32" d="M187.1,205.3c-0.6-0.7-1.2-1.6-1.9-2c-1.8-1-3.3-0.9-3.2,1.6c0.1,1.5,0.5,3.2-1.7,3.5
		c-2.1,0.3-1.9-1.7-2.4-2.8c-0.7-1.5-1.4-3.1,0.9-4c2.5-1,5.1-2.2,7.8-0.5c1.2,0.7,2.4,1.2,3.6,0.1c1.1-1,0.8-2.3,0.3-3.6
		c-0.8-1.7-1.8-3.2-3.4-4.3c2.7,0.3,4.2,2,4.5,4.4c0.3,2.3,0.3,4.7-2.9,5.4C187.4,203.4,187.2,204.4,187.1,205.3z"/>
	<path class="st33" d="M232.3,268.2c5.5-3.5,11.5-3.2,17.6-1.8c3.1,0.7,6.5,1.1,8.3,4.2c-0.7,0.8-1.6,0.4-2.4,0.3
		c-1.2-1.6-2.8-0.3-4.2-0.7c-0.4-1.7-1.8-1.2-2.9-1.4c-0.7-0.3-1.5-1.5-2-0.4c-0.5,1.1-1.6,2.8,0.7,3.7c0.8,0.4,1.4,1.1,2.3,1.3
		c1,0.6,2-0.6,3,0.2c0,0.9-0.2,1.9,0.9,2.5c-0.1,0.8-0.5,1.2-1.2,1.5c-0.9,0.2-1.7-0.1-2.4-0.5c-3.8-2.2-7.8-2.1-11.9-1.4
		c-0.3-0.1-0.6-0.3-0.8-0.6c-0.1-0.3-0.2-0.6-0.1-0.9c0.3-0.8,1.5-0.5,1.7-1.3c0.2-0.2,0.5-0.3,0.7-0.5c0.7-1.7,1.9-3.6-1.2-4.4
		c-0.3,0.1-0.6,0.1-0.9,0.2c-1.1,0.1-2,0.7-2.7,1.5C233.4,269.8,233,268.9,232.3,268.2z"/>
	<path class="st34" d="M200.3,349.8c1-2.5,1-4.3-2.6-4.8c3-1,3.9-2.4,2.2-5.1c2.5,0.5,4.8,1.6,4.8-3.1c1.6,3.1,2.7,4.9,6.1,2.4
		c-1.6,3.1-1.2,4.7,2,5.3c-2.5,1.2-4.2,2.4-1.9,5.8c-3.3-2-4.7-1-5.5,1.8C204.3,349.6,203,348.2,200.3,349.8z"/>
	<path class="st35" d="M206.5,336.3c-3-1.9-4.5-1.3-5.1,2.5c-1.1-3.3-2.3-4.6-5.3-2.6c1-2.6,1.2-4.5-2.3-5c2.3-1.4,4.6-2.3,2.1-5
		c3.6,0.6,3.6,0.6,5.3-1.9c1.9,2.5,1.9,2.5,5.1,1.8c-0.8,2-1.1,3.9,2.6,4.6C205.5,331.8,205.2,333.6,206.5,336.3z"/>
	<path class="st36" d="M274,349.9c-0.7-0.3-1.2-0.7-1.4-1.5c3.7-1.8,0.3-2.4-0.9-3.6c1.7-1,3.6-2.1,1.3-5c2.7,0.9,4.7,1.2,5.3-2.5
		c1.2,2.9,2.5,4.2,5.7,2c-1.9,3.1-1.1,4.5,1.8,5.3c-2.5,1.1-4.4,2.1-2,5.1c-2.9-1.3-4.5-0.8-5.1,2.3
		C277.6,349.7,276.4,348.1,274,349.9z"/>
	<path class="st37" d="M230.3,300.2c-2.6-1.2-4-0.6-4.6,2.4c-1.2-2.5-2.6-3.8-5.8-1.7c1.8-3,1.2-4.5-1.9-5.3c2.5-1.1,4.2-2.3,2.1-5
		c2.8,1.2,4.4,0.8,5.2-2.4c1.1,2.5,2.2,4.2,5.3,1.9c-1.2,2.9-1.1,4.7,2.8,5.4C230,296.3,228.9,297.6,230.3,300.2z"/>
	<path class="st38" d="M217.3,299.1c-1.5,2.7-0.5,4.1,3.3,4.8c-3.9,0.8-4.6,2.3-2.8,5.2c-2.9-1.4-4.6-1.1-5.3,2.1
		c-1.2-2.3-2.1-4.6-5.1-2c1-2.7,1.1-4.5-2.5-4.9c2.7-1.2,4.2-2.5,1.8-5.9c3.3,2,4.8,1.3,5.7-1.7
		C213.3,299.6,214.7,300.6,217.3,299.1z"/>
	<path class="st39" d="M258.6,302.8c-1.1-2.7-2.4-4-5.4-2c1.2-2.7,1.4-4.5-2.1-5.2c2.6-1.2,3.9-2.4,1.9-5.1c2.5,0.5,4.9,1.9,5.1-2.1
		c1.3,2.5,2.7,3.7,5.9,1.7c-1.9,3.1-1,4.5,2.1,5.5c-3.1,0.8-4.2,2.1-2.1,4.9C261.1,299.3,259.3,299.5,258.6,302.8z"/>
	<path class="st40" d="M277.2,336.4c1.4-3,1.7-4.9-2-5.2c2.7-1.1,4-2.5,1.9-5.6c3.2,1.8,4.6,1.1,5.3-1.8c1.2,2.3,2.3,4.1,5.3,1.8
		c-1,2.6-1.2,4.5,2.2,5.1c-2.6,1.2-3.9,2.6-1.7,5.5c-2.9-1.3-4.8-1.5-5.4,2.2C281.6,335.5,280.3,334.1,277.2,336.4z"/>
	<path class="st41" d="M208,317.6c0.4,1,0.8,2.1,1.4,3.7c-2.6-1.4-4.3-1.2-5.1,2.2c-1.1-2.8-2.4-4.1-5.6-1.9
		c1.7-3.1,1.2-4.7-2.2-5.4c2.9-1,4.3-2.3,2.1-5.3c3,1.5,4.7,1,5.5-2.3c0.9,3,2.4,4,5.1,2.2c-0.6,2.3-1.7,4.6,2,4.7
		C210.1,317.1,209,317.5,208,317.6c-0.8-0.6-0.9-1.6-1.3-2.4c-0.9-1.4-2.1-1.9-3.6-1.1c-1.4,0.7-1.6,2-0.9,3.3
		c0.7,1.4,1.9,1.5,3.3,1C206.2,318.1,206.9,317.2,208,317.6z"/>
	<path class="st42" d="M284.6,311.4c-1.2,2.4-0.4,3.8,2.5,4.7c-3,1-3.7,2.5-2,5.1c-2.7-1-4.9-1.7-5.2,2.1c-1.1-2.8-2.6-3.7-5.6-1.9
		c1.5-2.9,1.6-4.7-2-5.1c2.7-1.1,4.1-2.3,1.9-5.3c2.9,1.3,4.7,1,5.4-2.3C280.6,311.5,281.8,312.9,284.6,311.4z"/>
	<path class="st43" d="M266.4,309c1-2.6,1.2-4.5-3-4.8c3.6-1.2,4.7-2.5,2.6-5.5c2.9,1.4,4.8,1.3,5.4-2.1c1.2,2.5,2.1,4.7,5.3,2.1
		c-1.3,2.7-1.2,4.4,2.4,5.1c-2.7,1.1-4.5,2.2-2.4,5.1c-2.9-1.5-4.3-0.5-5.2,2.4C270.7,308.2,269.2,307.5,266.4,309z"/>
	<path class="st44" d="M408.5,372c7.8,0.8,10.8-1.4,12.5-8.9c0.3-1.5,0.7-2.9,1.2-4.3c0.3-0.8,0.8-1.5,1.8-1.3
		c1.1,0.2,1.5,1.1,1.5,2c0.1,2.1-0.9,3.8-2.2,5.3c-1.8,2.1-2.2,4.1,0.4,5.9c-2.6-2.1-4.3-0.8-6.8,0.8
		C414.7,373,411.4,375.4,408.5,372z"/>
	<path class="st45" d="M293.8,200.3c-2.2,5.7-1.4,9,3.1,13.1c1.3,1.2,2.7,2.3,4,3.5c0.5,0.5,1.4,1.1,0.8,2.1c-0.6,1-1.6,1-2.5,0.7
		c-3.1-0.8-4.6-3.1-5.5-5.9c-0.6-1.9-1-3.9-3.8-3.7c2.5-1.1,2.1-3.2,2.1-5.3C292,203.1,291.7,201.2,293.8,200.3z"/>
	<path class="st46" d="M231.2,429.5c14.2,0,28.4,0,42.6,0c5.1,0,10.2,0,15.3,0c0,0.2,0,0.4,0,0.6c-22.5,0-45,0-67.5,0
		c0-0.2,0-0.4,0-0.6C224.8,429.5,228,429.5,231.2,429.5z"/>
	<path class="st47" d="M122,375.6c-3.6,0.2-4.8-2.9-7-4.6c-0.8-0.6-1-1.7-2.8-2.2c1,3.3,2.9,5.4,4.7,7.5c1.7,2,4.2,3.4,5.4,5.9
		c-7.4-4.3-12.8-12.9-11.7-19.4C113.7,368.2,117.6,372.1,122,375.6z"/>
	<path class="st48" d="M375.3,382.6c-1.7,1.7-2.8,3.9-4.9,5.1c0.5-3,4.2-4.3,4.3-7.9c-2.6,2.2-5.1,4.3-7.6,6.2c-2,1.6-4.1,3.2-7,2.8
		c6.7-3.6,12.9-7.8,17.1-14.7C377.6,377.4,377.6,377.4,375.3,382.6z"/>
	<path class="st49" d="M358.9,416.3c2.2-1.7,4.5-3.3,6.6-5c1.8-1.4,3.7-2.7,4.8-5.3c-3.2,0.6-4.8,3.8-8,3.3
		c4.2-2.7,8.4-5.5,12.6-8.2C371.3,407.9,366.5,413.5,358.9,416.3z"/>
	<path class="st50" d="M383.4,255.8c-0.1,0.3-0.1,0.7-0.2,1c-1.4-0.8-2.8-0.3-4.2-0.3c-1.7,0-3.2-0.4-3.6-2.2
		c-0.5-1.8,0.7-2.9,2.1-3.7c4.2-2.5,7.7-1.8,10.6,2.1c2.1,2.8,4.4,5.5,6.6,8.2c-0.3,0-0.7,0.1-1,0.1c-3.7-1.3-5-4.8-7.3-7.4
		c-2.1-2.4-4.6-3.1-7.2-1.6c-0.6,0.3-1.4,0.7-1.3,1.5c0.1,0.9,1,0.8,1.7,0.9C380.9,254.8,382.5,254.2,383.4,255.8z"/>
	<path class="st51" d="M121.7,392.6c-7.3-3.8-12.2-9.3-14.1-17.8c2.5,1.2,2.9,3.5,4.7,4.6c1.5,1.6,3.1,3.1,4.6,4.7
		c-2.6,0.4-3.1-3-5.9-3.1c2.1,4,5.1,6.7,8.2,9.3C120.2,390.9,121.3,391.4,121.7,392.6z"/>
	<path class="st52" d="M313.4,212.2c-2.4-2-4.9-4-7.3-6.1c-0.8-0.7-1.7-1.6-0.8-2.7c0.8-0.9,2-0.6,3-0.1c1.8,0.9,2.8,2.5,3.6,4.1
		c1.1,2.2,2.6,3.2,5.1,2.3C316.5,211.5,314.4,211,313.4,212.2z"/>
	<path class="st53" d="M139.8,355.3c3.8,1.3,7.5,3,11.5,3.7c0.8,0.1,2.2,0.3,1.9,1.6c-0.2,1-1.5,1.1-2.4,1
		c-5.8-0.2-11.2-1.8-16.2-4.7c1.3-0.2,2.5,0.1,3.7,0.7c3.4,1.8,7.2,2,11.9,2.9C146.3,357.9,142,358.5,139.8,355.3z"/>
	<path class="st54" d="M119.8,359.5c-2.8-1.2-3.7-4-5.5-6.2c0,3.1,0.9,6.1,2.5,8.8c0.9,1.6,2.7,2.7,2.7,4.7
		c-5.6-5.2-7.5-11.2-6-19.4C115.2,352.2,117.5,355.9,119.8,359.5z"/>
	<path class="st55" d="M237.5,275.2c5.4-1.9,10.2,0,15.1,2c0.2,0,0.3,0,0.5,0c0.6,0,1.2,0.2,1.6,0.7c-0.8,0.9-1.9,0.9-2.9,1.2
		c-6.2-4.2-13.1-4.2-17.2,0c-0.8,0-1.2-0.6-1.5-1.2C233.9,275.9,235.5,275.1,237.5,275.2z"/>
	<path class="st56" d="M213.9,524c-1.5,2.2-0.5,5.6-3.6,7.1c-0.8,0.4-1.5,1.5-2.4,0.9c-1.1-0.7-0.4-1.8-0.1-2.8
		c0.3-0.9,0.7-1.7,1.6-2.2c1.8-0.8,1.9-2.2,1.3-3.7C211.7,523.6,212.8,523.8,213.9,524z"/>
	<path class="st57" d="M121.9,408.5c-2.6,0.7-3.8-2.3-6.5-2.4c0.9,2.8,4,3.7,4.8,6.3c-3.9-2.3-7.9-7-10-11.8
		C114.5,403.4,118.2,406,121.9,408.5z"/>
	<path class="st58" d="M242.8,286.2C242.8,286.2,242.8,286.2,242.8,286.2c0.5,1.1,0.9,2.2,1.2,3.3c0.2,0.2,0.2,0.4,0.2,0.6
		c0,0.2-0.1,0.3-0.1,0.3c-0.6,0.6-1.5,0.5-2.3,0.9c-1.8,0.9-2.3,2.2-1.2,3.9c0.5,0.7,1.5,1.2,1.1,2.4c-0.3,0.2-0.6,0.2-0.9,0
		c-0.9,0.3-1.8,0.6-3.1,1.1c0.7-2.3,1.1-4.3-2.7-4.8c2.8-1.1,4.4-2.2,2.1-5.2C240.8,290.3,242.1,288.7,242.8,286.2z"/>
	<path class="st59" d="M344.4,356.1c0,0.3,0,0.5,0,0.8c-2.8,1-5.7,2-8.8,3.1c3.8,1.2,7-1,10.4-0.9c-3.8,1.9-7.7,2.9-12,2.4
		c-0.7-0.1-1.5-0.2-1.6-1c-0.1-0.9,0.7-1.2,1.4-1.3C337.6,358.7,340.8,356.9,344.4,356.1z"/>
	<path class="st60" d="M120.4,339.3c-0.7-0.3-1.4-1.5-1.6,0.5c-0.3,4.3,1.4,8.1,2.9,12c0.3,0.7,0.4,1.5,0.7,2.3
		c-4.6-6.2-5.4-13.1-3.9-21.1C120,335.4,120.6,337.2,120.4,339.3z"/>
	<path class="st26" d="M243.9,290.2c0-0.2,0.1-0.5,0.1-0.7c1-0.2,2.1-0.3,3.5-0.6c-1,2.3-0.5,3.9,2.4,4.7c-2.2,1.2-4.6,1.9-1.8,5
		c-2.9-1.2-4.6-1.1-5.1,1.7c-1.4-0.6-1.4-2-2.2-2.8c0.3-0.1,0.7-0.1,1-0.2C245.5,294.8,245.5,294.8,243.9,290.2z"/>
	<path class="st61" d="M225.9,272.2c1.1-1.4,2.5-2.4,4.3-2.7c0.6,0.2,1,0.7,1.4,1.2c1.2,1.6,3.5,2.5,3.8,4.8
		c-0.6,0.8-1.4,0.9-2.3,0.9C230.5,275.3,227.6,274.8,225.9,272.2z"/>
	<path class="st62" d="M108.2,390.4c0.2-0.7-1.1-3.1,1.4-1.3c1.8,1.2,3.4,2.7,5,4.1c-1.3,0.4-2-1.1-3.5-1.1c0.9,4.2,5.2,5.7,7,8.9
		C113.4,398.7,110.6,394.7,108.2,390.4z"/>
	<path class="st63" d="M230.6,270.8c-0.1-0.4-0.3-0.9-0.5-1.3c0.7-0.4,1.4-0.9,2.2-1.3c1.4-0.6,1.3,1.1,2.2,1.3
		c2.4,0.4,2.9,2,2.7,4.1c0.1,0.2,0.1,0.4,0.1,0.6c-0.2,0.7-0.5,1.2-1.4,1C234.1,273.8,232.9,271.7,230.6,270.8z"/>
	<path class="st64" d="M277.5,464.2c-2.5-2-5-3.9-7.5-5.9c4.9,0.8,8.9,3.4,12.7,6.2c-1.5,0.1-2.6-0.9-3.8-1.4
		C277.8,462.6,277.7,463.3,277.5,464.2z"/>
	<path class="st65" d="M226.2,187c-0.4,0.9-0.7,2,0.2,2.5c3,1.5,2.4,4.2,2.4,6.6c0,3.6,0,7.1-0.1,10.7c0,1.3-0.1,2.6-1.2,3.5
		c0.8-4.6,0.6-9.2,0.6-13.8c0-2.2,0.5-4.5-2.2-6.1C224.8,189.7,224.5,188,226.2,187z"/>
	<path class="st66" d="M225.9,272.2c2.3,1.2,4.6,2.4,6.9,3.6c1.3,1.2,0.5,1.5-0.7,1.4c-2.7-0.4-5.5-0.8-7.8-2
		c-2.2-1.2,0.1-2.2,1.2-2.9L225.9,272.2z"/>
	<path class="st67" d="M255.9,271.2c0.7-0.5,1.4-0.9,2.4-0.6c0.5,0.3,1,0.7,1.5,1c0.2,0.3,0.2,0.6,0,0.9c-1.3,1.2-3.1,1.5-4.3,2.8
		c-0.6,0.6-1.3,0.7-2.1,0.2c-0.6,0.1-1.7,0.6-1.8,0c-0.1-0.6,0.7-1.4,1.1-2.1C253,271.7,254.2,271.1,255.9,271.2z"/>
	<path class="st68" d="M225.6,272.2c-2,1.6-2.3,2.7,0.8,3.1c1.9,0.2,3.7,0.9,5.5,1.3c0.8,0.2,1.1-0.1,0.8-0.9
		c0.7-0.4,1.8,0.5,2.4-0.6c0.3-0.4,0.7-0.5,1.1-0.3c0.4-0.2,0.7-0.5,1.1-0.7c0.1,0.3,0.2,0.7,0.2,1c-1.5,0.9-2.9,1.8-4.4,2.7
		c-2.6-0.6-5.3-1.3-7.9-2c-1.1-0.3-2.9-0.2-2.7-1.5C222.6,273.1,223.9,272,225.6,272.2z"/>
	<path class="st69" d="M371.9,373.7c-0.1-1.7,1.3-2.9,1.8-4.5c0.4-1.1,0.9-2.4-1.3-2c1-1.7,1.9-3.4,2.9-5
		C375.7,366.5,374.9,370.4,371.9,373.7z"/>
	<path class="st70" d="M253.3,275.5c0.4,0,0.9-0.1,1.3-0.1c1.2-1.8,3.9-1.7,5.1-3.5c0,0,0-0.3,0-0.3c0.7,0.4,1.3,0.8,2,1.3
		c0.6,0.5,0.6,1.2,0.1,1.4c-3,1.2-5.8,3.1-9.3,2.7c0,0,0.1,0,0.1,0C252.8,276.6,253.1,276.1,253.3,275.5z"/>
	<path class="st71" d="M171.3,523.9c0-3.1,0-6.2,0.1-9.3c0.1-2.9-0.7-5.4-3-7.4c2.4,0.2,3.4,2,3.5,3.7c0.3,4.3,0,8.7,0,13
		c0,0-0.2,0.1-0.3,0.1C171.5,524,171.4,524,171.3,523.9z"/>
	<path class="st72" d="M252.5,277.1c2.7-0.9,5.3-1.8,8-2.5c1-0.3,1.4-0.7,1.2-1.7c2.1,0.8,1.7,1.5-0.1,2.2c-2.3,0.9-4.6,1.8-7,2.7
		C254,277.6,252.9,278.3,252.5,277.1z"/>
	<path class="st73" d="M373.8,391c0.8-0.9,1.6-1.8,2.4-2.7c0.6-0.1,1.7-1.3,1.6,0.4c-0.2,1.7-0.7,3.4-2.4,4.4
		C375.4,392.1,375.2,391.1,373.8,391z"/>
	<path class="st52" d="M312.6,223.2c2.4-3.5,3-7.2,0.9-11.1C316.9,215.4,316.5,220.7,312.6,223.2z"/>
	<path class="st74" d="M116.7,415.6c-1,0.1-1.3,0.8-1.5,1.6c-1.6-1.2-2.8-2.7-3.7-5.1C113.8,412.9,115.4,414,116.7,415.6z"/>
	<path class="st75" d="M217.7,457.5c-1.6,1.1-3.2,2.2-4.7,3.3c-0.6-1.8-2.1,0.1-2.9-0.6C212.4,458.8,214.8,457.5,217.7,457.5z"/>
	<path class="st76" d="M328.7,344.4c-1.2,1-2.2,0.6-2.8-0.6c-0.5-1-0.2-2.1,0.8-2.8c1.1-0.7,2.1-1.6,3.4-1.7c-0.3,0.9-1,1.5-1.8,2
		C325.8,342.8,326.5,343.7,328.7,344.4z"/>
	<path class="st76" d="M336.7,340.8c-2.2,2-4.9,3.1-7.9,3.6C331.2,342.8,333.6,341,336.7,340.8z"/>
	<path class="st62" d="M114.7,393.1c9.8,6.3,20.9,8,32.3,8.9c3.3,0.3,6.7,0.1,9.9-0.8c0.9-0.2,2.1-0.6,2-1.7
		c-0.2-1.4-1.5-0.8-2.3-0.7c-6.9,0.6-13.8,0.2-20.7-0.7c-3.6-0.5-7-1.3-10-3.4c1.9-0.5,3.4,1,5.1,1.3c8.4,1.7,16.8,2.9,25.4,1.5
		c1.4-0.2,3-0.3,3.4,1.6c0.3,1.8-1,2.5-2.4,3c-4.6,1.7-9.4,0.9-14.2,0.8c-5.4-0.1-10.6-1.4-15.6-2.9
		C123,398.6,117.7,397.6,114.7,393.1z"/>
	<path class="st77" d="M242.9,309.7c9.7,14,19.4,28,29.2,42.1c10.4,15.1,20.8,30.1,31.3,45.2c1.2,1.7,1.2,2.9,0.2,4.7
		c-4.3,7.7-8.5,15.4-12.6,23.1c-0.8,1.4-1.7,1.9-3.3,1.9c-30.2,0.1-60.3,0.2-90.5-0.4c-1.7,0-2.5-0.7-3.3-2.1
		c-4.1-7.7-8.3-15.5-12.6-23.1c-0.8-1.5-0.9-2.6,0.1-4.1c20-28.7,40-57.4,60-86.1C241.8,310.4,242,309.8,242.9,309.7z"/>
	<path class="st78" d="M241.8,452.7c2.8,3.7,3.6,3.7,6.1,0.3c2.8,3.8,2.9,3.8,6.2,0.9c0.9-0.8,1.5-0.5,2.2,0c3,2.2,5,5.1,4.8,8.9
		c-0.2,3.2-1.6,5.9-4.9,7.1c-3.1,1.1-5.6-0.4-7.6-2.6c-1.2-1.3-2.2-2.7-3.1-4.2c-1-1.8-1.9-2-2.9-0.1c-1.1,2-2.4,3.8-4.2,5.1
		c-3.6,2.8-8,2.2-10.6-1.4c-2.7-3.6-2.1-9,1.2-11.3c0.5-0.3,0.9-0.9,1.5-0.4c2.6,2.3,3.6,0.4,4.9-1.5c0.9-1.4,1,0.4,1.6,0.6
		C239,455.3,240.2,453.5,241.8,452.7z"/>
	<path class="st79" d="M228.8,453.6c-2.8,2.7-4.6,5.5-4.2,9.3c0.1,0.5-0.2,1.2-0.6,1.6c-5.1,5.7-8,12.5-11.1,20.2
		c-1.4-2.8-2.6-4.9-3.6-7.2c-0.7-1.6-1.4-1.8-2.9-0.9c-2.4,1.5-5,2.8-7.5,4.2C200.8,472.3,218.2,456.5,228.8,453.6z"/>
	<path class="st80" d="M259.3,454.2c8.1,1.2,25,16.3,29.3,26.8c-3.1-1.7-5.7-3-8.3-4.5c-1.3-0.8-2-0.7-2.7,0.7
		c-1.1,2.3-2.3,4.5-4,7.8C271.2,472.9,262.8,464.7,259.3,454.2z"/>
	<path class="st81" d="M248.8,448.5c0.4-2.6,0-6.4,2.6-6.4c2.5,0,2.4,3.8,2.4,6.2c0,2.4,0.2,6.2-2.3,6.2
		C248.4,454.5,249.5,450.5,248.8,448.5z"/>
	<path class="st82" d="M247.5,447.5c-0.4,2.3,0,6.3-2.4,6.2c-2.9,0-2.5-3.9-2.6-6.3c0-2.4,0-6.2,2.4-6.1
		C247.5,441.3,247.2,445.1,247.5,447.5z"/>
	<path class="st83" d="M237.5,453.2c-1.3-3-1.4-6-0.7-9.1c0.3-1.2,0.6-2.9,1.9-3c1.7-0.1,1.9,1.8,2.2,3.1c0.6,2.5,0.3,5,0,7.5
		C240.1,454.8,239.5,455,237.5,453.2z"/>
	<path class="st84" d="M234.8,448.4c-0.2,2.2,0.2,5.9-2.4,6c-2.7,0-2.1-3.8-2.4-6c-0.1-0.6,0-1.2,0.1-1.7c0.3-1.8,0-4.8,2.4-4.7
		c2.1,0.1,2,3,2.2,4.9C234.7,447.3,234.7,447.8,234.8,448.4z"/>
	<path class="st85" d="M237.5,453.2c2.3,2.1,2.4-0.7,3.4-1.5c0.3,0.3,0.6,0.6,0.9,0.9c-1.2,2.1-2.3,4.5-5,1.3
		C237,453.8,237.3,453.5,237.5,453.2z"/>
	<path class="st86" d="M162.3,520.1c-0.8,1.1,0.9,3.6-1.6,3.4c-1.9-0.2-4.1-1.2-5.3-3.1c-0.4-0.6,4.3-4.3,5.3-4.1
		C163,516.8,161.8,518.7,162.3,520.1z"/>
	<path class="st87" d="M187.6,214.1c-1.5-0.1-1.6-1.1-2.1-1.7c-1-1.4-2.4-1.5-3.8-0.8c-1.5,0.7-2.1,1.9-1.3,3.4
		c1,2.1,0.9,5.1,4.2,5.4c2.9,0.3,7.9-2.9,8.9-5.6c0.3-0.8,0.4-1.6,0.7-2.4c0.6-1.5,1.3-1.5,2.2-0.2c2.3,3.3,0.6,7.5-3.3,8.8
		c-5.7,1.9-11.4,4.1-17.1,6.1c-0.8,0.3-1.7,1.2-2.6,0.2c-0.8-0.9,0.1-1.5,0.5-2.1c1-1.7,0.6-3.5,0-5.1c-1.5-4.2-3.1-8.3-4.8-12.4
		c-0.6-1.4-1.3-2.7-3-3.2c-0.7-0.2-1.9,0.1-1.9-1.1c0-1.2,1.2-1.4,2-1.7c4-1.5,8-3,12-4.5c1.8-0.7,3.6-1.3,5.2-2.2
		c2.5-1.3,4.1-0.6,5.2,1.7c0.6,1.2,1.4,2.5,0.4,3.6c-1,1-1.9-0.4-2.8-0.7c-2.7-1.1-8-0.2-9.7,2c-1.8,2.3,0.1,4.4,0.9,6.5
		c0.5,1.2,1.4,1.8,2.8,1.4c2-0.5,3.1-1.6,2.7-3.8c-0.1-0.6-0.5-1.5,0.4-1.9c1-0.4,1.6,0.6,1.9,1.2
		C186.8,207.9,188.3,210.7,187.6,214.1z"/>
	<path class="st88" d="M65.5,378.7c-2.6,0.4-6.7-1.5-9.6,2.3c-0.6,0.8-1.5-0.3-1.8-1c-1.4-3.6-1.2-7.3-0.4-11
		c0.3-1.3,1.8-1.7,2.4-0.7c1.8,2.9,4.7,2.4,7.4,2.5c2.5,0.1,5,0.2,7.5,0c3.7-0.3,5.6-2.4,5.6-6c0.1-4-1.5-6.2-5.3-6.6
		c-3.9-0.4-7.9-0.4-11.8-0.5c-1.3,0-2.6,0.2-3.4,1.5c-1.3,2.1-2.1,0.9-2.4-0.5c-0.3-1.6-0.1-3.2-0.2-4.9c0-1.2,0.1-2.5,1.3-3
		c1.2-0.5,1.4,1,2.1,1.5c1.7,1.5,3.8,1.3,5.8,1.5c3.6,0.2,7.2,0.2,10.7,0.8c3.9,0.6,6.5,2.7,7.5,6.5c0.9,3.3,1,6.7,0.2,10
		c-1.2,5.3-4.3,7.5-10,7.4C69.6,378.7,68,378.7,65.5,378.7z"/>
	<path class="st89" d="M83.9,320.3c0.3,0,0.6-0.1,1-0.1c1.1-0.2,2-1.8,3.2-0.7c1.3,1.2,0,2.7-0.2,3.9c-0.2,1-0.8,1.9-1.3,2.8
		c-0.4,0.8-1,1.8-2,1.8c-1.3,0-1.1-1.2-1.6-2c-0.3-0.6-0.7-1.3-1.3-1.6c-5-2.7-10.3-4.9-15.9-6.1c-0.8-0.2-1.6,0-2.4,0.5
		c-0.7,0.5-1.5,1.5-2.5,0.6c-0.7-0.7-0.4-1.8-0.1-2.7c0.9-3.5,2.4-6.3,6.4-7.7c3.7-1.3,7.1-3.2,10.5-5.2c2.8-1.6,2.6-3.1-0.3-4.4
		c-2.1-1-4.2-2.4-6.7-0.5c-1.7,1.2-2.2-0.1-2-1.4c0.3-2.3,1.3-4.5,2.6-6.4c0.8-1.3,2.1-1.4,2.5,0.4c0.6,2.8,2.9,3.6,5,4.5
		c4.7,2.2,9.6,4.1,14.3,6.4c3.4,1.7,3.3,2.4-0.1,4.1c-4.1,2.1-8.4,3.9-12.6,5.9c-1.8,0.8-4.4,1.3-4.3,3.6c0.1,2.3,2.7,2.6,4.6,3.4
		C81.7,319.8,82.8,320,83.9,320.3z"/>
	<path class="st90" d="M223.6,528.6c-4.2-0.2-6.6,1.7-8.8,4c-1.2,1.3-0.4,2.6,0.2,3.9c2.3,4.7,5,9.3,8.3,13.4c0.8,0.9,1.7,1.9,1,3.1
		c-0.7,1-2,0.3-3,0.3c-0.6,0-1.2-0.3-1.7-0.3c-4.6,0-7.5-2.2-8.8-6.5c-0.3-1-0.9-1.9-1.5-2.7c-1-1.2-1.6-3.9-3.8-2.5
		c-1.8,1.1-1.6,3.5-0.8,5.4c1.2,2.9,0.9,3.5-2.4,3.2c-1.8-0.1-3.6-0.5-5.3-0.9c-4.5-1.1-3.8-1-2.1-4.9c2.8-6.3,5.6-12.9,2.8-20
		c-0.6-1.6,0-1.9,1.2-2.1c3.4-0.4,6.7,0.2,9.8,1.5c1.5,0.6,2,1.7,0.1,2.7c-0.4,0.2-0.9,0.5-1.1,0.9c-1.2,1.8-2.6,4-0.7,5.7
		c1.8,1.6,3.5-0.2,4.8-1.6c1.3-1.3,3-2.3,2.3-4.7c-0.4-1.3,1-1.6,2.1-1.7c2.4-0.1,4.8,0.4,7.1,1c1.2,0.3,3,0.4,2.7,2.2
		C225.5,529.7,223.9,528.6,223.6,528.6z"/>
	<path class="st91" d="M273.1,524.8c1.8-2.2,4.3-2.3,6.5-2.8c1.1-0.2,2.5-0.5,3.3,0.6c0.9,1.3-0.7,1.7-1.2,2.5
		c-0.8,1.3-0.5,2.7-0.4,4.1c0.4,2.9,0.6,5.8,1.3,8.6c1.9,7.6-1.7,12-10.1,13.7c-8.3,1.7-12.9-1.1-14.4-9.1c-0.6-3-1.3-5.9-1.9-8.9
		c-0.2-1.2-0.6-2.3-1.9-2.8c-2.9-1.3-1.7-2.5,0.2-3.4c3-1.5,6.3-2.1,9.7-2c1.3,0,2.5,0.8,1.5,1.9c-2.8,3.1-1.1,6.4-0.7,9.6
		c0.3,1.9,0.7,3.9,1.4,5.7c1.3,3.4,3.5,4.5,7,3.8c3.6-0.7,5.5-2.7,5.4-6.2c-0.1-4.2-1.3-8.3-2.2-12.3
		C276.5,526,274.6,525.7,273.1,524.8z"/>
	<path class="st92" d="M379.6,494.7c0,1.6-1.2,1.3-2.1,1.4c-4.2,0.7-8.4,0.4-12.5,0.5c-1.8,0-3.6-0.1-5.4,0.2
		c-2.9,0.4-3.7,1.8-1.9,4c1.9,2.3,3.6,5,7.4,4.5c1.6-0.2,1.8,0.9,1.2,2.1c-0.7,1.4-1.7,2.5-3,3.4c-1.1,0.8-2.1,2.2-3.7,1.8
		c-1.7-0.5-0.2-2.1-0.7-3.1c-0.4-0.8-0.7-1.8-1.2-2.5c-2.9-3.5-6.1-6.8-9.7-9.7c-1.3-1.1-2.7-2-4.6-1.4c-0.7,0.2-1.5,0.4-1.8-0.5
		c-0.3-0.7,0.1-1.3,0.5-1.9c2.4-3,4.9-5.5,9.4-5.2c4,0.3,8.1,0.2,12.2-0.5c2.8-0.5,3.2-1.8,1.5-3.8c-1.7-1.9-3.1-4.2-6.4-3.5
		c-1.4,0.3-1.9-0.9-1-2c0.9-1.2,2-2.3,3.2-3.3c1-0.9,1.9-2.5,3.5-1.8c1.5,0.6,0.4,2.1,0.5,3.1c0.2,1.7,1.3,3,2.4,4.2
		c3,3.3,6.1,6.6,9.1,9.9C377.9,491.8,379,493.1,379.6,494.7z"/>
	<path class="st89" d="M301.8,225.5c-3.4-0.1-7.5-2.1-11.1-5.1c-1.9-1.6-2.2-6.5-0.6-8.4c0.7-0.9,1.4-0.9,1.9,0.1
		c0.4,0.8,0.6,1.8,0.9,2.7c0.9,2.4,2.3,4.4,4.7,5.4c1.8,0.8,3.9,1.4,5.2-0.6c1.2-1.8-0.5-3-1.7-4.1c-1.7-1.6-3.6-3.1-5.1-4.9
		c-2.4-2.8-3-6-1-9.4c1.9-3.3,5.2-4.2,8.8-4.2c4.5,0.1,7.8,3.3,11.9,4.4c1.8,0.5,2.4,5.5,1.1,6.9c-1.6,1.6-2.6,0.4-3.3-0.9
		c-1.1-2-2.1-3.9-4.3-5c-1.5-0.8-3.2-1.4-4.6,0.2c-1.4,1.6-0.3,3.1,0.9,4.2c1.1,1,2.4,2,3.6,2.9c4.4,3.3,5.6,6.1,4.2,9.8
		C311.8,223.5,308.2,225.6,301.8,225.5z"/>
	<path class="st91" d="M430.1,360.6c0,0.8-0.3,2.1,0.1,3.1c1.1,2.6-0.6,3.7-2.3,4.8c-1.4,0.9-3.1,1.8-4.5,0.3
		c-1.4-1.5,0.4-2.5,1.1-3.6c1.5-2,2.4-4,2-6.5c-0.2-1.3-0.8-2.2-2.1-2.6c-1.4-0.4-2.3,0.5-2.9,1.5c-1,1.7-1.3,3.7-1.7,5.6
		c-1,5-3.3,7.3-7.4,7.6c-4.4,0.4-7.8-1.8-9.7-6.2c-1.9-4.4-1.8-8.8-0.5-13.3c0.7-2.4,4.9-4.6,7.6-4c1.1,0.2,1.5,0.8,0.7,1.7
		c-0.6,0.7-1.4,1.3-2.1,1.9c-2.1,2-3.3,4.2-3.1,7.1c0.1,1.7,0.6,3.4,2.6,3.6c2,0.3,2.5-1.4,3-2.8c0.8-2.1,1.2-4.3,2.1-6.3
		c1.8-4.1,5.1-6,9-5.6c3.5,0.3,6.8,3.3,7.7,7.3C430.3,356.3,430.6,358.3,430.1,360.6z"/>
	<path class="st93" d="M237.9,187c2.6,0,5.3-0.2,7.9,0c3.1,0.2,6.1,1.2,7.1,4.4c0.9,3-0.1,5.4-3.1,7c-2,1.1-1.5,2.5,0.6,3.2
		c2.7,0.9,3.6,2.9,4.1,5.3c0.4,1.8,0.5,3.5,2.6,4.7c1.6,0.9,0.2,1.7-0.7,2.2c-4.5,2.3-9.5,0.1-11-4.6c-0.5-1.8-1.1-3.6-1.8-5.3
		c-0.8-1.7-2.3-2.4-4.1-2c-1.9,0.4-1.3,2-1.2,3.2c0.1,2.3-0.8,4.9,2,6.6c1.4,0.9,0.2,2-0.9,2.1c-3.4,0.5-6.9,0.6-10.4,0
		c-1.4-0.2-2.6-1.2-0.6-2.5c1.2-0.8,1.4-2.1,1.6-3.4c0.8-5,0.5-10,0.3-15c0-1.2-0.3-2.6-1.6-3.4c-0.6-0.4-1.5-0.6-1.2-1.5
		c0.3-0.9,1.2-1.1,2-1.1C232.2,187,235,187,237.9,187C237.9,187,237.9,187,237.9,187z"/>
	<path class="st89" d="M141.3,230.2c-0.6-2.8-1.2-5.5-1.9-8.2c-0.1-0.5-0.6-1.3-1-1.4c-5-1.2-1.3-2.8-0.1-4c0.8-0.8,2-1.3,3-1.9
		c0.8-0.4,1.7-1,2.6-0.1c0.8,0.9-0.2,1.4-0.6,2.1c-1.1,2.2-0.1,4.3,0.3,6.5c1,5.7,2.2,11.4,3.1,17.1c0.2,1.5,0.9,3.5-0.7,4.6
		c-1.6,1.1-3.2-0.2-4.6-1c-5.1-3.2-10.1-6.5-15.2-9.8c-1.7-1.1-3.2-2.3-5.5-2c-2,0.2-1.8-1.2-1-2.3c2.1-3,5.1-4.8,8.6-6
		c0.9-0.3,2.4-0.3,2.1,0.9c-0.8,3.1,1.8,3.7,3.5,4.9c1.2,0.9,2.5,1.8,3.9,2.5C139.8,233.4,140.9,232.4,141.3,230.2z"/>
	<path class="st94" d="M388.4,306.5c-0.9-2.4-1.8-4.7-2.7-7.1c-0.2-0.6-0.3-1.4,0.5-1.8c0.7-0.4,1.1,0.1,1.6,0.5
		c1.4,1.4,3.1,1.6,4.9,1.6c7,0.2,14.1,1,21.1,0.1c2.8-0.4,4.7,2.5,3.6,5.4c-0.5,1.3-1.4,2.5-2.2,3.5c-3.6,4.4-7.7,8.2-11.8,12.2
		c-1.5,1.5-3.4,2.8-3.6,5c-0.3,2.5-1.5,1.8-2.4,0.7c-2.5-3.3-3.9-7.2-4.7-11.2c-0.3-1.3,0.5-2.1,1.9-1.1c1.1,0.8,2.1,1.2,3.2,0.2
		c0.9-0.9,0.8-2.1,0.4-3.3c-0.7-2.2-1.3-4.5-2.7-6.4c-0.7-1-1.5-2-2.9-1.7c-1.2,0.2-1.7,1.1-1.7,2.3
		C390.8,307.6,389.3,306.4,388.4,306.5C388.3,306.4,388.4,306.5,388.4,306.5z"/>
	<path class="st95" d="M316.6,508.1c1.4,0.2,2.8,0.8,4.1,1.6c4.8,2.9,9.1,6.4,13.5,9.8c2.1,1.6,4,3.7,7,3.8c2,0.1,1.1,1.5,0.4,2.1
		c-3.1,2.8-6.9,4.5-10.9,5.8c-1.6,0.5-2.1-0.2-1.4-1.9c1.1-2.5-0.1-3.8-2.8-3.1c-2.7,0.7-5.1,1.9-7.3,3.6c-0.8,0.7-1.7,1.5-1.3,2.7
		c0.4,1.1,1.2,1.7,2.5,1.5c0.6-0.1,1.2-0.1,1.5,0.6c0.3,0.8-0.2,1.3-0.8,1.8c-2,1.5-4.2,2.7-6.6,3.4c-0.6,0.2-1.2,0.2-1.6-0.3
		c-0.4-0.6-0.2-1.1,0.3-1.6c1.3-1.4,1.2-3.2,1.1-5c-0.2-6.6-0.7-13.2-1.9-19.8C312.1,510.1,313.4,508.2,316.6,508.1z"/>
	<path class="st96" d="M412.8,415.6c-0.1,0.2-0.1,0.4-0.1,0.4c-2.5,2.9-2.5,5.8,0,8.7c0.3,0.4,0.3,1.2-0.2,1.6
		c-0.8,0.7-1.7,0.4-2.3-0.1c-2.6-2.2-5.1-2.2-7.7-0.1c-0.5,0.5-1.5,0.9-2.2,0.1c-0.6-0.8-0.4-1.6,0.2-2.2c2.1-2.4,2.1-4.7,0-7.2
		c-0.5-0.6-1-1.4-0.2-2.2c0.7-0.8,1.6-0.5,2.3,0c2.6,2.1,5.1,2.1,7.7,0C411.1,413.8,412.7,413.6,412.8,415.6z"/>
	<path class="st97" d="M73.5,414.2c0.5,0.2,0.9,0.2,1.2,0.4c2.7,2.2,5.4,2.2,8-0.1c0.5-0.4,1.4-0.6,2-0.2c0.8,0.6,0.7,1.6,0.1,2.2
		c-2.4,2.6-2.3,5.1,0,7.7c0.5,0.6,0.6,1.6-0.2,2.2c-0.6,0.5-1.5,0.2-2-0.2c-2.6-2-5.1-2.5-7.7-0.2c-0.6,0.5-1.6,0.8-2.3,0.2
		c-1-0.8-0.4-1.9,0.2-2.5c2.2-2.4,2-4.5,0-6.9C72.1,416.1,71.5,414.6,73.5,414.2z"/>
	<path class="st87" d="M126,478.6c1,2.2,3,3.4,4.8,5c2.3,2,4.8,3.9,6.7,6.3c3.1,3.8,3.2,7.2,0.4,10.4c-3.1,3.6-6.9,4.3-11.2,2.1
		c-1.1-0.6-2.1-1.6-3.2-2.2c-1.2-0.7-1.6-3.2-3.4-2.1c-1.7,1.1-3.5,2.5-3.5,4.9c0,0.9,0.8,2.3-0.7,2.7c-1.1,0.3-2-0.5-2.9-1.2
		c-2.4-1.9-4.8-3.9-6.4-6.5c-1-1.5-0.9-2.7,1.5-2.6c0.8,0,1.9,0.2,2.4-0.2c4.7-3.8,9-7.9,12.8-12.6c0.4-0.5,0.4-1.4,0.2-2
		C122.1,477.1,124.1,477.9,126,478.6C126,478.6,126,478.6,126,478.6z"/>
	<path class="st78" d="M383.4,255.8c-1.5-0.9-3.2-0.3-4.9-0.4c-0.9-0.1-1.7-0.3-2-1.1c-0.4-1,0.3-1.7,1.1-2.3c3.1-2.3,7-1.7,9.3,1.3
		c2.1,2.7,4.5,5.3,6.8,8c0.8,1,1.5,2.1,2.4,3c2.8,2.8,2,7.2-1.7,8.9c-2,0.9-3-0.1-3.1-2c-0.1-0.9,0.4-1.8,0.8-2.7
		c0.6-1.3,0.7-2.5-0.6-3.4c-1.3-0.9-2.3,0.1-3.2,0.8c-3.3,2.5-6.6,5-9.9,7.5c-1.5,1.2-2.8,2.5-2.4,4.7c0.4,2.4-1.3,2.4-2.5,1.4
		c-3.2-2.5-6-5.4-7.5-9.2c-0.8-2-0.2-2.7,2-2c0.4,0.2,0.9,0.4,1.3,0.4c2.3,0.1,14.8-8.9,15.3-11
		C384.8,256.8,384.2,256.2,383.4,255.8z"/>
	<path class="st95" d="M110.2,278.1c-1.4,0-1.4-0.9-1.3-1.7c0.2-1.4-0.2-2.6-1.3-3.5c-3.8-3.2-7.7-6.3-11.5-9.4
		c-0.8-0.6-1.9-1.1-3-0.8c-3.3,1-3-0.8-2-2.6c1.5-2.8,3.5-5.3,6.1-7.2c0.9-0.7,2.5-1.4,2.5,0.7c0,2.4,1.5,3.6,3,4.9
		c3.1,2.6,6.2,5.1,9.4,7.6c1.2,1,2.6,1.7,4.3,1.3c2.1-0.4,2.8,0.5,1.9,2.3c-1.6,3.2-3.8,5.9-6.8,8C111,277.9,110.5,278,110.2,278.1z
		"/>
	<path class="st98" d="M350,220.8c2,0.1,8.9,5.4,9.4,7.2c0.2,0.7,0.4,1.6-0.7,1.6c-4.1-0.1-5.5,3.3-7.6,5.6
		c-1.9,2.1-3.6,4.4-5.4,6.6c-1,1.2-1.7,2.5-1.4,4.2c0.5,2.3-0.6,2.8-2.6,1.8c-3-1.5-5.7-3.4-7.8-6c-1.1-1.5-1.5-2.9,1.2-2.8
		c0.4,0,0.7,0.1,1.1,0c3.1-0.6,12.5-13,12.2-16.2C348.4,221,348.7,220.7,350,220.8z"/>
	<path class="st99" d="M247.7,271.7c-1,0.4-0.9,2.5-2.5,1.8c-1.5-0.7,0.2-1.8,0-2.7c-0.1-0.5,0-1.2,0.1-1.7c0.2-0.9-0.6-2.4,1.4-2.5
		c2.1-0.1,2.3,1,2.1,2.6C249.6,270.6,248.9,271.3,247.7,271.7z"/>
	<path class="st100" d="M247.7,271.7c0.4-0.8,0.8-1.7,1.1-2.5c1-0.4,0.8-2.7,2.7-1.6c1.6,0.9-0.4,1.9,0,2.9c0.3,1.4-0.3,2.4-1.8,2.6
		c-0.6,0.3-1.3,1-1.7,0.9C246.9,273.6,248,272.5,247.7,271.7z"/>
	<path class="st101" d="M249.8,273.2c0.6-0.9,1.2-1.8,1.8-2.7c1.1-0.4,1.2-2.4,3.1-1.8c1.2,0.5,1.5,1.3,1.3,2.4
		c-1.1,0.7-2.2,1.5-3.3,2.2C251.8,272.2,250.5,277.2,249.8,273.2z"/>
	<path class="st102" d="M241.6,269.6c0.5-1.1-1-3.1,1.6-3.1c1.8,0,1.4,1.3,1.3,2.2c-0.3,1.7,0.6,4.4-1.6,4.6
		C240.9,273.5,242.1,270.9,241.6,269.6z"/>
	<path class="st103" d="M237.3,273.6c-0.8-1.4-1.1-3.1-2.7-4.1c-0.3-2.1,1-2.4,2.7-2.1c1.5,1.6,2.1,3.4,1.7,5.5
		C238.9,274.6,237.8,273.4,237.3,273.6z"/>
	<path class="st104" d="M238,267.3c1.4-0.8,2.7-1.2,2.9,1.1c0.1,1.5,0.2,3,0,4.5c-0.1,1.1-0.9,0.7-1.4,0.1
		C238.6,271.2,237.7,269.4,238,267.3z"/>
	<path class="st105" d="M238,267.3c0.5,1.9,1,3.8,1.5,5.7c0,0-0.3,0-0.3,0s-0.3,0-0.3,0c-1-1.7-1.4-3.6-1.7-5.5
		C237.5,267.4,237.8,267.3,238,267.3z"/>
	<path class="st106" d="M205.4,341.3c2.2,0.3,3.5,1.5,3.4,3.6c-0.1,2.1-1.5,3.5-3.7,3.4c-2.2-0.1-3.6-1.6-3.5-3.6
		C201.8,342.7,203.1,341.3,205.4,341.3z"/>
	<path class="st107" d="M205,330.8c-0.3,2.1-1.4,3.6-3.6,3.6c-2.2,0.1-3.6-1.2-3.7-3.4c-0.1-2.2,1.2-3.5,3.5-3.6
		C203.5,327.3,204.5,328.8,205,330.8z"/>
	<path class="st108" d="M282.2,344.6c-0.1,2.4-1.4,3.7-3.6,3.8c-2.2,0.1-3.6-1.3-3.7-3.5c0-2.2,1.3-3.5,3.5-3.6
		C280.8,341.3,281.9,342.6,282.2,344.6z"/>
	<path class="st109" d="M229,295.1c0,2.4-1.2,3.8-3.4,3.8c-2.2,0.1-3.7-1.2-3.8-3.4c-0.1-2.1,1.2-3.5,3.5-3.7
		C227.5,291.8,228.7,293.1,229,295.1z"/>
	<path class="st110" d="M212.2,307.4c-2.1-0.2-3.6-1.2-3.5-3.5c0-2.2,1.4-3.5,3.6-3.6c2.1,0,3.6,1.2,3.6,3.5
		C215.9,306.1,214.5,307.2,212.2,307.4z"/>
	<path class="st111" d="M258.3,291.8c2.2,0.2,3.6,1.2,3.7,3.5c0.1,2.2-1.2,3.5-3.5,3.6c-2.3,0.1-3.6-1.3-3.8-3.4
		C254.7,293.3,256.1,292.2,258.3,291.8z"/>
	<path class="st112" d="M286.3,330.7c-0.4,2.3-1.5,3.7-3.8,3.7c-2.4-0.1-3.8-1.5-3.6-3.8c0.1-2.1,1.6-3.3,3.8-3.2
		C285,327.5,286,329,286.3,330.7z"/>
	<path class="st113" d="M208,317.6c-1.7,1.3-3.2,3.2-5.8,1.6c-1.8-1.1-2-2.8-1.3-4.5c0.7-1.6,2.1-2.2,3.8-1.9
		C207.6,313.2,207.9,315.4,208,317.6C207.9,317.7,208,317.6,208,317.6z"/>
	<path class="st114" d="M279.6,312.6c2.3,0.2,3.7,1.4,3.7,3.5c0,2.3-1.6,3.7-3.9,3.6c-2.1-0.1-3.5-1.5-3.4-3.7
		C276.1,313.9,277.5,312.9,279.6,312.6z"/>
	<path class="st115" d="M271.6,307.4c-2.3-0.1-3.7-1.4-3.8-3.4c-0.1-2.2,1.4-3.8,3.8-3.7c2.1,0.1,3.6,1.5,3.5,3.6
		C275.2,306,273.8,307.3,271.6,307.4z"/>
	<path class="st116" d="M243.9,290.2c1.9,0.9,2.8,2.4,2.2,4.4c-0.6,2.1-2.3,2.7-4.3,2.7c-1.8-1-3.4-2.3-2.7-4.6
		C239.8,290.5,241.6,289.8,243.9,290.2z"/>
	<path class="st117" d="M236.2,274.8c-0.4,0.1-0.7,0.2-1.1,0.3c-1.5-1.4-3-2.9-4.5-4.3C233.3,271.1,234.4,273.5,236.2,274.8z"/>
	<path class="st118" d="M259.7,271.9c-0.9,2.2-3.4,2.3-5.1,3.5C255.5,273.1,258,273,259.7,271.9z"/>
	<path class="st119" d="M243.9,328.8c9.6,23.5,19.1,46.9,28.7,70.4c2.6,6.5,5.2,13,8,19.4c1.3,3,0.5,3.6-2.5,3.6
		c-24.1-0.1-48.1-0.1-72.2,0c-3.4,0-3.3-0.9-2.3-3.5c7.4-17.6,14.7-35.3,22.1-53c5-12.1,10.1-24.1,15.1-36.2
		C241.7,328.3,242.3,326.8,243.9,328.8z"/>
	<path class="st120" d="M231.7,338.7c-11.2,26.5-22.4,53-34,80.4c-4.2-7.1-7.9-13.3-11.6-19.5c-0.8-1.3,0-2.2,0.7-3.2
		c14.4-21.1,28.8-42.3,43.4-63.3c1.2-1.7,1.8-3.7,3.5-5.1c0.8-0.3,1.1-1.6,2.2-1.2c0.6,0.2,0.5,0.9,0.3,1.4l0,0
		C234.3,331.6,232.7,335,231.7,338.7z"/>
	<path class="st121" d="M272.7,359.6c6.1,8.8,12.3,17.7,18.4,26.5c2.3,3.4,4.7,6.7,7,10.1c0.8,1.1,1.7,2.3,0.7,3.8
		c-3.7,6.1-7.3,12.2-11.2,18.8c-2.7-4-3.9-8-5.5-11.8c-9.1-21.2-18.1-42.5-27.1-63.8c-0.2-0.5-0.4-1.1-0.6-1.6
		c-0.3-1.3-1-2.4-1.4-3.6c-0.4-1.2-1.4-2.9,0.3-3.7c1.5-0.7,2.2,0.9,2.9,1.9c2.4,3.5,4.7,7,7.2,10.4
		C266.6,351,269.4,355.5,272.7,359.6z"/>
	<path class="st122" d="M272.7,359.6c-1.9-0.7-2.5-2.5-3.4-3.9c-4.4-6.3-8.7-12.7-13.1-19.1c-0.6-0.8-1.1-2.3-2.3-1.8
		c-1.3,0.6-0.7,2-0.2,3.1c0.5,1.2,1.3,2.3,0.9,3.6c-3.4-6-5.3-12.6-8.3-18.7c0.9-0.6,1.5-0.4,1.9,0.3
		C256.3,335.4,265,347.2,272.7,359.6z"/>
	<path class="st123" d="M236.1,328.3c-0.6-2.4-1.7,0.3-2.5-0.2c1.8-2.7,3.5-5.4,5.3-8.1C238.6,323,237.8,325.8,236.1,328.3z"/>
	<path class="st123" d="M231.7,338.7c0.3-3.9,1.9-7.4,4.4-10.4C235.1,331.9,233.4,335.3,231.7,338.7z"/>
	<path class="st124" d="M243.9,328.8c-1.3-0.9-2.1,0.1-3,0.7c0.1-1.2,0.2-2.9,1.6-3.1C243.5,326.3,243.7,327.8,243.9,328.8z"/>
	<path class="st125" d="M254.5,465.3c-3.3,0.1-5.6-2-5.6-4.9c0-1.4,0.2-2.9,1.9-3.3c1.6-0.4,6.7,3.9,6.8,5.6
		C257.6,464.9,255.9,465.1,254.5,465.3z"/>
	<path class="st126" d="M234.7,464.6c-1.7-0.3-4.1-0.6-3.7-3.1c0.4-2.8,3.2-3.9,5.6-4.1c2.2-0.2,2.4,2.1,2.4,3.8
		C239,463.8,237.3,464.6,234.7,464.6z"/>
	<path class="st127" d="M157.1,520.3c1.2-1.1,2-3.1,3.6-2.2c0.9,0.5,0.8,2.7,0,3.4C159.3,522.7,158.4,520.7,157.1,520.3z"/>
	<path class="st128" d="M243.9,194.1c0,1.4-0.2,2.6-1.1,3.7c-0.8,1-2,1.2-3.2,1c-1.5-0.2-1.3-1.4-1.4-2.4c0-0.8-0.1-1.6,0-2.4
		c0.1-1.8-0.4-4.1,2.5-4C243.2,190.1,243.8,192.1,243.9,194.1z"/>
	<path class="st129" d="M407.4,304.6c0,1.5-3.8,5.8-4.5,5.4c-2-1.1-2.5-3.4-2.8-5.3c-0.4-2,1.8-1.3,2.8-1.2
		C404.4,303.6,406.5,302.9,407.4,304.6z"/>
	<path class="st130" d="M317.1,521.5c0.4-1.4-0.7-3.3,1.7-3.4c1.2-0.1,5.9,3.5,5.5,4c-1.4,1.8-3.6,3.1-5.6,3.1
		C316.3,525.2,317.8,522.6,317.1,521.5z"/>
	<path class="st131" d="M126.9,497c-1.1,0-2.2-0.3-2.8-1.3c-0.7-1.1,0.2-2,0.9-2.7c1.1-1.2,2.3-2.4,3.5-3.5c0.8-0.7,1.6-1.7,2.8-0.9
		c1,0.6,1.4,1.5,1.4,2.7C132.7,493.9,129.5,497,126.9,497z"/>
	<path class="st132" d="M253.8,464c-2.2-0.2-3.6-1.2-3.5-3.5c0-0.7-0.3-2.1,1-1.7c2,0.6,4.1,1.6,4.7,3.8
		C256.4,464.1,254.8,463.9,253.8,464z"/>
	<path class="st133" d="M234.9,463.3c-1-0.2-2.7-0.1-2.5-1.7c0.3-1.8,2.2-2.4,3.8-2.7c1.5-0.3,1.6,1.2,1.6,2.1
		C237.9,462.9,236.6,463.3,234.9,463.3z"/>
	<path class="st134" d="M239.4,194.6c0.6-1.2-0.7-3.1,1.2-3.3c1.9-0.1,1.9,1.7,1.8,3.1c0,1.3,0,2.9-1.7,2.9
		C238.4,197.3,240.3,195.2,239.4,194.6z"/>
	<path class="st135" d="M401.4,304.7c1.6-0.4,2.9-0.3,4.5,0.2c-0.3,1.5-1.6,2.2-2.5,3.5C401.9,307.5,401.8,306.1,401.4,304.7z"/>
	<path class="st136" d="M318.7,524c0-1.8,0-3,0-4.3c1.6,0.1,3.1,1,3.2,2.1C322.1,523.2,320.2,523.2,318.7,524z"/>
	<path class="st137" d="M130.5,489.8c0.6,0.1,0.7,0.5,0.8,1c0.5,2-2.6,5.4-4.7,5c-0.5-0.1-1.2-0.3-1.2-1
		C125.3,494.1,129.8,489.7,130.5,489.8z"/>
</g>
<text transform="matrix(1 0 0 1 629.5078 331.9365)"><tspan x="0" y="0" class="st138 st139">VIRTUAL TOUR</tspan><tspan x="-143.3" y="109.7" class="st138 st139">UNIVERSITAS PAKUAN</tspan></text>
</svg>
